<svg width="1000" height="1000" xmlns="http://www.w3.org/2000/svg">

 <g>
  <title>Layer 1</title>
  <ellipse stroke="#000" ry="126.5" rx="122.99999" id="svg_95" cy="247.5" cx="567.33332" stroke-width="0" fill="#f0f8ff"/>
  <ellipse stroke-width="0" ry="277.5" rx="277.5" id="svg_93" cy="492.5" cx="380.83333" stroke="#000" fill="#dff0ff"/>
  <path id="svg_1" fill="#18c4ff" d="m687.42,866.74a1.9,1.9 0 0 0 0,-3.79a1.9,1.9 0 0 0 0,3.79z"/>
  <path id="svg_2" fill="#fff" d="m380.9,637.65l594.1,0l0,27.68l-594.1,0l0,-27.68z"/>
  <path id="svg_3" d="m975,664.38l-585.14,0a65.9,65.9 0 0 0 -7.95,0a8.51,8.51 0 0 1 -1,0l1,1l0,-27.73l-1,1l585.09,0a63.9,63.9 0 0 0 8,0a8.51,8.51 0 0 1 1,0l-1,-1l0,27.69a1,1 0 0 0 1.9,0l0,-27.69a1,1 0 0 0 -1,-0.95l-569.9,0c-7.7,0 -15.41,-0.1 -23.11,0l-1,0a1,1 0 0 0 -0.95,0.95l0,27.69a1,1 0 0 0 0.95,0.95l570,0c7.7,0 15.41,0.1 23.11,0l1,0a1,1 0 0 0 0,-1.91z"/>
  <path id="svg_4" d="m975,637.65l-594.1,0l0,-37.01l555.96,0l38.14,37.01z"/>
  <path id="svg_5" d="m975,636.7l-585.14,0a63.9,63.9 0 0 0 -7.95,0a8.51,8.51 0 0 1 -1,0l1,0.95l0,-37l-1,1l553.63,0l2.13,0s-0.71,-0.57 -0.33,-0.14c0.89,1 1.95,1.9 2.91,2.83l28.22,27.38l6.86,6.65c0.88,0.86 2.23,-0.49 1.34,-1.34l-22.44,-21.83l-13,-12.6c-1,-1 -2.12,-2.6 -3.52,-2.91c-1.85,-0.41 -4.26,0 -6.14,0l-522.71,0c-8.61,0 -17.24,-0.09 -25.85,0l-1.11,0a1,1 0 0 0 -0.95,0.95l0,37a1,1 0 0 0 0.95,1l570,0c7.7,0 15.41,0.1 23.11,0l1,0a1,1 0 0 0 -0.01,-1.94z"/>
  <ellipse id="svg_6" ry="18.48" rx="102.83" fill="#18c4ff" cy="600.64" cx="564.05"/>
  <path id="svg_7" fill="#18c4ff" d="m665,600.64c0,0.67 0.16,-0.24 0,0.29a2.19,2.19 0 0 0 -0.1,0.34c-0.1,0.45 0.22,-0.33 0,0.07c-0.14,0.23 -0.26,0.46 -0.41,0.69s0.15,-0.16 0,0s-0.22,0.26 -0.34,0.38a7.5,7.5 0 0 1 -0.71,0.67s-0.48,0.4 -0.26,0.23s-0.28,0.2 -0.37,0.26a21.56,21.56 0 0 1 -2.26,1.37a61.92,61.92 0 0 1 -13.69,4.7c-15.65,3.87 -31.91,5.43 -48,6.47a547.58,547.58 0 0 1 -62.37,0.41c-16.92,-0.85 -34,-2.31 -50.57,-5.85a87.56,87.56 0 0 1 -15.92,-4.57l-1.11,-0.51c-0.48,-0.22 -0.95,-0.45 -1.41,-0.7a23.06,23.06 0 0 1 -2.18,-1.33l-0.3,-0.22c0.22,0.17 -0.22,-0.18 -0.27,-0.23a10,10 0 0 1 -0.75,-0.71l-0.3,-0.34c-0.17,-0.19 0.22,0.35 0,0s-0.31,-0.51 -0.45,-0.78s0.11,0.47 0,0l-0.1,-0.34c-0.07,-0.2 0,-0.54 0,0.06a1.7,1.7 0 0 0 0,-0.39c0,-0.07 0.05,-0.55 0,-0.14s0,-0.07 0,-0.14l0.1,-0.35c0.08,-0.34 -0.22,0.37 0,0s0.27,-0.46 0.41,-0.69c0.26,-0.41 -0.18,0.19 0,0s0.25,-0.29 0.38,-0.42s0.47,-0.45 0.72,-0.67s0.52,-0.41 0.13,-0.12l0.51,-0.36c3.6,-2.51 7.55,-3.72 11.81,-4.94c14.56,-4.2 29.91,-5.85 45,-7.05a535.11,535.11 0 0 1 61.91,-1.24c17.74,0.63 35.59,1.94 53.07,5.16a122.25,122.25 0 0 1 17.75,4.35a36.43,36.43 0 0 1 5.67,2.41a22.22,22.22 0 0 1 2.23,1.37c0.11,0.07 0.55,0.42 0.16,0.11l0.4,0.33a10,10 0 0 1 0.74,0.71l0.3,0.34s-0.19,-0.32 0,0s0.27,0.46 0.4,0.69s-0.1,-0.41 0,0c0,0.11 0.07,0.24 0.11,0.35c0.19,0.55 0,-0.32 0,0.32c0,2.45 3.85,2.46 3.81,0c0,-3.31 -2.93,-5.62 -5.55,-7.13c-4.34,-2.52 -9.33,-4 -14.15,-5.23c-16,-4.15 -32.74,-5.77 -49.2,-6.87a541.59,541.59 0 0 0 -64.59,-0.42c-17.31,0.9 -34.81,2.43 -51.76,6.2a80.81,80.81 0 0 0 -16.1,5c-3,1.35 -6.52,3.28 -7.75,6.53c-1.11,2.92 0.6,5.66 2.85,7.44c3.54,2.8 8,4.35 12.31,5.65a148.68,148.68 0 0 0 19.79,4.37c8.73,1.42 17.53,2.4 26.34,3.14a535.44,535.44 0 0 0 64.09,1.31c18.2,-0.68 36.52,-2.09 54.42,-5.51a109.91,109.91 0 0 0 17.78,-4.65c3.47,-1.3 7.51,-2.9 9.92,-5.86a6.4,6.4 0 0 0 1.6,-4c0.08,-2.41 -3.74,-2.41 -3.74,0.04z"/>
  <ellipse id="svg_8" ry="4.26" rx="33.59" cy="598.86" cx="564.05"/>
  <path id="svg_9" d="m595.73,598.86a1.21,1.21 0 0 1 0.34,-0.85c-0.22,0.31 0.34,-0.12 -0.06,0.06c-0.19,0.08 -0.37,0.2 -0.55,0.29c-0.44,0.21 0.39,-0.14 -0.1,0l-0.47,0.17a30.78,30.78 0 0 1 -4.73,1.06a126.56,126.56 0 0 1 -15.31,1.41c-11.74,0.51 -23.79,0.52 -35.45,-1.14a43,43 0 0 1 -5.27,-1a11.66,11.66 0 0 1 -1.67,-0.55c0.46,0.2 -0.17,-0.11 -0.27,-0.15s-0.19,-0.16 -0.19,-0.16s0.33,0.35 0.07,0a1.33,1.33 0 0 1 0,1.71c0.21,-0.29 -0.33,0.11 0.07,-0.06c0.23,-0.1 0.44,-0.25 0.68,-0.35c-0.44,0.19 0.32,-0.1 0.44,-0.14c0.3,-0.1 0.6,-0.19 0.91,-0.27c0.82,-0.23 1.65,-0.4 2.48,-0.56a106.75,106.75 0 0 1 14,-1.48c6.54,-0.36 13.09,-0.43 19.64,-0.28a157.28,157.28 0 0 1 18.4,1.3a40.47,40.47 0 0 1 5.66,1.12c0.34,0.1 0.67,0.22 1,0.33l0.19,0.08l0.26,0.13a1.32,1.32 0 0 0 0.2,0.12c0.39,0.17 -0.06,-0.14 0,0s-0.12,-0.14 -0.14,-0.2s-0.13,-0.46 -0.14,-0.6c0.14,2.44 3.95,2.46 3.82,0c-0.18,-3.1 -4.7,-3.75 -7,-4.2a119.53,119.53 0 0 0 -16.38,-1.65c-7.33,-0.36 -14.68,-0.38 -22,-0.09a138,138 0 0 0 -17.22,1.54a29.35,29.35 0 0 0 -5,1.17a5.18,5.18 0 0 0 -3,2c-1.77,3.24 3.14,4.63 5.28,5.12a94.1,94.1 0 0 0 15.24,1.83c7.26,0.45 14.55,0.53 21.83,0.33a148,148 0 0 0 19.94,-1.63c2.53,-0.42 8.18,-1 8.38,-4.44c0.07,-2.42 -3.74,-2.41 -3.88,0.03z"/>
  <ellipse id="svg_10" ry="18.48" rx="102.83" fill="#18c4ff" cy="600.64" cx="799.92"/>
  <path id="svg_11" fill="#18c4ff" d="m900.84,600.64c0,0.67 0.15,-0.24 0,0.29c0,0.11 -0.07,0.23 -0.1,0.34c-0.09,0.45 0.22,-0.33 0,0.07l-0.41,0.69c-0.25,0.38 0.14,-0.16 0,0l-0.34,0.38c-0.23,0.24 -0.47,0.46 -0.71,0.67c-0.05,0 -0.49,0.4 -0.27,0.23s-0.27,0.2 -0.36,0.26a21.71,21.71 0 0 1 -2.35,1.43a61.57,61.57 0 0 1 -13.69,4.7c-15.65,3.87 -31.9,5.43 -48,6.47a547.74,547.74 0 0 1 -62.38,0.41c-16.92,-0.85 -34,-2.31 -50.56,-5.85a87.66,87.66 0 0 1 -15.82,-4.6l-1.11,-0.51c-0.47,-0.22 -0.94,-0.45 -1.41,-0.7a21.71,21.71 0 0 1 -2.17,-1.33c-0.06,0 -0.52,-0.39 -0.31,-0.22s-0.22,-0.18 -0.26,-0.23a8.39,8.39 0 0 1 -0.75,-0.71c-0.11,-0.11 -0.2,-0.22 -0.3,-0.34s0.21,0.35 0,0a8.85,8.85 0 0 1 -0.46,-0.78c-0.13,-0.25 0.12,0.47 0,0a2.19,2.19 0 0 0 -0.1,-0.34c-0.07,-0.2 0,-0.54 0,0.06a2.54,2.54 0 0 0 0,-0.39c0,-0.07 0,-0.55 0,-0.14s0,-0.07 0,-0.14s0.08,-0.24 0.11,-0.35c0.08,-0.34 -0.22,0.37 0,0s0.27,-0.46 0.42,-0.69c0.25,-0.41 -0.18,0.19 0,0a5,5 0 0 1 0.38,-0.42c0.22,-0.24 0.47,-0.45 0.71,-0.67s0.53,-0.41 0.13,-0.12l0.51,-0.36c3.6,-2.51 7.56,-3.72 11.82,-4.94c14.55,-4.2 29.9,-5.85 45,-7.05a535.11,535.11 0 0 1 61.94,-1.34c17.74,0.63 35.6,1.94 53.08,5.16a122.44,122.44 0 0 1 17.7,4.41a35.63,35.63 0 0 1 5.67,2.41a22.22,22.22 0 0 1 2.23,1.37c0.11,0.07 0.55,0.42 0.16,0.11l0.41,0.33c0.25,0.23 0.5,0.46 0.74,0.71l0.29,0.34s-0.19,-0.32 0,0l0.4,0.69c0.2,0.35 -0.11,-0.41 0,0a2.3,2.3 0 0 0 0.1,0.35c0.19,0.55 0,-0.32 0,0.32c0,2.45 3.84,2.46 3.81,0c0,-3.31 -2.94,-5.62 -5.56,-7.13c-4.34,-2.52 -9.32,-4 -14.14,-5.23c-16,-4.15 -32.75,-5.77 -49.2,-6.87a541.6,541.6 0 0 0 -64.59,-0.42c-17.31,0.9 -34.81,2.43 -51.76,6.2a81.1,81.1 0 0 0 -16.11,5c-3,1.35 -6.52,3.28 -7.75,6.53c-1.1,2.92 0.61,5.66 2.86,7.44c3.54,2.8 8,4.35 12.3,5.65a148.68,148.68 0 0 0 19.79,4.37c8.73,1.42 17.53,2.4 26.34,3.14a535.6,535.6 0 0 0 64.1,1.31c18.19,-0.68 36.51,-2.09 54.42,-5.51a110.18,110.18 0 0 0 17.78,-4.65c3.46,-1.3 7.5,-2.9 9.92,-5.86a6.4,6.4 0 0 0 1.6,-4c0.09,-2.4 -3.72,-2.4 -3.75,0.05z"/>
  <ellipse id="svg_12" ry="4.26" rx="33.59" cy="598.86" cx="799.92"/>
  <path id="svg_13" d="m831.6,598.86a1.16,1.16 0 0 1 0.33,-0.85c-0.21,0.31 0.35,-0.12 -0.06,0.06c-0.19,0.08 -0.36,0.2 -0.55,0.29c-0.43,0.21 0.39,-0.14 -0.09,0l-0.48,0.17a30.52,30.52 0 0 1 -4.73,1.06a126.56,126.56 0 0 1 -15.31,1.41c-11.74,0.51 -23.79,0.52 -35.44,-1.14a43.15,43.15 0 0 1 -5.28,-1a12.55,12.55 0 0 1 -1.67,-0.55c0.47,0.2 -0.17,-0.11 -0.26,-0.15a1.82,1.82 0 0 1 -0.23,-0.15c-0.11,-0.07 0.32,0.35 0.07,0a1.33,1.33 0 0 1 0,1.71c0.2,-0.29 -0.34,0.11 0.06,-0.06c0.23,-0.1 0.45,-0.25 0.68,-0.35c-0.44,0.19 0.32,-0.1 0.44,-0.14c0.3,-0.1 0.61,-0.19 0.91,-0.27c0.82,-0.23 1.65,-0.4 2.49,-0.56a106.6,106.6 0 0 1 14,-1.48c6.54,-0.36 13.1,-0.43 19.64,-0.28a157.45,157.45 0 0 1 18.41,1.3a40.33,40.33 0 0 1 5.65,1.12c0.34,0.1 0.67,0.22 1,0.33c0,0 0.47,0.21 0.19,0.08s0.21,0.11 0.25,0.13a1.32,1.32 0 0 0 0.2,0.12c0.4,0.17 -0.06,-0.14 0,0s-0.13,-0.14 -0.15,-0.2s-0.12,-0.46 -0.13,-0.6c0.14,2.44 3.95,2.46 3.81,0c-0.18,-3.1 -4.69,-3.75 -7,-4.2a119.53,119.53 0 0 0 -16.35,-1.66c-7.33,-0.36 -14.68,-0.38 -22,-0.09a137.71,137.71 0 0 0 -17.21,1.54a28.92,28.92 0 0 0 -5,1.17a5.21,5.21 0 0 0 -3,2c-1.76,3.24 3.15,4.63 5.29,5.12a94,94 0 0 0 15.23,1.83c7.27,0.45 14.56,0.53 21.83,0.33a148,148 0 0 0 19.86,-1.6c2.53,-0.42 8.17,-1 8.37,-4.44c0.18,-2.45 -3.63,-2.44 -3.77,0z"/>
  <path id="svg_14" d="m359,536c6,15.39 25.39,21.32 41.78,19.22s31.45,-10 47.5,-13.93c10,-2.47 21.88,-2.9 29.24,4.32c1.09,1.07 2.14,2.35 3.63,2.73c1.73,0.44 3.48,-0.45 5.2,-1c6.84,-2 14.25,2.53 17.86,8.68s4.3,13.54 4.92,20.65c0.49,5.71 1,11.63 -1,17s-7,10.12 -12.72,9.71c-3.41,13.45 -14.51,23.5 -25.93,31.38a185.46,185.46 0 0 1 -63.38,27.94c-13.51,3.12 -28.77,4.41 -40.25,-3.36c-10.51,-7.13 -15.2,-20 -19.26,-32.05"/>
  <path id="svg_15" d="m358.39,536.22c4.42,11.21 15.58,17.48 27,19.5c14.48,2.57 28.58,-1.93 42.14,-6.66c7.58,-2.64 15.19,-5.47 23.07,-7.12c6.48,-1.35 13.59,-1.84 19.89,0.55a18.69,18.69 0 0 1 4.27,2.29c1.4,1 2.48,2.34 3.8,3.43a5.64,5.64 0 0 0 4.67,1.34c1.88,-0.3 3.57,-1.24 5.48,-1.41c7.08,-0.66 13.09,5 15.79,11a40.49,40.49 0 0 1 2.86,11.37c0.5,3.94 0.87,7.93 1,11.9c0.27,7.12 -1.12,15.52 -8.26,19a9.4,9.4 0 0 1 -4.64,0.89a1.24,1.24 0 0 0 -1.17,0.89c-3,11.6 -11.73,20.5 -21.06,27.5a174.46,174.46 0 0 1 -33.52,19.49a177.28,177.28 0 0 1 -37.09,12.05c-11.5,2.33 -24.64,3.18 -35,-3.28c-11.06,-6.87 -15.73,-20.16 -19.69,-31.88c-0.54,-1.6 -3.09,-0.91 -2.54,0.7c3.7,11 7.77,22.84 16.87,30.59c9.74,8.3 22.85,9.2 35,7.5c13.23,-1.84 26.3,-6.06 38.6,-11.19a183.79,183.79 0 0 0 35.6,-19.67c11,-7.78 21.69,-17.74 25.17,-31.23l-1.16,0.88c6.9,0.36 12.37,-5.46 14.23,-11.67a35,35 0 0 0 1,-12.19c-0.24,-4 -0.6,-8.1 -1.19,-12.11c-1.09,-7.33 -3.59,-14.69 -9.7,-19.33a17.21,17.21 0 0 0 -9.11,-3.59a13.59,13.59 0 0 0 -5,0.64c-2.06,0.66 -3.91,1.49 -5.76,-0.11c-1.3,-1.13 -2.42,-2.4 -3.83,-3.43a20.62,20.62 0 0 0 -4.3,-2.35a28.35,28.35 0 0 0 -9.68,-1.95c-7.39,-0.3 -14.65,1.62 -21.64,3.84c-15,4.79 -30.08,12.32 -46.17,12.36c-12,0 -25.63,-4.13 -32.42,-14.75a25.92,25.92 0 0 1 -2.16,-4.19c-0.32,-0.79 -1.62,-0.45 -1.3,0.36l-0.05,0.04z"/>
  <path id="svg_16" d="m643.41,176.11a6,6 0 0 1 6.17,-3.8c3.27,0.31 4.86,3.39 5.42,6.3a25.73,25.73 0 0 1 -0.56,10.9a24.72,24.72 0 0 1 -1.83,5.2a3.9,3.9 0 0 1 -1.28,1.64a0.86,0.86 0 0 1 -0.88,0.13c-0.23,-0.1 -0.6,-0.49 -0.4,-0.69l-1.89,-0.78c-1.21,12.9 -5.42,27.24 -18,33.36c-1.49,0.72 -0.18,3 1.3,2.23c13.12,-6.75 17.67,-21.92 18.89,-35.59a1.11,1.11 0 0 0 -1.88,-0.78a2.5,2.5 0 0 0 0.17,3.63a3,3 0 0 0 4,0.2c1.42,-1 2.09,-2.79 2.69,-4.37a30.49,30.49 0 0 0 1.63,-6.24c0.58,-3.84 0.75,-8.21 -0.7,-11.89c-1.16,-3 -3.67,-5.37 -7,-5.25a7.58,7.58 0 0 0 -7.15,5.45a0.66,0.66 0 0 0 1.27,0.35l0.03,0z"/>
  <path id="svg_17" d="m633.59,168.44c0.07,-0.13 0.15,-0.25 0.23,-0.37l0.13,-0.18c0,-0.06 0,0 -0.06,0.07a1.08,1.08 0 0 0 0.18,-0.24a3.38,3.38 0 0 0 0.26,-0.62a1.72,1.72 0 0 0 0.07,-0.21l0,-0.07c0,-0.11 0,-0.09 0,0.05c0,-0.07 0.2,-0.31 0.24,-0.38s-0.14,0.17 0,0l0.14,-0.17a6.86,6.86 0 0 1 0.68,-0.64c0.07,-0.06 -0.19,0.13 0,0l0.19,-0.13l0.42,-0.25c0.08,0 0.32,-0.21 0.41,-0.19l-0.13,0l0.14,-0.06a0.9,0.9 0 0 0 0.21,-0.08l0.43,-0.13l0.22,-0.05a3.38,3.38 0 0 1 0.45,0l0.27,0l-0.15,0l0.14,0a1.29,1.29 0 1 0 0.34,-2.54a7.41,7.41 0 0 0 -4.47,1.76a7.27,7.27 0 0 0 -1.37,1.8a2.63,2.63 0 0 0 -0.46,1.35a3.64,3.64 0 0 0 0.34,1.21a0.66,0.66 0 0 0 1.13,0l0.02,0.07z"/>
  <path id="svg_18" d="m619.4,166.61c0.36,-0.25 0.74,-0.47 1.08,-0.73a9.18,9.18 0 0 0 0.95,-1a10.35,10.35 0 0 1 2,-1.58a9,9 0 0 1 2.11,-1a4.92,4.92 0 0 1 2.42,-0.22a1.29,1.29 0 1 0 0,-2.58a11,11 0 0 0 -5.59,1.89a16.29,16.29 0 0 0 -2.27,2a7.89,7.89 0 0 0 -1,1.12a6.13,6.13 0 0 0 -0.59,1.45a0.66,0.66 0 0 0 1,0.74l-0.11,-0.09z"/>
  <path id="svg_19" d="m589,210.57c-1.23,-8.55 -2.71,-17.86 -0.18,-26.32a23.42,23.42 0 0 1 5.35,-9.58c1.27,-1.34 2.93,-2.93 4.85,-3.18a1.93,1.93 0 0 1 2.09,0.88a1.19,1.19 0 0 1 -0.17,1.7l1.83,1.07a77.83,77.83 0 0 1 6.73,-20a79.35,79.35 0 0 1 5.41,-9.26a49.27,49.27 0 0 1 6.56,-8.24c1.41,-1.32 3.32,-1.86 4.41,0.13s0.12,4.31 -0.55,6.23c-0.56,1.56 2,2.26 2.48,0.68c1.15,-3.42 2,-8.4 -2.08,-10.3c-3.81,-1.77 -6.82,2.51 -8.86,5a80.06,80.06 0 0 0 -12.32,21.4a79,79 0 0 0 -3.89,13.76a1.1,1.1 0 0 0 1.83,1.06c2.24,-1.8 0.7,-5.46 -1.76,-6.16c-3.58,-1 -7,2.35 -9.08,4.86c-4.84,5.94 -6.49,13.84 -6.24,21.35a89.48,89.48 0 0 0 2.32,15.25c0.18,0.84 1.38,0.47 1.27,-0.35l0,0.02z"/>
  <path id="svg_20" d="m161,793.54c-13,-35.86 -16.93,-80.38 -5.35,-116.71c1.67,-5.23 3.61,-10.46 3.92,-16c0.36,-6.16 -0.92,-13.5 3.77,-17.52c3.75,-3.21 9.33,-2.4 14.23,-1.8c15.42,1.88 31,-0.18 46.53,-0.81c26.56,-1.09 53.1,2 79.68,2.48s53.87,-1.89 77.94,-13.16a25.1,25.1 0 0 1 6,12c0.63,3.22 0.65,6.65 2.18,9.55c1.22,2.31 3.27,4 5,6c4.13,4.76 6.25,10.89 8.23,16.88c12.79,38.76 24.45,79 32.51,119"/>
  <path id="svg_21" d="m161.77,793.33a206,206 0 0 1 -12,-68.89a165.86,165.86 0 0 1 3.51,-34.56c1.22,-5.67 2.89,-11.17 4.66,-16.69a59.26,59.26 0 0 0 2.32,-9a51,51 0 0 0 0.47,-7.81c0,-4.72 0,-10.79 4.86,-13.24c2.34,-1.17 5.1,-1.15 7.65,-1c2.9,0.21 5.77,0.68 8.66,0.9c13.34,1 26.67,-0.46 40,-1.09c26.86,-1.27 53.65,1.87 80.49,2.46c24.18,0.53 49.05,-1.14 71.85,-9.83c2.75,-1 5.47,-2.2 8.14,-3.45l-1.6,-0.2a25.83,25.83 0 0 1 6.06,14a21.7,21.7 0 0 0 1.9,7.31a28.21,28.21 0 0 0 4.57,5.59c3.49,3.81 5.58,8.57 7.28,13.39c1.89,5.36 3.59,10.78 5.33,16.19c7.21,22.41 13.83,45 19.7,67.8c3.3,12.78 6.4,25.63 9,38.57c0.26,1.27 2.21,0.73 1.95,-0.54q-7,-35 -16.81,-69.27q-4.91,-17.14 -10.31,-34.16c-1.78,-5.62 -3.58,-11.24 -5.44,-16.83c-1.6,-4.79 -3.36,-9.67 -6.27,-13.85c-1.64,-2.35 -3.78,-4.22 -5.54,-6.47c-1.9,-2.4 -2.36,-5.25 -2.78,-8.2a28.33,28.33 0 0 0 -6.78,-15.36a1.34,1.34 0 0 0 -1.6,-0.2c-22.68,10.56 -48,13.13 -72.76,13.05c-27,-0.09 -53.88,-3.34 -80.88,-2.54c-13.53,0.4 -27,2.11 -40.58,1.68q-5,-0.17 -9.91,-0.77a34.23,34.23 0 0 0 -8,-0.35a10.8,10.8 0 0 0 -9.8,8.52c-1.2,5.12 -0.17,10.47 -1.06,15.64c-1,6 -3.4,11.64 -5,17.47a154.93,154.93 0 0 0 -5.05,34.15a202.48,202.48 0 0 0 9.58,70.1c0.84,2.65 1.75,5.28 2.71,7.89c0.33,0.93 1.82,0.54 1.49,-0.41l-0.01,0z"/>
  <path id="svg_22" fill="#fff" d="m895.7,403.69a34.81,34.81 0 0 0 -10,8.49a0.72,0.72 0 0 0 1,1a36.74,36.74 0 0 1 9.61,-8.35a0.67,0.67 0 0 0 -0.68,-1.15l0.07,0.01z"/>
  <path id="svg_23" fill="#fff" d="m890.64,398.27a21,21 0 0 0 -10.64,7.84c-0.54,0.76 0.71,1.48 1.25,0.73a20.35,20.35 0 0 1 9.78,-7.29c0.8,-0.27 0.47,-1.54 -0.35,-1.28l-0.04,0z"/>
  <path id="svg_24" d="m226.57,374.46c5,-19.07 11.82,-37.64 15.86,-57a89.93,89.93 0 0 0 2.07,-14.46c0.06,-1.51 -2.19,-1.46 -2.33,0c-0.87,9.18 -3.06,18.21 -5.33,27.11c-2.56,10 -5.46,20 -8.19,30c-1.26,4.64 -2.52,9.28 -3.54,14a0.76,0.76 0 0 0 1.46,0.4l0,-0.05z"/>
  <path id="svg_25" d="m325.49,233.68c2,4.81 2.29,10.06 2.17,15.22c-0.12,5.31 -0.54,10.62 -0.67,15.94a82.75,82.75 0 0 0 0.88,16.72a47.67,47.67 0 0 0 5,14.16c0.61,1.14 1.76,2.45 1.56,3.81a4.06,4.06 0 0 1 -2.05,2.76c-1.78,1.16 -3.43,2.27 -4.28,4.3a15.9,15.9 0 0 0 -0.79,5.74c-0.06,2 -0.09,4.09 -0.16,6.14c-0.25,8.12 -0.61,17 -4.69,24.29a16.36,16.36 0 0 1 -10,8.15c-5.17,1.35 -10.75,0.4 -15.88,-0.68c-1.42,-0.29 -2,1.89 -0.6,2.19c8.76,1.83 18.84,2.85 25.49,-4.41c5.87,-6.4 7.19,-15.71 7.72,-24c0.26,-4.18 0.28,-8.37 0.42,-12.55c0.08,-2.29 0.23,-4.45 2.14,-6s3.84,-2.2 4.64,-4.54c0.94,-2.75 -0.81,-4.77 -2,-7.1a45.28,45.28 0 0 1 -3.11,-7.52a60.29,60.29 0 0 1 -2.28,-16.78c-0.11,-6.39 0.32,-12.76 0.38,-19.14c0.06,-5.84 -0.31,-11.81 -2.72,-17.21c-0.3,-0.67 -1.48,-0.18 -1.2,0.51l0.03,0z"/>
  <path id="svg_26" d="m321.66,279.81a1.2,1.2 0 0 0 -0.91,1.74a0.94,0.94 0 0 0 1.25,0.45c0.74,-0.38 0.86,-2 -0.06,-2.22"/>
  <path id="svg_27" d="m321.84,279.16a1.53,1.53 0 0 0 -1.2,0.13a2.13,2.13 0 0 0 -0.77,0.78a1.88,1.88 0 0 0 -0.2,0.56a2.38,2.38 0 0 0 0,0.59a1.71,1.71 0 0 0 0.11,0.59a2.06,2.06 0 0 0 0.82,1.06l0.18,0.12a1.94,1.94 0 0 0 0.91,0.22a2,2 0 0 0 1.35,-0.58a2.41,2.41 0 0 0 0.57,-1a1.16,1.16 0 0 0 0.07,-0.31a3,3 0 0 0 0.05,-0.6a2.28,2.28 0 0 0 -0.34,-1.17a2.15,2.15 0 0 0 -0.59,-0.61a1.41,1.41 0 0 0 -1.1,-0.15a1,1 0 0 0 -0.45,1.71a0.52,0.52 0 0 1 0.1,0.11l-0.17,-0.23a1.32,1.32 0 0 0 0.44,0.44l0.08,0.06l-0.22,-0.17a0.67,0.67 0 0 1 0.14,0.15l-0.17,-0.23a1.59,1.59 0 0 1 0.13,0.22l-0.11,-0.26a1.57,1.57 0 0 1 0.08,0.31l0,-0.29a1.62,1.62 0 0 1 0,0.44l0,-0.3a1.44,1.44 0 0 1 -0.11,0.42l0.11,-0.26a1.64,1.64 0 0 1 -0.16,0.29l0.17,-0.23a1,1 0 0 1 -0.17,0.18l0.22,-0.17l-0.18,0.11l0.26,-0.12l-0.21,0.07l0.29,0l-0.24,0l0.29,0l-0.26,-0.07l0.26,0.1a0.92,0.92 0 0 1 -0.24,-0.13l0.21,0.16a1.26,1.26 0 0 1 -0.2,-0.2l0.17,0.22a1.58,1.58 0 0 1 -0.15,-0.24l0.11,0.24a1.31,1.31 0 0 1 -0.09,-0.28l0,0.26a1.37,1.37 0 0 1 0,-0.35l0,0.26c0,-0.15 0.05,-0.29 0.07,-0.43l0,0.25a1.58,1.58 0 0 1 0.09,-0.31l-0.09,0.22a1.35,1.35 0 0 1 0.15,-0.26l-0.13,0.18a1.73,1.73 0 0 1 0.26,-0.28l-0.15,0.13a0.72,0.72 0 0 1 0.19,-0.11l-0.17,0.07l0.07,0a0.67,0.67 0 0 0 0,-1.3l-0.08,-0.01z"/>
  <path id="svg_28" d="m316,283.68c2.34,-0.29 4.77,-0.6 7,0.17c1,0.35 1.51,-1.34 0.45,-1.64c-2.53,-0.71 -5.14,-0.29 -7.68,0.16c-0.72,0.13 -0.57,1.4 0.18,1.31l0.05,0z"/>
  <g id="svg_29" fill="#18c4ff">
   <path id="svg_30" d="m308.2,285.25l0.18,0.07a1.36,1.36 0 0 0 0.25,0.11l0.1,0a0.68,0.68 0 0 0 0.4,0l0.18,-0.07a0.87,0.87 0 0 0 0.27,-0.27a0.53,0.53 0 0 0 0.08,-0.27a0.51,0.51 0 0 0 0,-0.3a0.55,0.55 0 0 0 -0.13,-0.25a0.66,0.66 0 0 0 -0.21,-0.2a0.83,0.83 0 0 0 -0.38,-0.1l-0.12,0l-0.19,0l-0.08,0l-0.19,0l-0.15,0.06l-0.13,0.1l-0.1,0.13a0.57,0.57 0 0 0 -0.08,0.24a0.48,0.48 0 0 0 0,0.17a0.34,0.34 0 0 0 0.05,0.17a0.29,0.29 0 0 0 0.08,0.14a0.49,0.49 0 0 0 0.18,0.17l-0.01,0.1z"/>
   <path id="svg_31" d="m310.88,286.59l0.31,0.47a0.87,0.87 0 0 0 0.27,0.27l0.17,0.07a0.65,0.65 0 0 0 0.39,0a0.55,0.55 0 0 0 0.25,-0.13a0.48,0.48 0 0 0 0.19,-0.21a0.44,0.44 0 0 0 0.09,-0.27a0.57,0.57 0 0 0 0,-0.29a0.78,0.78 0 0 0 -0.19,-0.33l-0.4,-0.41a0.48,0.48 0 0 0 -0.22,-0.15a0.58,0.58 0 0 0 -0.26,-0.06l-0.19,0a0.57,0.57 0 0 0 -0.23,0.12a0.34,0.34 0 0 0 -0.12,0.12a0.55,0.55 0 0 0 -0.12,0.24l0,0.18a0.64,0.64 0 0 0 0.1,0.35l-0.04,0.03z"/>
   <path id="svg_32" d="m307.72,288a6,6 0 0 0 0.48,0.4l0.39,0.26a0.51,0.51 0 0 0 0.27,0.09a0.57,0.57 0 0 0 0.29,0a0.7,0.7 0 0 0 0.24,-0.13a0.64,0.64 0 0 0 0.19,-0.21a0.73,0.73 0 0 0 0.07,-0.56l-0.07,-0.17a0.81,0.81 0 0 0 -0.26,-0.26l-0.39,-0.24l-0.2,-0.11l-0.21,-0.1a0.41,0.41 0 0 0 -0.24,-0.08a0.5,0.5 0 0 0 -0.27,0l-0.16,0.07a0.49,0.49 0 0 0 -0.18,0.17a0.38,0.38 0 0 0 -0.09,0.15a0.54,0.54 0 0 0 -0.06,0.25a0.67,0.67 0 0 0 0.2,0.47z"/>
   <path id="svg_33" d="m304.41,287.2l0.2,0a0.65,0.65 0 0 0 0.39,0l0.18,-0.07a0.87,0.87 0 0 0 0.27,-0.27a0.66,0.66 0 0 0 0.09,-0.28a0.57,0.57 0 0 0 0,-0.29a0.53,0.53 0 0 0 -0.13,-0.26a0.55,0.55 0 0 0 -0.21,-0.19a0.71,0.71 0 0 0 -0.37,-0.1l-0.21,0a0.46,0.46 0 0 0 -0.28,0.06a0.61,0.61 0 0 0 -0.24,0.15l-0.11,0.15a0.46,0.46 0 0 0 -0.09,0.27a0.34,0.34 0 0 0 0,0.2a0.44,0.44 0 0 0 0.09,0.27l0.11,0.15a0.78,0.78 0 0 0 0.33,0.19l-0.02,0.02z"/>
   <path id="svg_34" d="m305.07,290.52l1.15,0.58a0.87,0.87 0 0 0 0.59,0.08a0.79,0.79 0 0 0 0.46,-0.36a0.74,0.74 0 0 0 0.07,-0.58l-0.07,-0.19a0.81,0.81 0 0 0 -0.28,-0.27l-1.18,-0.53a0.57,0.57 0 0 0 -0.28,-0.08a0.48,0.48 0 0 0 -0.29,0a0.78,0.78 0 0 0 -0.44,0.34a0.73,0.73 0 0 0 -0.07,0.56a0.69,0.69 0 0 0 0.34,0.44l0,0.01z"/>
   <path id="svg_35" d="m310.58,290.8l0.39,0.1a0.72,0.72 0 0 0 0.41,0l0.19,-0.08a0.78,0.78 0 0 0 0.27,-0.27a0.63,0.63 0 0 0 0.1,-0.29a0.55,0.55 0 0 0 0,-0.31a0.93,0.93 0 0 0 -0.35,-0.46a0.77,0.77 0 0 0 -0.39,-0.11l-0.41,0a0.67,0.67 0 0 0 -0.28,0.06a0.65,0.65 0 0 0 -0.23,0.15l-0.11,0.15a0.5,0.5 0 0 0 -0.08,0.26a0.31,0.31 0 0 0 0,0.19a0.5,0.5 0 0 0 0.08,0.27l0.11,0.14a0.8,0.8 0 0 0 0.32,0.19l-0.02,0.01z"/>
  </g>
  <path id="svg_36" d="m279.14,282a11.22,11.22 0 0 0 -6.05,-7.6a8.92,8.92 0 0 0 -9.21,1.26c-2.93,2.48 -3.32,6.62 -2.7,10.17c0.38,2.16 1.11,4.25 1.69,6.36a21.16,21.16 0 0 0 2,5.34c1.8,3 6.42,5.76 9.6,3c0.87,-0.76 -0.05,-2.47 -1.17,-2a4.23,4.23 0 0 1 -4.41,-0.35a8.92,8.92 0 0 1 -2.87,-4.53c-1.28,-3.61 -2.95,-7.73 -2.63,-11.61a6.35,6.35 0 0 1 6.83,-6.14c3.65,0.2 6.47,3.23 7.54,6.53a0.73,0.73 0 0 0 1.41,-0.39l-0.03,-0.04z"/>
  <path id="svg_37" d="m268.34,282.88a5.24,5.24 0 0 1 1.46,1.24a5.52,5.52 0 0 1 0.93,1.33c0.19,0.38 -0.07,-0.24 0.06,0.16c0,0.15 0.1,0.3 0.16,0.45s0.11,0.33 0.15,0.49s0.08,0.51 0,0.15a7.93,7.93 0 0 0 0.2,1.28c0,0.15 0.05,0.17 0,0.08s0,-0.07 0,0.09c0,-0.11 0,-0.09 0,0.08c0.05,-0.11 0,-0.1 0,0l0.44,-0.44l0.1,0l0.64,0l0.12,0l0.43,0.44l-0.28,1.16l-0.6,0.16a0.66,0.66 0 0 1 -0.57,-0.58a2.45,2.45 0 0 1 0,0.27c0,-0.12 0,0.23 0,0.27s-0.08,0.4 -0.06,0.27c-0.07,0.12 -0.08,0.14 0,0.07c-0.1,0.1 -0.11,0.11 0,0l0.59,-0.16l-0.09,0l0.82,0.34l-0.07,-0.06l0.3,0.52c0,0.31 0,0.39 0,0.23s0,-0.09 0,0s0.19,-0.27 0.12,-0.2a1.2,1.2 0 0 0 0,-1.66a1.18,1.18 0 0 0 -1.65,0a2.33,2.33 0 0 0 -0.61,2.57c0.66,1.13 2.07,0.56 2.59,-0.36a3.92,3.92 0 0 0 0.46,-2.23a1.7,1.7 0 0 0 -2.08,-1.59a1.51,1.51 0 0 0 -0.64,2.47c0.87,0.89 2.16,0.19 2.63,-0.73c0.1,-0.21 0.16,-0.45 0.27,-0.66c0,0.05 -0.08,0.21 0,0s0.09,-0.21 0.13,-0.31a2.91,2.91 0 0 0 0.09,-1.75a5,5 0 0 0 -1.18,-2.34a6.13,6.13 0 0 0 -4.43,-2.41c-0.67,0 -1,1 -0.36,1.35l-0.07,0.01z"/>
  <path id="svg_38" d="m289.61,374.44c0.87,-3.78 2.1,-7.5 3.23,-11.2c0.65,-2.1 1.28,-4.2 1.91,-6.31c0.25,-0.86 0.51,-1.72 0.74,-2.59c0.1,-0.37 0.19,-0.74 0.28,-1.11s0.31,-0.93 0.1,-0.85a1.19,1.19 0 0 0 -0.63,-2.3c-1.83,0.5 -2,3.34 -2.4,4.91c-0.56,2.28 -1.17,4.55 -1.75,6.83a108.05,108.05 0 0 0 -2.81,12.44c-0.1,0.76 1.16,0.91 1.33,0.18z"/>
  <path id="svg_39" d="m312.72,272.91a6.09,6.09 0 0 0 3,0.39c0.32,0 0.63,0.08 0.95,0.08s0.71,-0.07 1.05,-0.09c0.7,0 1.41,0 2.11,-0.05a11.65,11.65 0 0 1 2.21,0.1l-1.29,-0.17c1,0.15 2.09,0.29 3.14,0.39a4.65,4.65 0 0 0 4.12,-2.36a4.84,4.84 0 0 0 0.65,-2.41l-0.17,-1.26a3.62,3.62 0 0 0 -0.85,-1.62a2.36,2.36 0 0 0 -0.86,-0.86a3.52,3.52 0 0 0 -1.62,-0.85a9.8,9.8 0 0 0 -4.05,-0.61a23.42,23.42 0 0 0 -2.64,0.29a9.24,9.24 0 0 0 -2.4,0.83a7.62,7.62 0 0 0 -3,2.21a16.4,16.4 0 0 0 -1.2,1.67a3.77,3.77 0 0 0 -0.59,1.81a2.88,2.88 0 0 0 1.39,2.51l0.05,0z"/>
  <path id="svg_40" d="m300.13,258.44a17.34,17.34 0 0 1 -4.68,14.25c-1.31,1.35 -2.88,2.53 -3.65,4.25a9.68,9.68 0 0 0 -0.62,3.82a53.59,53.59 0 0 0 2.8,16.08c1.43,4.59 3.71,9.62 8.28,11.13s9.26,-1.1 13.59,-3.1s10.08,-3.23 13.38,0.21a14.38,14.38 0 0 0 0.88,5.61c2.29,7.19 6.28,13.76 8.5,21s2.32,15.78 -2.54,21.55a8.81,8.81 0 0 0 -2,3a8.48,8.48 0 0 0 -0.18,2.47a15,15 0 0 1 -16.49,14.8c-2.07,3.62 -6.93,4.34 -11.1,4.35s-8.75,-0.32 -12.56,-2.3s-6.85,-6 -6.55,-10.27a18,18 0 0 1 -8.47,-26.38a11.82,11.82 0 0 1 -1.5,-18.59c-2.56,-1.58 -3.49,-4.95 -3.2,-7.94s1.56,-5.79 2.47,-8.65c1.75,-5.53 2.17,-11.37 2.58,-17.15c0.19,-2.67 0.31,-5.62 -1.34,-7.74c-2.13,-2.74 -6.63,-3.27 -7.93,-6.48a5.71,5.71 0 0 1 1,-5.41c2.1,-2.8 5.69,-3.94 9.05,-4.92l17.24,-5a3.73,3.73 0 0 1 2.48,-0.14c0.78,0.34 1.2,1.52 0.54,2.05"/>
  <path id="svg_41" d="m299.49,258.44a16.92,16.92 0 0 1 -1.09,8.18a19.43,19.43 0 0 1 -5.06,6.82a9.5,9.5 0 0 0 -3.14,7.32a44.53,44.53 0 0 0 1,9.55c1.07,5.17 2.49,11.07 5.92,15.24a10.3,10.3 0 0 0 6.29,3.76a15.77,15.77 0 0 0 8.46,-1.49c4.68,-1.95 12,-6.53 16.57,-2l-0.32,-0.78c-0.2,2.93 0.77,5.77 1.78,8.47s2.13,5.22 3.29,7.78c2.24,5 4.56,10 5.38,15.48c0.69,4.65 0.33,9.72 -2.15,13.82c-1.24,2 -3.39,3.56 -3.74,6c-0.17,1.25 0,2.51 -0.2,3.77a14.45,14.45 0 0 1 -1.05,3.64a14,14 0 0 1 -14.09,8.12a1.23,1.23 0 0 0 -1.09,0.62c-1.39,2.29 -4,3.15 -6.54,3.5a34.94,34.94 0 0 1 -9.08,-0.08c-5.73,-0.76 -12.59,-4.29 -12.28,-11a1.25,1.25 0 0 0 -0.89,-1.18a16.8,16.8 0 0 1 -7.8,-24.62a1.18,1.18 0 0 0 -0.42,-1.58a10.83,10.83 0 0 1 -1.24,-16.71a1.15,1.15 0 0 0 -0.23,-1.78c-2.16,-1.42 -2.83,-4.16 -2.67,-6.61c0.2,-3.18 1.66,-6.15 2.56,-9.16a75.28,75.28 0 0 0 2.54,-18.52c0.09,-2.54 -0.21,-5.21 -1.94,-7.2c-1.45,-1.66 -3.56,-2.47 -5.37,-3.64c-2.21,-1.42 -3,-3.65 -1.59,-6s4.14,-3.55 6.64,-4.37c3.4,-1.13 6.88,-2 10.32,-3l5.74,-1.79l2.88,-0.83c0.29,-0.08 0.59,-0.18 0.89,-0.25c0.1,0 1.65,-0.1 1.47,0.09c-1,1.09 0.63,2.74 1.65,1.64a2.35,2.35 0 0 0 0.1,-3.12c-1,-1.36 -2.78,-1.13 -4.25,-0.72c-3.84,1.06 -7.66,2.25 -11.48,3.37a85.34,85.34 0 0 0 -10.26,3.3c-2.65,1.16 -5.16,3 -6.18,5.81a6.1,6.1 0 0 0 2.27,7.23c2,1.48 4.81,2.22 6.13,4.44c1.65,2.77 0.79,6.82 0.55,9.86a65,65 0 0 1 -1.79,11.77c-1,3.79 -3,7.45 -3.12,11.44a9.25,9.25 0 0 0 3.8,8.22l-0.23,-1.78a13.15,13.15 0 0 0 1.72,20.39l-0.42,-1.58a19.42,19.42 0 0 0 -1.81,16.94a19.71,19.71 0 0 0 11,11.19l-0.9,-1.17a11.83,11.83 0 0 0 3.86,9a18,18 0 0 0 10.09,4.47c5.9,0.84 15,1.29 18.57,-4.63l-1.09,0.63a16.25,16.25 0 0 0 17.46,-13.41a25.32,25.32 0 0 0 0.24,-3.69c0,-1.69 1.12,-2.61 2.1,-3.84c7.13,-8.86 3.64,-21 -0.48,-30.3c-1.27,-2.88 -2.65,-5.72 -3.85,-8.63s-2.48,-6.06 -2.53,-9.29c0,-1.25 -0.78,-1.84 -1.83,-2.48a8.48,8.48 0 0 0 -3.2,-1.11a15.59,15.59 0 0 0 -7,0.82c-5.07,1.68 -10.89,6.46 -16.43,3.9c-4.73,-2.18 -6.38,-8.24 -7.65,-12.82a51.9,51.9 0 0 1 -1.93,-10.77a15.51,15.51 0 0 1 0.21,-5.09c0.48,-1.73 1.87,-2.88 3.08,-4.11a18.36,18.36 0 0 0 5.22,-15.63c-0.1,-0.7 -1.33,-0.54 -1.25,0.17l-0.12,0.01z"/>
  <path id="svg_42" d="m291.44,269a37.76,37.76 0 0 0 19.07,-34.55c6.56,3.18 14.26,6.39 20.85,3.27a6.15,6.15 0 0 0 3.14,-2.84c1,-2.17 -0.13,-4.83 -2,-6.35s-4.22,-2.17 -6.53,-2.78c1.79,-0.38 3.64,0.11 5.47,0.11s3.94,-0.72 4.5,-2.46c0.78,-2.47 -2,-4.53 -4.33,-5.57c-9.72,-4.28 -20.23,-6.52 -30.79,-7.7c-12.13,-1.36 -24.81,-1.28 -36.05,3.49c-1.82,0.77 -3.6,1.66 -5.37,2.55s-3.55,1.79 -5.31,2.7c-11.09,5.73 -22.35,13.13 -27.27,24.62c-3.24,7.58 -3.33,16.19 -1.93,24.31s4.2,15.92 6.61,23.8q2.19,7.23 4,14.59c0.64,2.68 1,5.42 1.6,8.12c0.49,2.35 0.48,5.76 3,6.95c6,2.87 12.45,2 16.77,-3.27c3.61,-4.4 6,-10.74 7.33,-16.21c1.46,-5.78 1.67,-12.17 -1.47,-17.46"/>
  <path id="svg_43" d="m291.81,269.61a38.39,38.39 0 0 0 19.84,-35.2l-1.72,1c6.74,3.26 15.24,7 22.5,3c3.07,-1.66 4.45,-4.85 3,-8.11c-1.64,-3.58 -5.55,-4.83 -9.06,-5.76l0,2.28c2.31,-0.39 4.63,0.48 6.95,0a5,5 0 0 0 3.85,-3.15c1.25,-4.19 -3.83,-6.51 -6.86,-7.76a108.83,108.83 0 0 0 -29.41,-7c-9.69,-1.09 -19.68,-1.26 -29.21,1.14a65.13,65.13 0 0 0 -13.48,5.4c-4.17,2.1 -8.34,4.22 -12.32,6.67c-7.15,4.38 -14,9.85 -18.25,17.18c-4.79,8.19 -5.47,17.86 -4.14,27.08c1.49,10.37 5.41,20.2 8.25,30.23c1.47,5.17 2.75,10.35 3.72,15.64c0.36,1.93 0.63,3.93 1.09,5.85a6.24,6.24 0 0 0 2.62,4.06a15.2,15.2 0 0 0 11.6,1.35c4.07,-1.22 7,-4.29 9.16,-7.81a47.87,47.87 0 0 0 5.15,-12.44a30.46,30.46 0 0 0 1,-13.41a18.45,18.45 0 0 0 -2.33,-6.15a1.24,1.24 0 0 0 -2.14,1.25c4.19,7.51 1.89,16.75 -1.16,24.25c-1.49,3.66 -3.53,7.73 -6.76,10.18a12,12 0 0 1 -10.41,1.82c-1.6,-0.44 -3.36,-0.93 -4.05,-2.57a22.17,22.17 0 0 1 -1,-4.49c-0.92,-4.77 -1.87,-9.48 -3.12,-14.17c-2.46,-9.26 -5.87,-18.27 -8.07,-27.6c-2.05,-8.65 -2.84,-18 0.13,-26.5c2.6,-7.49 8.19,-13.47 14.49,-18.09c6.78,-5 14.47,-8.89 22.07,-12.42c8.18,-3.79 17.22,-5 26.16,-4.81a121,121 0 0 1 27.25,3.61a88.31,88.31 0 0 1 13.06,4.3c1.57,0.67 3.59,1.51 4.44,3.11c1,1.8 -1,2.87 -2.51,3c-2.16,0.25 -4.27,-0.41 -6.44,0c-1.19,0.2 -1.07,2 0,2.28c2.82,0.74 6.26,1.6 7.59,4.5c1.43,3.11 -1.34,5.08 -4,5.89c-6.15,1.88 -12.74,-1.18 -18.2,-3.81a1.15,1.15 0 0 0 -1.71,1a37.32,37.32 0 0 1 -18.31,33.91a0.75,0.75 0 0 0 0.75,1.29l-0.01,-0.02z"/>
  <circle id="svg_44" r="24.46" fill="#18c4ff" cy="279.8" cx="264.5"/>
  <path id="svg_45" d="m288,279.8a23.51,23.51 0 1 1 -18.95,-23.07a23.74,23.74 0 0 1 18.95,23.07a1,1 0 0 0 1.91,0a25.41,25.41 0 1 0 -20.36,24.91a25.7,25.7 0 0 0 20.36,-24.91a1,1 0 0 0 -1.91,0z"/>
  <path id="svg_46" fill="#18c4ff" d="m246.07,275.26c-8.08,-11.56 -15.35,-24.19 -17.39,-38.15c-0.49,-3.4 -0.66,-7 0.47,-10.2c2.22,-6.38 8.72,-10 14.72,-13.16a7.38,7.38 0 0 1 2.84,-1c2.79,-0.18 4.72,2.64 6,5.11c-2.55,0.7 -4.25,3.26 -4.69,5.87a18.89,18.89 0 0 0 0.8,7.84c3.35,12.9 8.93,25.4 17.6,35.52"/>
  <g id="svg_47" fill="#fff">
   <path id="svg_48" d="m316,308.87c-0.64,0.35 -0.54,1.14 -0.42,1.75a6.75,6.75 0 0 0 0.48,1.37a7.64,7.64 0 0 0 1.52,2.21a7.83,7.83 0 0 0 3.59,2.08a2.22,2.22 0 0 0 1.84,-0.06a1.09,1.09 0 0 0 0.5,-0.76a1,1 0 0 0 -0.29,-0.87a1.67,1.67 0 0 0 -1.08,-0.43l-0.17,0c0.16,0 0.18,0 0.05,0l-0.25,0a6.53,6.53 0 0 1 -1.14,-0.35c0.27,0.11 -0.08,0 -0.13,-0.06l-0.22,-0.12l-0.52,-0.31l-0.24,-0.17c-0.22,-0.16 0.07,0.07 -0.09,-0.07a5.82,5.82 0 0 1 -0.45,-0.4a5.51,5.51 0 0 1 -0.41,-0.43l-0.17,-0.2c-0.07,-0.09 -0.07,-0.09 0,0a0.71,0.71 0 0 0 -0.1,-0.14a7.13,7.13 0 0 1 -0.59,-1c-0.12,-0.25 0.06,0.19 0,-0.07s-0.08,-0.21 -0.11,-0.32s-0.12,-0.38 -0.18,-0.57a1.87,1.87 0 0 0 -0.28,-0.72a0.89,0.89 0 0 0 -1.1,-0.27l-0.04,-0.09z"/>
   <path id="svg_49" d="m270,262.46a18.33,18.33 0 0 1 11,8.85a17.69,17.69 0 0 1 2,7.42a18.17,18.17 0 0 1 -0.27,4.1c-0.25,1.31 -0.74,2.51 -1.09,3.78a0.94,0.94 0 0 0 1.71,0.72a16.69,16.69 0 0 0 1.5,-8.6a19,19 0 0 0 -14.49,-17.5a0.64,0.64 0 0 0 -0.33,1.23l-0.03,0z"/>
   <path id="svg_50" d="m280.38,292.06l0.56,-0.32a0.67,0.67 0 0 0 0.25,-0.25l0.07,-0.16a0.77,0.77 0 0 0 0,-0.37a0.47,0.47 0 0 0 -0.13,-0.24a0.55,0.55 0 0 0 -0.19,-0.18a0.61,0.61 0 0 0 -0.26,-0.08a0.54,0.54 0 0 0 -0.28,0a0.83,0.83 0 0 0 -0.3,0.18l-0.49,0.41a0.66,0.66 0 0 0 -0.18,0.45l0,0.17a0.53,0.53 0 0 0 0.11,0.21a0.34,0.34 0 0 0 0.12,0.12a0.53,0.53 0 0 0 0.21,0.11l0.17,0a0.66,0.66 0 0 0 0.32,-0.08l0.02,0.03z"/>
   <path id="svg_51" d="m245.2,216c-3.79,8.12 -2.33,17.24 0.82,25.3c1.68,4.29 3.74,8.42 5.82,12.52c2,3.87 3.88,7.81 6.73,11.12c0.74,0.87 2,-0.39 1.25,-1.24c-2.74,-3.2 -4.57,-7 -6.48,-10.76s-3.9,-7.67 -5.5,-11.66c-3.12,-7.75 -5,-16.65 -1.47,-24.6c0.35,-0.78 -0.8,-1.47 -1.17,-0.68z"/>
   <path id="svg_52" d="m261,269.43l1.27,-1a0.61,0.61 0 0 0 0.15,-0.24a0.57,0.57 0 0 0 0.07,-0.29a0.73,0.73 0 0 0 -0.22,-0.52a0.75,0.75 0 0 0 -0.53,-0.22a0.77,0.77 0 0 0 -0.52,0.22l-1.22,1.08a0.67,0.67 0 0 0 -0.2,0.48a0.7,0.7 0 0 0 0.2,0.49a0.72,0.72 0 0 0 0.48,0.2l0.19,0a0.75,0.75 0 0 0 0.3,-0.17l0.03,-0.03z"/>
  </g>
  <path id="svg_53" fill="#18c4ff" d="m215.82,384.54c-12.13,-1.58 -18.21,-17.79 -12.6,-28.66c8.74,-16.94 29.89,-19 46.81,-17s39.55,7.64 51.33,21.09c5.81,6.63 9.53,15.32 17.93,19.27c25.07,11.8 34.18,12.33 59.26,24.13c7.48,3.52 15.14,7.16 20.95,13.05c8,8.13 11.61,19.58 13.94,30.76a198.78,198.78 0 0 1 -4.32,97.9c-6.54,21.57 -16.91,43.24 -13.73,65.56c0.9,6.3 2.88,12.69 1.5,18.91c-2.07,9.3 -11,15.35 -19.6,19.39c-26.26,12.29 -56,14.78 -85,15.26a690.18,690.18 0 0 1 -97.29,-5.32c-9.46,-1.2 -19.15,-2.67 -27.4,-7.45s-14.8,-13.64 -14.13,-23.14c0.41,-5.77 3.36,-11 4.84,-16.63c3.16,-12 -0.52,-24.56 -3.9,-36.47c-10.41,-36.71 -20.2,-74.6 -25.24,-112.47c-2,-15.22 -1.33,-31.54 6.58,-44.71c12.64,-21 42.14,-33.62 63.71,-42.94c6.33,-2.74 14.38,-5 19.54,-0.42"/>
  <path id="svg_54" fill="#18c4ff" d="m216,383.91c-6.47,-1 -11.1,-6.2 -13,-12.26a20.9,20.9 0 0 1 2.83,-18.38c8,-11.76 23.39,-14.48 36.67,-14a116.36,116.36 0 0 1 20.69,2.82a96.08,96.08 0 0 1 22.17,7.43a47.89,47.89 0 0 1 17.15,13.56c4.5,5.87 8.24,12.7 14.91,16.44a121.37,121.37 0 0 0 12,5.46q5.28,2.24 10.64,4.26c6.39,2.41 12.86,4.62 19.23,7.08c8.21,3.17 16.29,6.72 24.17,10.64s15.1,8.66 19.94,16.13c4.61,7.11 7,15.39 8.78,23.61a194.48,194.48 0 0 1 3.91,28.74a198.46,198.46 0 0 1 -4.91,57.56c-4.33,18.29 -12.47,35.53 -16,54a74.68,74.68 0 0 0 -0.29,27.56c0.89,4.94 2,10.1 0.77,15.09a20.53,20.53 0 0 1 -5.55,9.39c-5.88,5.94 -14,9.44 -21.7,12.36a155.39,155.39 0 0 1 -26.28,7.3c-18.51,3.51 -37.43,4.23 -56.22,4.36q-30.5,0.23 -60.93,-2.27q-15,-1.23 -30,-3.11c-9,-1.14 -18.3,-2.52 -26.31,-7c-6.83,-3.82 -12.76,-10.48 -13.92,-18.44c-0.63,-4.34 0.57,-8.54 2,-12.6c1.59,-4.39 3.14,-8.67 3.64,-13.34c1,-9.55 -1.43,-19.1 -4,-28.21c-2.69,-9.6 -5.41,-19.2 -8,-28.83c-5.17,-19.45 -9.9,-39 -13.63,-58.8c-1.84,-9.75 -3.54,-19.56 -4.71,-29.41a84.23,84.23 0 0 1 0.49,-26a50.42,50.42 0 0 1 10.29,-22.33a78.4,78.4 0 0 1 16.24,-14.61c12.3,-8.55 26.07,-14.73 39.77,-20.66c6.16,-2.67 15.19,-7.08 21.25,-1.95c1.15,1 2.83,-0.69 1.67,-1.67c-6.33,-5.36 -15,-2.34 -21.75,0.57s-13.67,5.93 -20.36,9.2c-13.82,6.76 -27.89,14.86 -37.91,26.78a52.39,52.39 0 0 0 -10.87,21.39a80.47,80.47 0 0 0 -1.45,26.58c0.95,9.94 2.71,19.84 4.51,29.65c1.91,10.41 4.1,20.78 6.5,31.09c4.67,20.14 10.21,40 15.78,59.95c2.7,9.64 5.35,19.92 3.43,30c-0.92,4.82 -3.1,9.22 -4.42,13.91a22.78,22.78 0 0 0 -0.28,12.31c2,7.52 7.8,13.75 14.49,17.5c8.06,4.52 17.31,6 26.35,7.18c21,2.7 42.07,4.39 63.19,5.13c20.12,0.7 40.4,0.8 60.48,-0.78c19.06,-1.5 38.14,-4.85 55.83,-12.3c7.27,-3.07 14.85,-6.78 20,-13a21.5,21.5 0 0 0 4.9,-10.34c0.75,-4.7 -0.15,-9.42 -1,-14a74.57,74.57 0 0 1 0.78,-29.83c2.1,-9.55 5.39,-18.79 8.53,-28a241.65,241.65 0 0 0 8,-28.44a201.81,201.81 0 0 0 3.84,-29.18a190.12,190.12 0 0 0 -5.32,-58.45c-2.12,-8.14 -5.25,-16.19 -10.68,-22.73c-5.86,-7.05 -14.15,-11.24 -22.3,-15.08c-7.73,-3.65 -15.59,-7 -23.6,-10c-6.71,-2.51 -13.5,-4.83 -20.17,-7.46q-6.31,-2.51 -12.51,-5.31c-4,-1.8 -7.56,-3.55 -10.63,-6.72c-5.45,-5.62 -8.9,-12.8 -14.88,-18c-11.6,-10 -27.52,-14.41 -42.37,-16.73c-13.44,-2.1 -28.46,-2.74 -40.82,3.93a29.51,29.51 0 0 0 -13.43,14.44a22.69,22.69 0 0 0 0.94,18.1c2.57,5.3 7.25,9.26 13.18,10c0.72,0.09 0.9,-1.17 0.17,-1.29l0.09,0.01z"/>
  <path id="svg_55" d="m209.64,378.4a145.36,145.36 0 0 1 58.16,-4.4a140.43,140.43 0 0 1 16.65,3.17a0.81,0.81 0 0 0 0.42,-1.56a143.84,143.84 0 0 0 -59.11,-2.33a137.2,137.2 0 0 0 -16.47,3.88a0.66,0.66 0 0 0 0.35,1.27l0,-0.03z"/>
  <path id="svg_56" d="m232,392.71a421.72,421.72 0 0 0 -0.26,48.62c0.77,16.24 2.18,32.44 3.7,48.62s3.13,32.39 4.35,48.62s2,32.54 1.76,48.84c-0.12,8.08 -0.53,16.15 -1.13,24.21c-0.49,6.57 0.09,14.59 7.22,17.33a7.76,7.76 0 0 0 4.24,0.32a1.19,1.19 0 0 0 -0.32,-2.32c-3.09,0.22 -5.61,-1.87 -7,-4.48c-1.76,-3.26 -1.47,-7.29 -1.22,-10.85c0.55,-7.82 0.94,-15.64 1,-23.49c0.13,-15.73 -0.66,-31.47 -1.88,-47.15c-2.47,-31.66 -6.84,-63.14 -8.8,-94.84a433,433 0 0 1 -0.35,-53.43c0.05,-0.83 -1.24,-0.83 -1.29,0l-0.02,0z"/>
  <path id="svg_57" d="m242.63,638a14.91,14.91 0 0 0 8.87,0c0.94,-0.29 0.53,-1.79 -0.4,-1.47a13.59,13.59 0 0 1 -8.13,0.22a0.65,0.65 0 0 0 -0.34,1.25z"/>
  <path id="svg_58" fill="#18c4ff" d="m308.07,375.51a1096.77,1096.77 0 0 0 141.27,-13.76c8.84,-1.45 17.82,-3.05 25.8,-7.13c11.34,-5.81 19.66,-16.08 27.15,-26.39a429.29,429.29 0 0 0 42.95,-73.47c6.16,-13.46 9.43,-29.22 23.93,-32.2c1.73,-0.35 3.62,-0.56 4.93,-1.74s1.67,-2.9 2.34,-4.45c3.41,-8 15.34,-9.64 22.87,-9.82a36.26,36.26 0 0 1 22.37,6.88c4.36,3.21 16.28,14.4 9.68,20.07c1.41,-1.2 4.66,4.65 5,5.68c3,8.69 1,20.54 0,29.45c-1.48,12.81 -4.86,25 -8.18,37.45c-4.4,16.47 -9.29,32.83 -15.16,48.84c-10.1,27.57 -23.22,54.26 -41.38,77.47c-8.74,11.16 -18.69,21.54 -30.56,29.29c-13.1,8.55 -28.1,13.64 -42.92,18.64c-53,17.87 -106.67,35.89 -162.45,39.7"/>
  <path id="svg_59" fill="#18c4ff" d="m308.07,376.24q49,-1.39 97.61,-7.29c15.84,-1.92 31.67,-4.12 47.39,-6.83c7.08,-1.22 14.16,-2.75 20.73,-5.76a56.12,56.12 0 0 0 16.12,-11.58a131.28,131.28 0 0 0 12.91,-15.61q6.59,-9 12.67,-18.36a428,428 0 0 0 22.85,-39.49c3.24,-6.37 6.44,-12.8 9.22,-19.38c2.2,-5.22 4.1,-10.58 6.77,-15.58c2.43,-4.55 5.62,-8.81 10.32,-11.19c2.6,-1.31 5.41,-1.41 8.09,-2.41c3.1,-1.16 3.55,-3.93 4.9,-6.58c2.4,-4.69 8,-6.66 12.8,-7.65a42.68,42.68 0 0 1 17.4,-0.14a34.67,34.67 0 0 1 15.89,8.11c3.27,2.95 7,6.68 8.22,11.06a4.76,4.76 0 0 1 -1.37,5.17c-0.9,0.82 0.29,2.4 1.32,1.71a20.16,20.16 0 0 1 1.41,1.61a21.4,21.4 0 0 1 1.68,2.74c1.28,2.49 1.6,5.69 1.78,8.47c0.44,6.83 -0.58,13.65 -1.4,20.41c-1.94,16.09 -6.46,31.77 -10.83,47.35c-8.41,30 -18.79,59.63 -34.1,86.85c-14.34,25.52 -33.08,50.82 -59.7,64.38c-13.84,7.05 -28.88,11.56 -43.57,16.49c-15.17,5.09 -30.36,10.1 -45.69,14.71c-30.68,9.22 -62,16.92 -93.91,20.19q-5.91,0.61 -11.84,1c-1.74,0.12 -1.76,2.86 0,2.74c33,-2.28 65.41,-9.55 97.1,-18.77c16.07,-4.67 32,-9.83 47.86,-15.13c15,-5 30.36,-9.63 44.85,-16.09a113.5,113.5 0 0 0 37,-26.5a210.21,210.21 0 0 0 26.87,-36.51c16.32,-27.51 27.35,-57.8 36.14,-88.44c4.59,-16 9.41,-32.27 11.61,-48.81c1,-7.16 2,-14.47 1.88,-21.72c-0.12,-5.36 -0.92,-10.65 -4.26,-15c-0.87,-1.11 -2.45,-2.91 -4,-1.86l1.32,1.7c7.19,-6.51 -4,-17.07 -8.94,-21c-9.63,-7.62 -22.57,-9.27 -34.31,-6.5c-4.82,1.13 -9.93,3.32 -12.61,7.72a31.61,31.61 0 0 0 -1.67,3.76c-0.87,1.94 -2.25,2.64 -4.26,3.06a25.14,25.14 0 0 0 -7.6,2.59c-9.52,5.47 -12.87,17.37 -16.84,26.84a352.29,352.29 0 0 1 -20.72,40.54a417.5,417.5 0 0 1 -25.35,38.63c-8.57,11.57 -18.45,22.24 -32.48,26.86c-7.27,2.4 -14.9,3.5 -22.43,4.71q-12.33,2 -24.7,3.65q-49.68,6.76 -99.84,9.14q-6.15,0.28 -12.31,0.51c-0.94,0 -0.95,1.5 0,1.47l0.02,0.01z"/>
  <path id="svg_60" fill="#fff" d="m391.25,514.82c4.07,-0.86 8.1,-1.87 12.13,-2.91s8.15,-1.91 12,-3.28a0.84,0.84 0 0 0 -0.38,-1.63c-4,0.9 -8,2.28 -12,3.36s-8,2.12 -12,3.21a0.64,0.64 0 0 0 0.34,1.24l-0.09,0.01z"/>
  <path id="svg_61" fill="#fff" d="m576.58,221.26c16.44,-1.65 33,4.77 47,13a0.82,0.82 0 0 0 0.83,-1.42c-14.17,-8.26 -31.16,-14.62 -47.81,-12.82c-0.81,0.09 -0.83,1.38 0,1.29l-0.02,-0.05z"/>
  <path id="svg_62" d="m567.34,586.52c-1.79,2 -4.59,1.88 -7.05,1.72a20.91,20.91 0 0 1 -7.39,-1.94c-2.14,-1 -3.95,-2 -6.34,-1.1c-2.12,0.81 -4.06,2.11 -6.15,3a54.54,54.54 0 0 1 -27.61,4.16a54,54 0 0 1 -15.57,-4.17c-1.34,-0.58 -2.52,1.4 -1.16,2a56.53,56.53 0 0 0 28.93,4.22a55.68,55.68 0 0 0 14.1,-3.41a57.68,57.68 0 0 0 6.61,-3.11c1.12,-0.61 2.31,-1.3 3.64,-1a28.59,28.59 0 0 1 3.77,1.66a20.8,20.8 0 0 0 8.25,1.48c2.55,-0.06 5.21,-0.49 6.89,-2.59c0.52,-0.65 -0.34,-1.56 -0.92,-0.93l0,0.01z"/>
  <path id="svg_63" d="m493.92,551.67a87.9,87.9 0 0 1 28.8,-10.77c4.86,-0.83 9.61,-1.06 14.4,0.32a46.4,46.4 0 0 1 12.62,6.23c4,2.67 8,5.56 11.82,8.57a52.79,52.79 0 0 1 5.61,5.17a55.86,55.86 0 0 0 5.32,5.34a49.13,49.13 0 0 0 5.6,3.79c1.91,1.13 4.2,2.08 5.88,3.53a3.26,3.26 0 0 1 0.73,4c-0.85,1.67 -2.53,1.8 -4.21,1.8c-9.77,0 -19.64,-5 -25,-13.24c-0.81,-1.24 -2.8,-0.09 -2,1.16a31.89,31.89 0 0 0 23.45,14c3.66,0.39 8.47,0.73 9.94,-3.51a5.36,5.36 0 0 0 -0.62,-4.79c-1.23,-1.77 -3.59,-2.71 -5.4,-3.75a60.7,60.7 0 0 1 -6.49,-4.11a51,51 0 0 1 -5.9,-5.86a89.83,89.83 0 0 0 -12.39,-10.2c-8.09,-5.9 -17.31,-11.85 -27.77,-11.17c-12.52,0.83 -24.48,5.81 -35.06,12.34a0.65,0.65 0 0 0 0.66,1.13l0.01,0.02z"/>
  <path id="svg_64" fill="#18c4ff" d="m773.43,275.94c-7.59,-2.95 -16.09,-4.34 -23.91,-2.06s-14.69,8.84 -15.69,16.92c-1.44,11.57 9.47,21.68 20.93,23.84s25.31,-3.08 28.87,-14.27c1.68,-5.29 0.91,-11 0.13,-16.49q-3.35,-23.5 -6.7,-47l15.68,-5.3c2.16,-0.74 4.41,-1.52 6,-3.13c4.21,-4.17 2.23,-11.23 0,-16.71a5.19,5.19 0 0 0 -2,-2.83a5,5 0 0 0 -3.69,0a80.82,80.82 0 0 0 -23.49,10.84a7.8,7.8 0 0 0 -3.07,3.12a8.17,8.17 0 0 0 -0.09,4.47l8.11,48"/>
  <path id="svg_65" fill="#18c4ff" d="m773.62,275.24c-11.73,-4.73 -26.63,-5.55 -35.81,4.63a19.27,19.27 0 0 0 -5.2,14.76a22.23,22.23 0 0 0 7.55,13.95a30,30 0 0 0 30,5.95a24.33,24.33 0 0 0 12,-8.73c3.64,-5.23 3.9,-11.64 3.21,-17.77c-1,-8.42 -2.39,-16.81 -3.6,-25.2q-1.89,-13.09 -3.73,-26.22l-0.7,1.25l14.3,-4.82c3.69,-1.25 7.78,-2.48 9.61,-6.27c1.57,-3.25 1.14,-7.06 0.22,-10.43a39.71,39.71 0 0 0 -1.83,-5.21c-0.73,-1.75 -1.77,-3.31 -3.79,-3.57s-4.2,0.66 -6.08,1.26c-2.2,0.71 -4.37,1.52 -6.51,2.41a82.9,82.9 0 0 0 -12.16,6.31a18.36,18.36 0 0 0 -4.78,3.69a6.8,6.8 0 0 0 -1.06,5.39c0.7,4.93 1.7,9.82 2.55,14.72c2,11.42 3.89,22.85 5.82,34.28c0.19,1.17 2,0.67 1.78,-0.49l-4.55,-26.94c-0.75,-4.41 -1.45,-8.83 -2.17,-13.24l-1.13,-6.87c-0.32,-2 -0.87,-4.16 0.58,-5.8a20.28,20.28 0 0 1 4.78,-3.41c1.72,-1.05 3.47,-2.05 5.27,-3a78.4,78.4 0 0 1 11.51,-4.82c0.92,-0.31 1.85,-0.59 2.78,-0.86a7.45,7.45 0 0 1 3.21,-0.57c1.73,0.31 2.34,3 2.85,4.4c1.1,3 2.11,6.46 1.52,9.71c-0.83,4.62 -5,6 -9,7.29l-14.29,4.85a1.06,1.06 0 0 0 -0.71,1.25q3.06,21.27 6,42.55c0.91,6.48 2.49,13.5 0.6,19.94a18.76,18.76 0 0 1 -8.65,10.63a27.68,27.68 0 0 1 -28,-0.19a23.85,23.85 0 0 1 -10,-11.13a16.22,16.22 0 0 1 1.21,-14.53a22.66,22.66 0 0 1 14.25,-10c7.22,-1.69 14.83,-0.32 21.69,2.19c0.88,0.32 1.23,-1.06 0.38,-1.4l0.08,0.06z"/>
  <path id="svg_66" d="m456.54,241c-7.59,-2.95 -16.09,-4.34 -23.91,-2s-14.69,8.83 -15.69,16.92c-1.43,11.56 9.48,21.67 20.93,23.84s25.31,-3.09 28.87,-14.28c1.68,-5.28 0.92,-11 0.13,-16.48q-3.35,-23.51 -6.7,-47l15.68,-5.3c2.17,-0.73 4.41,-1.51 6,-3.12c4.21,-4.18 2.23,-11.23 0,-16.72a5.21,5.21 0 0 0 -2,-2.83a5.06,5.06 0 0 0 -3.69,0a80.94,80.94 0 0 0 -23.49,10.84a7.68,7.68 0 0 0 -3.06,3.13a8,8 0 0 0 -0.09,4.46l8.1,48"/>
  <path id="svg_67" d="m456.73,240.31c-11.73,-4.73 -26.62,-5.54 -35.81,4.64a19.25,19.25 0 0 0 -5.19,14.76a22.25,22.25 0 0 0 7.54,14a30,30 0 0 0 30,5.94a24.29,24.29 0 0 0 12,-8.73c3.64,-5.22 3.91,-11.64 3.21,-17.77c-1,-8.42 -2.38,-16.8 -3.59,-25.19c-1.27,-8.74 -2.49,-17.48 -3.73,-26.23l-0.71,1.25l14.3,-4.82c3.7,-1.25 7.78,-2.47 9.62,-6.27c1.57,-3.25 1.13,-7.05 0.22,-10.43a41.79,41.79 0 0 0 -1.83,-5.21c-0.74,-1.75 -1.78,-3.31 -3.8,-3.57s-4.19,0.66 -6.07,1.27q-3.31,1.07 -6.52,2.41a81.84,81.84 0 0 0 -12.15,6.31a17.83,17.83 0 0 0 -4.79,3.69a6.83,6.83 0 0 0 -1.06,5.39c0.7,4.92 1.7,9.82 2.55,14.72c2,11.41 3.89,22.85 5.82,34.27c0.2,1.17 2,0.68 1.78,-0.49l-4.52,-26.99c-0.74,-4.41 -1.45,-8.82 -2.17,-13.24l-1.13,-6.86c-0.32,-2 -0.87,-4.17 0.58,-5.81a20.57,20.57 0 0 1 4.78,-3.41q2.58,-1.58 5.27,-3a78.45,78.45 0 0 1 11.51,-4.83c0.92,-0.3 1.85,-0.59 2.78,-0.86a7.46,7.46 0 0 1 3.22,-0.56c1.72,0.31 2.33,3 2.84,4.4c1.1,3 2.11,6.46 1.52,9.71c-0.83,4.61 -5,6 -9,7.29l-14.3,4.91a1.06,1.06 0 0 0 -0.71,1.25q3.06,21.27 6.05,42.56c0.91,6.47 2.5,13.5 0.6,19.94a18.74,18.74 0 0 1 -8.64,10.63a27.68,27.68 0 0 1 -28,-0.2a23.83,23.83 0 0 1 -10,-11.13a16.25,16.25 0 0 1 1.21,-14.53a22.73,22.73 0 0 1 14.25,-10c7.22,-1.69 14.83,-0.31 21.69,2.19c0.89,0.33 1.23,-1.05 0.38,-1.4z"/>
  <path id="svg_68" d="m818,396.92q-17.7,2.29 -35.17,6c-1.61,0.35 -3.36,0.79 -4.32,2.12s-0.79,3.32 -0.53,5l6.02,40.29c-0.19,-1.23 -7,-0.4 -7.79,-0.2a12.24,12.24 0 0 0 -6.81,4.22c-3.51,4.53 -1.93,11.46 2.29,15c7.68,6.4 21.1,2.37 20.17,-8.68c-0.89,-10.51 -2.2,-19.13 -4,-33.13c10.84,-1.39 23.58,-2.67 34.42,-4l1.79,23.19a18.78,18.78 0 0 0 -9.5,-0.15c-5,1.48 -7.29,5.85 -6.18,10.81a13.84,13.84 0 0 0 8.25,10c4.39,1.88 10.69,1.94 13.95,-2.08c2.09,-2.57 1.84,-6.26 1.48,-9.56c-1.85,-16.87 -3.7,-36.88 -5.55,-53.76a8.28,8.28 0 0 0 -1.18,-4.07c-0.85,-1.15 -2.59,-1.78 -3.75,-0.94"/>
  <path id="svg_69" d="m818,396c-11.89,1.46 -23.77,3.26 -35.5,5.73c-2,0.43 -4.19,1.08 -5.29,3c-1.29,2.23 -0.58,5 -0.22,7.39l2.7,17.91c1,6.86 2.13,13.72 3.22,20.57l2.25,-0.62c-0.65,-2.19 -4.68,-1.53 -6.32,-1.39a15,15 0 0 0 -8.2,2.86c-6.16,4.74 -5.41,14.18 0.44,18.89a14.68,14.68 0 0 0 16.05,1.47a11.38,11.38 0 0 0 5.24,-6.1c1.15,-3.21 0.47,-6.71 0.12,-10c-1,-9.44 -2.46,-18.82 -3.61,-28.24l-0.93,0.93c11.46,-1.41 23,-2.49 34.42,-3.93l-1.05,-1l1.77,23.19l1.35,-1c-4.4,-1 -9.5,-1.39 -13.37,1.39a9.82,9.82 0 0 0 -3.92,9.1a15.6,15.6 0 0 0 15.79,13.63c3.75,-0.05 7.77,-1.63 9.53,-5.16c2,-3.92 0.81,-8.75 0.34,-12.9c-1.14,-10.12 -2.25,-20.24 -3.26,-30.38q-0.84,-8.4 -1.72,-16.81c-0.24,-2.25 -0.18,-5 -1.46,-6.93a3.9,3.9 0 0 0 -5.19,-1.48c-1.09,0.66 -0.09,2.38 1,1.71c2.15,-1.3 3.2,2 3.41,3.51c0.27,2 0.45,4 0.66,6c0.45,4.22 0.88,8.44 1.32,12.66c0.87,8.61 1.64,17.24 2.48,25.85c0.39,4 0.94,8 1.17,12.05c0.21,3.72 -0.57,7.26 -4.31,8.84c-6.14,2.58 -13.82,-1.05 -16.45,-6.92c-1.42,-3.15 -1.77,-7.11 0.69,-9.85c3.16,-3.53 8.52,-3.16 12.72,-2.23a1.08,1.08 0 0 0 1.36,-1l-1.81,-23.19c0,-0.51 -0.45,-1.13 -1,-1.05c-11.46,1.47 -23,2.66 -34.42,4.16c-0.45,0.06 -1,0.38 -0.94,0.94c1,7.4 1.91,14.8 2.75,22.21c0.36,3.21 0.7,6.42 1,9.63c0.22,2.71 0.15,5.27 -1.44,7.59c-2.66,3.87 -8,5 -12.35,3.74c-5.63,-1.58 -9.71,-7.67 -7.68,-13.47c1.13,-3.26 4.52,-5.51 7.83,-6.05a28.22,28.22 0 0 1 3.43,-0.32a16,16 0 0 1 1.83,0a2.86,2.86 0 0 0 0.57,0.07c0.37,-0.08 0.16,0.28 0,-0.29c0.41,1.49 2.46,0.83 2.25,-0.62q-2.4,-16.95 -5,-33.89a66.47,66.47 0 0 1 -1.12,-8.06a3.19,3.19 0 0 1 1.08,-2.86a8,8 0 0 1 3,-1.07c5.4,-1.23 10.84,-2.31 16.28,-3.32q9.38,-1.74 18.81,-3.06c1,-0.14 0.74,-1.84 -0.24,-1.72l-0.06,-0.11z"/>
  <path id="svg_70" fill="#18c4ff" d="m95.44,255.51q-24.7,3.21 -49.08,8.42c-2.24,0.48 -4.68,1.1 -6,3s-1.11,4.62 -0.75,7q4.22,28.07 8.44,56.07c-0.26,-1.72 -9.72,-0.56 -10.87,-0.28a17,17 0 0 0 -9.49,5.89c-4.89,6.31 -2.69,16 3.2,20.89c10.71,8.93 29.42,3.31 28.13,-12.1c-1.24,-14.67 -3.07,-26.7 -5.51,-46.23c15.12,-1.93 32.9,-3.71 48,-5.64l2.49,32.37c-4.36,-1 -9,-1.49 -13.25,-0.21c-6.91,2.07 -10.17,8.16 -8.62,15.08a19.29,19.29 0 0 0 11.5,14c6.13,2.62 14.93,2.7 19.47,-2.91c2.92,-3.59 2.56,-8.73 2.06,-13.33c-2.58,-23.53 -5.16,-51.46 -7.74,-75c-0.21,-2 -0.47,-4.07 -1.65,-5.68s-3.61,-2.49 -5.22,-1.32"/>
  <path id="svg_71" fill="#18c4ff" d="m95.44,254.63c-16.49,2.06 -32.9,4.69 -49.16,8.07c-2.88,0.59 -6.11,1.47 -7.5,4.35c-1.5,3.13 -0.47,6.89 0,10.14q1.88,12.44 3.74,24.86q2.15,14.16 4.39,28.28l2.25,-0.62c-0.36,-1.4 -2.09,-1.61 -3.29,-1.72a31.33,31.33 0 0 0 -5.39,0.14a20.06,20.06 0 0 0 -11.48,4.38c-8.12,6.83 -6.1,19.59 1.92,25.6a19.91,19.91 0 0 0 21.85,1.15a15.26,15.26 0 0 0 6.77,-8.78c1.28,-4.49 0.24,-9.44 -0.25,-14c-1.37,-12.8 -3.3,-25.52 -4.87,-38.3l-0.93,0.94c16,-2 32,-3.51 48,-5.54l-1,-1l2.51,32.32l1.36,-1c-6,-1.36 -13.11,-1.91 -18.39,2a13.35,13.35 0 0 0 -5.11,12.84c1.53,10.83 11.51,18.53 22.33,17.95c5.07,-0.28 10.29,-2.67 12.38,-7.57a18.6,18.6 0 0 0 1.07,-8.4c-0.2,-3.17 -0.66,-6.33 -1,-9.48q-2.3,-20.68 -4.37,-41.39q-1.14,-11.3 -2.32,-22.59c-0.35,-3.26 -0.23,-7.2 -1.84,-10.15c-1.32,-2.4 -4.48,-4 -7,-2.36c-1.08,0.69 -0.08,2.41 1,1.72c2.81,-1.8 4.75,2 5.16,4.2c0.55,2.86 0.7,5.84 1,8.73q0.95,8.87 1.84,17.73c1.25,12.3 2.38,24.61 3.6,36.91c0.57,5.67 1.41,11.38 1.67,17.08a15.09,15.09 0 0 1 -1.18,7.66a10.11,10.11 0 0 1 -5.28,4.59c-8.83,3.55 -19.71,-1.57 -23.43,-10c-2,-4.57 -2.44,-10.28 1.16,-14.2c4.56,-5 12.11,-4.48 18.12,-3.14a1.08,1.08 0 0 0 1.35,-1l-2.51,-32.35c0,-0.51 -0.45,-1.13 -1,-1.05c-16,2.05 -32,3.68 -48,5.76c-0.45,0.06 -1,0.38 -0.94,0.93c1.35,10.53 2.74,21.05 3.94,31.59c0.51,4.51 1,9 1.34,13.53c0.31,3.76 -0.06,7.38 -2.37,10.5c-4,5.47 -11.85,6.87 -18.07,4.9a15.93,15.93 0 0 1 -9,-7a14.7,14.7 0 0 1 -1.29,-12.82c1.84,-4.44 6.58,-7.52 11.24,-8.21a43.17,43.17 0 0 1 5.08,-0.45a17.64,17.64 0 0 1 2.62,0.07c0.25,0 0.53,0.14 0.78,0.15s0.13,0.19 0,-0.16c0.36,1.5 2.46,0.83 2.25,-0.62q-3.45,-23.91 -7.08,-47.79l-0.81,-5.42a40.56,40.56 0 0 1 -0.7,-5.69a4.83,4.83 0 0 1 1.4,-3.9a9.63,9.63 0 0 1 4.39,-1.8c7.61,-1.76 15.3,-3.2 23.01,-4.65q13.08,-2.39 26.27,-4.2c1,-0.13 0.74,-1.84 -0.23,-1.72z"/>
  <g id="svg_72" fill="#fff">
   <path id="svg_73" d="m511.81,612.34c-1.45,0.1 -0.7,2.46 0.75,1.55c0.78,-0.48 1.41,-1.25 2.19,-1.77a13.53,13.53 0 0 1 2.52,-1.34a3.61,3.61 0 0 1 2.79,-0.11a8.34,8.34 0 0 0 2.55,0.57a7.18,7.18 0 0 0 4.81,-1.76c0.83,-0.7 -0.37,-1.9 -1.19,-1.19a5.41,5.41 0 0 1 -3.5,1.3c-1.43,0 -2.69,-0.88 -4.11,-0.75a9.13,9.13 0 0 0 -3.74,1.48a15,15 0 0 0 -1.61,1.13a10.38,10.38 0 0 0 -0.86,0.76l-0.36,0.36l-0.16,0.15q-0.34,0.28 0.27,0.72l-0.45,0.19l0.1,0c0.79,-0.09 0.84,-1.32 0,-1.27l0,-0.02z"/>
   <path id="svg_74" d="m526.13,615.66l19.87,-7.47c0.9,-0.34 0.5,-1.8 -0.4,-1.45l-19.83,7.66c-0.78,0.3 -0.45,1.56 0.35,1.26l0.01,0z"/>
   <path id="svg_75" d="m602,592.55a99.71,99.71 0 0 1 17.35,-7c0.9,-0.27 0.52,-1.69 -0.39,-1.41a101,101 0 0 0 -17.62,7.26c-0.75,0.39 -0.08,1.52 0.66,1.13l0,0.02z"/>
   <path id="svg_76" d="m606.68,598.67a189.91,189.91 0 0 1 17.58,-8.83c0.86,-0.38 0.11,-1.65 -0.74,-1.27a187.27,187.27 0 0 0 -17.5,9a0.65,0.65 0 0 0 0.66,1.13l0,-0.03z"/>
   <path id="svg_77" d="m724.44,613.39c8.82,-4.59 17.83,-8.81 26.95,-12.77c0.89,-0.38 0.12,-1.68 -0.76,-1.3c-9.13,3.92 -18.09,8.26 -26.87,12.91c-0.77,0.41 -0.09,1.57 0.68,1.16z"/>
   <path id="svg_78" d="m740.39,615.5a135.28,135.28 0 0 0 16.42,-8.86c0.78,-0.5 0.05,-1.76 -0.73,-1.25a137.27,137.27 0 0 1 -16.34,9c-0.75,0.35 -0.1,1.45 0.65,1.11z"/>
   <path id="svg_79" d="m833.83,592c0.75,-0.89 2,-2.39 3.32,-1.59c0.58,0.36 1,0.82 1.71,0.87a4.44,4.44 0 0 0 2,-0.49l9.35,-3.95c1,-0.42 0.14,-1.84 -0.83,-1.43l-4.74,2c-1.64,0.7 -3.28,1.5 -5,2.1a1.19,1.19 0 0 1 -1.22,-0.07a6.67,6.67 0 0 0 -0.84,-0.54a2.6,2.6 0 0 0 -1.65,-0.18a5.68,5.68 0 0 0 -3,2.31c-0.52,0.66 0.38,1.61 0.94,0.94l-0.04,0.03z"/>
   <path id="svg_80" d="m840.6,600.39a158.78,158.78 0 0 1 24.6,-12.32c0.91,-0.36 0.53,-1.85 -0.41,-1.49a130.23,130.23 0 0 0 -24.86,12.68c-0.7,0.46 -0.06,1.58 0.67,1.13z"/>
   <path id="svg_81" d="m504.83,371.59a90.24,90.24 0 0 1 15.05,31.29a0.84,0.84 0 0 0 1.62,-0.44a90.5,90.5 0 0 0 -15.38,-31.6c-0.57,-0.75 -1.86,0 -1.29,0.75z"/>
   <path id="svg_82" d="m516.08,366a132.07,132.07 0 0 1 11.74,26.9c0.28,0.9 1.7,0.51 1.42,-0.39a133.74,133.74 0 0 0 -12,-27.17a0.65,0.65 0 0 0 -1.13,0.66l-0.03,0z"/>
  </g>
  <g id="svg_83" fill="#18c4ff">
   <path id="svg_84" d="m388.71,644.36c-2.88,2.28 0.15,6.62 1.41,8.9q1.65,3 3.31,6a45.21,45.21 0 0 1 3.24,6.16c0.39,1.07 2.12,0.6 1.72,-0.48a36.83,36.83 0 0 0 -2.67,-5.14l-3,-5.26c-1,-1.67 -2,-3.32 -2.87,-5c-0.63,-1.23 -1.39,-3.09 -0.2,-4.21c0.64,-0.6 -0.28,-1.45 -0.94,-0.94l0,-0.03z"/>
   <path id="svg_85" d="m174.21,692.87a78,78 0 0 0 31,9c1,0.07 1,-1.56 0,-1.63a76.12,76.12 0 0 1 -30.21,-8.67c-0.85,-0.45 -1.62,0.85 -0.76,1.3l-0.03,0z"/>
   <path id="svg_86" d="m292.44,703.77a175,175 0 0 0 43.41,-4.24c1,-0.23 0.58,-1.76 -0.42,-1.54a178.08,178.08 0 0 1 -43,4.27a0.76,0.76 0 0 0 0,1.51l0.01,0z"/>
   <path id="svg_87" d="m95.74,388.94c-6.49,13.59 -12.91,27.58 -15,42.63c-1.72,12.37 -0.28,25.61 6,36.57a41.08,41.08 0 0 0 5.33,7.31c2.07,2.27 4.72,4.58 7.92,4.88c2.29,0.21 4.55,-0.81 5.2,-3.14a5.19,5.19 0 0 0 -1.33,-5.21c-1.92,-1.57 -4.2,-0.05 -5.3,1.73a25.82,25.82 0 0 0 -3.25,9.73c-1,6.92 0,13.93 1.38,20.72a160.88,160.88 0 0 0 17.56,46.35a1.05,1.05 0 0 0 1.82,-1.06a159.65,159.65 0 0 1 -15.19,-36.8a107.84,107.84 0 0 1 -3.74,-19.08c-0.51,-6.2 -0.14,-13 3,-18.51c0.4,-0.71 1.25,-2.09 2.26,-1.66c0.61,0.26 0.87,1.16 1,1.73c0.37,2.45 -1.55,3.62 -3.84,3.13c-2.94,-0.62 -5.23,-3.15 -7.09,-5.34a40.37,40.37 0 0 1 -4.77,-7.09c-5.35,-10 -6.71,-21.93 -5.35,-33.11c1.84,-15.18 8.26,-29.34 14.71,-43c0.4,-0.86 -0.87,-1.62 -1.29,-0.75l-0.03,-0.03z"/>
   <path id="svg_88" d="m132.24,209.48a216.07,216.07 0 0 0 25.33,25.52c0.81,0.69 2,-0.48 1.17,-1.16a216.07,216.07 0 0 1 -25.47,-25.33c-0.61,-0.72 -1.62,0.31 -1,1l-0.03,-0.03z"/>
   <path id="svg_89" d="m162,180.92q8.33,12.29 16.72,24.51c0.53,0.78 1.81,0 1.27,-0.74q-8.42,-12.23 -16.87,-24.42c-0.47,-0.67 -1.58,0 -1.12,0.65z"/>
   <path id="svg_90" d="m202.65,154.19a252.64,252.64 0 0 0 7,36.25a0.8,0.8 0 0 0 1.55,-0.43a248.25,248.25 0 0 1 -7.08,-35.82c-0.11,-0.92 -1.56,-0.93 -1.45,0l-0.02,0z"/>
   <path id="svg_91" d="m671.5,339.93a142.32,142.32 0 0 1 -8.2,49.91a145.49,145.49 0 0 1 -25,44.2a140.24,140.24 0 0 1 -20.41,20.06l0.93,-0.25c-4,-1.19 -2.78,-6.93 -1.68,-9.8a30,30 0 0 1 3.36,-6a16.41,16.41 0 0 1 5.5,-5.21a8.76,8.76 0 0 1 7.9,-0.55a7.18,7.18 0 0 1 3.85,5.68c0.69,4.8 -0.83,10.18 -2.4,14.67a50.65,50.65 0 0 1 -7.47,13.84a41.37,41.37 0 0 1 -5.46,6.06c-0.62,0.56 -1.43,0.89 -2,0.05c-0.72,-1 0.76,-2 1.51,-2.48a4.67,4.67 0 0 1 6.81,1.79a6.47,6.47 0 0 1 -0.13,6.48a87.64,87.64 0 0 1 -9.81,13.05a106.63,106.63 0 0 1 -28.15,22.57a1.08,1.08 0 0 0 1.09,1.87a108.32,108.32 0 0 0 26.26,-20.38a105.46,105.46 0 0 0 10.33,-12.85c1.42,-2.07 3,-4.12 3.29,-6.68a8.3,8.3 0 0 0 -1.77,-6.2a6.72,6.72 0 0 0 -6.27,-2.58c-2,0.36 -4.85,2 -5.34,4.1a3.29,3.29 0 0 0 2.65,3.82c2.26,0.42 4,-2 5.3,-3.42a52,52 0 0 0 13.5,-28.55c0.57,-4.46 0.15,-9.56 -4,-12.18c-4.63,-2.92 -10.43,-0.8 -14,2.74a26.49,26.49 0 0 0 -4.35,5.89a24.08,24.08 0 0 0 -2.56,5.86c-0.84,3.32 -1,8.14 2.64,9.88a1.91,1.91 0 0 0 2.54,-0.37c1,-0.82 2,-1.66 3,-2.52q3,-2.62 5.94,-5.42a141.74,141.74 0 0 0 10.77,-11.69a147.15,147.15 0 0 0 17.33,-26.61a144.61,144.61 0 0 0 15.83,-60.92c0.09,-2.62 0.09,-5.24 0,-7.86a0.68,0.68 0 0 0 -1.35,0l0.02,0z"/>
  </g>
  <path id="svg_92" d="m380.34,412.33a1.9,1.9 0 0 0 0,-3.79a1.9,1.9 0 0 0 0,3.79z"/>
 </g>
</svg>