<svg width="1000" height="1000" xmlns="http://www.w3.org/2000/svg">
 <defs>
  <filter id="svg_96_blur">
   <feGaussianBlur stdDeviation="0" in="SourceGraphic"/>
  </filter>
 </defs>
 <g>
  <title>Layer 1</title>
  <ellipse ry="109" rx="109" id="svg_103" cy="125.33333" cx="821.66667" stroke-width="0" stroke="#000" fill="#dff0ff"/>
  <ellipse stroke="#000" stroke-width="0" filter="url(#svg_96_blur)" ry="317.99999" rx="317.5" id="svg_96" cy="410.99999" cx="419.16667" fill="#f0f8ff"/>
  <ellipse stroke="#000" ry="198.49495" rx="197.5" id="svg_100" cy="667.82829" cx="581.16666" stroke-width="0" fill="#dff0ff"/>
  <path id="svg_1" d="m582.06,363.47a99.25,99.25 0 0 0 27.06,25.21a100.73,100.73 0 0 0 16.81,8.49c6.37,2.5 13.11,4.43 20,4.47a32.4,32.4 0 0 0 18.6,-5.83a64,64 0 0 0 14,-13.64c8,-10.26 13.53,-22.15 18.33,-34.18a515.71,515.71 0 0 0 25.34,-84c0.35,-1.67 0.75,-3.34 1,-5a7.1,7.1 0 0 0 -0.44,-4.7a7.59,7.59 0 0 0 -2.92,-2.64c-1.7,-1 -3.44,-2 -5.16,-3c-2.87,-1.64 -6,-4 -9.41,-4.11c-2.93,-0.15 -5.3,1.63 -7,3.84c-1.95,2.52 -3.46,5.39 -5.16,8.07q-2.79,4.42 -5.75,8.74q-6.09,8.86 -12.79,17.28c-8.69,11 -18,21.47 -27.35,31.83c-2.46,2.71 -4.91,5.41 -7.39,8.09c-1.09,1.18 -2.14,2.4 -3.29,3.52c-0.92,0.9 -2.22,2 -3.61,1.58s-2,-2.23 -2.5,-3.48a29.93,29.93 0 0 0 -2.11,-5.18a5.38,5.38 0 0 0 -4.24,-2.78c-1.8,-0.17 -1.79,2.65 0,2.82c1.41,0.13 2.12,1.75 2.59,2.88c0.7,1.68 1.17,3.44 2,5.06a6,6 0 0 0 3.74,3.34c2.79,0.69 5.08,-1.31 6.82,-3.2c9.28,-10.07 18.5,-20.21 27.37,-30.64a385.55,385.55 0 0 0 24.7,-32q3,-4.32 5.72,-8.77c1.47,-2.37 2.77,-5.22 5,-7c2.78,-2.32 5.89,-0.56 8.57,1l4.22,2.41a44.38,44.38 0 0 1 4.63,2.7c1.39,1 1.36,2.41 1.07,4s-0.7,3.4 -1.06,5.09q-1.14,5.37 -2.39,10.71q-2.46,10.47 -5.34,20.82q-5.72,20.46 -13.07,40.43c-4.47,12.16 -9.2,24.38 -15.89,35.52a83.48,83.48 0 0 1 -11.3,15c-4.36,4.54 -9.44,8.79 -15.42,11c-12.36,4.54 -26.4,-0.62 -37.58,-6.18a101,101 0 0 1 -28.93,-21.66q-3.07,-3.3 -5.83,-6.87c-0.73,-0.95 -2.37,0 -1.64,1l0,-0.04z"/>
  <path id="svg_2" fill="#fff" d="m560.29,422.68a1812.23,1812.23 0 0 1 95.81,494.94c0.5,9.77 1,19.88 5.48,28.57c3.4,6.6 9,12.16 12.58,18.51a5.57,5.57 0 0 1 -4.62,8.3l-45.08,1.91c-5.36,0.23 -11.32,0.26 -15.33,-3.31c-3,-2.69 -4.21,-6.82 -5.26,-10.73q-20.88,-77.45 -41.58,-155c-8.5,-31.83 -17,-64.19 -16.32,-97.13c0.44,-19.89 4.2,-40.31 -1.56,-59.35c-3.24,-10.74 -9.34,-20.34 -14.88,-30.09a337.7,337.7 0 0 1 -40.09,-215.3"/>
  <path id="svg_3" d="m559.37,422.94q19.33,57.33 35.11,115.77q15.6,58.2 27.42,117.3q11.9,59.67 19.83,120.06q7.8,59.73 11.63,119.88c0.62,9.84 0.93,19.7 1.72,29.52c0.7,8.74 2.38,17.34 7.16,24.83c2.37,3.72 5.21,7.11 7.77,10.7c1.17,1.65 3,3.82 3.34,5.87a4.1,4.1 0 0 1 -3.31,4.57c-2.44,0.55 -5.33,0.3 -7.83,0.41l-7.89,0.34l-15.77,0.68c-5.12,0.22 -10.25,0.49 -15.37,0.65c-4,0.13 -8.51,0.14 -12,-2.15c-4,-2.61 -5.07,-7.69 -6.23,-12l-4.13,-15.37q-8.21,-30.5 -16.39,-61q-8.25,-30.76 -16.48,-61.55c-5.3,-19.84 -10.9,-39.64 -15,-59.77s-6.3,-40.4 -5.17,-60.92c1.06,-19.28 3.43,-39.08 -4,-57.48c-3.48,-8.66 -8.41,-16.6 -13,-24.69s-8.78,-16.26 -12.68,-24.67a337.73,337.73 0 0 1 -30.1,-162.35q0.89,-13.67 2.9,-27.21c0.28,-1.86 -2.56,-2.66 -2.84,-0.79a339.1,339.1 0 0 0 40.24,216.52c4.88,8.59 10.23,17 13.61,26.36c3.52,9.69 4.38,20 4.23,30.21s-1.25,20.35 -1.55,30.53a204.46,204.46 0 0 0 1.55,31.09c2.52,20.53 7.51,40.63 12.8,60.59q8.26,31.21 16.69,62.39q8.4,31.34 16.83,62.64l8.43,31.31c2,7.4 3.3,16.79 11.43,19.91c3.72,1.43 7.83,1.4 11.76,1.25c5.21,-0.19 10.42,-0.43 15.63,-0.65l16.29,-0.72l7.33,-0.31a45.56,45.56 0 0 0 7.3,-0.38a7.16,7.16 0 0 0 5.6,-5.65c0.68,-3.5 -1.77,-6.51 -3.67,-9.19c-2.74,-3.86 -5.81,-7.49 -8.27,-11.54a40.89,40.89 0 0 1 -5,-13.18c-2,-9.67 -1.83,-19.81 -2.41,-29.63q-0.9,-15.43 -2.07,-30.86q-2.34,-30.84 -5.74,-61.6q-6.72,-61.1 -17.59,-121.66q-10.93,-60.92 -26.09,-121t-34.39,-118.79c-3.15,-9.63 -6.43,-19.22 -9.77,-28.78c-0.4,-1.16 -2.25,-0.67 -1.85,0.51l-0.01,0z"/>
  <path id="svg_4" fill="#fff" d="m509.49,416.85a809.81,809.81 0 0 1 13,226c-1.56,19.15 -4.49,39.65 -17.77,53.47s-34.09,17.56 -52.86,14.57s-36.01,-11.89 -52.86,-20.66c-46.14,-24 -101.12,-60.21 -137.85,-97c-11.81,-11.84 -7.53,-9.42 -31.29,-5.29c-5.28,0.91 -11.23,-2.55 -13.88,-7.21c-3.56,-6.25 1.75,-13.68 6.71,-18.89c9.37,-9.82 20.07,-33.52 33.62,-34.38c9.84,-0.63 18.6,11.17 27.44,15.55c52.38,26 115.36,54.65 165.71,74.7c-40.95,-62.91 -47.46,-168.11 -14.83,-235.71"/>
  <path id="svg_5" d="m433.81,381.54a200.35,200.35 0 0 0 -14.89,43.46a265.65,265.65 0 0 0 -6.13,48.34a292.68,292.68 0 0 0 2.52,50.12a269.56,269.56 0 0 0 10.89,47.93a206.05,206.05 0 0 0 19.1,42.36q1.43,2.36 2.92,4.66l1.61,-2.1c-26.15,-10.43 -52,-21.63 -77.66,-33.19q-40,-18 -79.38,-37.35c-3,-1.48 -6.08,-2.88 -9,-4.48a50.56,50.56 0 0 1 -7.17,-5c-4.41,-3.51 -8.81,-7.42 -14.18,-9.41c-10,-3.71 -18.3,4.18 -24.09,11.42c-3.37,4.21 -6.39,8.68 -9.47,13.1c-1.42,2 -2.85,4.07 -4.39,6s-3.34,3.75 -5,5.68c-3.77,4.48 -7.85,10.8 -5.5,16.87c2,5.33 7.92,9.28 13.57,9.55c3,0.15 6.2,-0.81 9.15,-1.39c2.32,-0.46 4.62,-0.95 6.94,-1.41s5.2,-1.17 7.43,-0.42s4.26,3.12 6,4.84c4.12,4.14 8.26,8.24 12.55,12.2c20.67,19.11 43.38,36 66.81,51.59a695.33,695.33 0 0 0 72.5,42.09c24,12.05 51.88,22.36 78.45,12.27a49.75,49.75 0 0 0 26.82,-23.69c5.9,-11.34 8,-24.2 9.31,-36.79a741.91,741.91 0 0 0 3,-95.92q-0.33,-11.75 -1,-23.48c-0.11,-2 -3.2,-2 -3.08,0a813.65,813.65 0 0 1 -0.12,95.25c-0.83,13.75 -1.48,27.76 -4.46,41.25c-2.64,12 -7.58,23.8 -17.05,32c-9.19,8 -21.45,11.7 -33.46,12.27c-13.58,0.66 -26.89,-2.81 -39.42,-7.81c-13.05,-5.21 -25.56,-11.93 -37.9,-18.62q-17.87,-9.66 -35.11,-20.4a588.1,588.1 0 0 1 -68.25,-48.87q-14.24,-12 -27.29,-25.2c-1.91,-1.93 -3.9,-4.19 -6.39,-5.38c-2.27,-1.09 -4.69,-0.94 -7.12,-0.57c-4.38,0.66 -8.71,1.73 -13.06,2.54c-3.23,0.59 -6.08,1.05 -9.19,-0.33a13.45,13.45 0 0 1 -6.44,-5.84c-3.12,-6 2.79,-12.77 6.61,-16.84a96,96 0 0 0 8.46,-11c3.09,-4.44 6.13,-8.94 9.63,-13.07c2.93,-3.44 6.28,-6.95 10.48,-8.81c4.59,-2 9.15,-0.65 13.25,1.86c5,3 9.19,7.21 14,10.47a68.89,68.89 0 0 0 7.86,4.2l9.15,4.47q9.5,4.63 19,9.17q19.44,9.27 39,18.22c25.46,11.65 51.1,22.94 77,33.61q8.69,3.59 17.42,7.06c1.17,0.47 2.25,-1.11 1.61,-2.09c-17.1,-26.32 -26.92,-57 -31.87,-87.85c-5.17,-32.21 -5.14,-65.67 1,-97.73a200.75,200.75 0 0 1 15.63,-48.89c0.52,-1.1 -1.11,-2.06 -1.64,-1l0.04,0.08z"/>
  <path id="svg_6" d="m723.05,155.74l-4.63,-4.94a0.9,0.9 0 0 1 -0.3,-0.52a0.93,0.93 0 0 1 0.2,-0.52a12.71,12.71 0 0 0 1.42,-3.14c0.14,-0.49 0.19,-1.15 -0.27,-1.38a1.1,1.1 0 0 0 -0.65,0a9.67,9.67 0 0 0 -6.63,4.33c-0.35,0.55 -0.62,1.32 -0.19,1.81a1.51,1.51 0 0 0 1.15,0.37a9.16,9.16 0 0 0 4.85,-1.29"/>
  <path id="svg_7" d="m723.7,155.08c-0.76,-0.93 -1.52,-1.87 -2.29,-2.8c-0.37,-0.45 -0.75,-0.9 -1.13,-1.34c-0.18,-0.23 -0.37,-0.45 -0.56,-0.67a2.37,2.37 0 0 0 -0.29,-0.34c-0.2,-0.17 0,0 0,0l0,0.72a4.36,4.36 0 0 1 0.59,-1a14.46,14.46 0 0 0 0.71,-1.55a4.47,4.47 0 0 0 0.46,-2.84c-0.69,-2.39 -3.72,-1.39 -5.33,-0.7a10.86,10.86 0 0 0 -4.22,3.15a5.47,5.47 0 0 0 -1.37,2.76a2.47,2.47 0 0 0 1.85,2.65a7.84,7.84 0 0 0 3.57,-0.14a6.6,6.6 0 0 0 3.33,-1.53a1.45,1.45 0 0 0 -1.4,-2.41a6.61,6.61 0 0 0 -1.25,0.53a8.14,8.14 0 0 1 -1.4,0.44a5.61,5.61 0 0 1 -1.14,0.17l-0.68,0c-0.38,0 -0.1,0 -0.07,0c-0.18,0 -0.1,-0.1 -0.07,0l0.22,0.23l0.08,0.34c0,-0.06 0,-0.27 0,-0.07c0,-0.19 0,-0.1 0.11,-0.26a7,7 0 0 1 0.64,-0.91a8.77,8.77 0 0 1 1.6,-1.49a9,9 0 0 1 1.94,-1a8.45,8.45 0 0 1 1.12,-0.32l0.46,-0.08c-0.33,0.22 -0.75,-0.65 -0.78,-0.66s0,-0.07 0,0s0,0.09 0,0a8.25,8.25 0 0 1 -0.32,1.05a12,12 0 0 1 -0.51,1.16a10,10 0 0 0 -0.69,1.34a1.93,1.93 0 0 0 0.38,1.95a26.77,26.77 0 0 0 2.41,2.35c0.9,0.85 1.81,1.69 2.72,2.53a0.92,0.92 0 0 0 1.3,-1.31l0.01,0.05z"/>
  <path id="svg_8" d="m735.84,145.17l-4.63,-4.94a0.87,0.87 0 0 1 -0.3,-0.51a0.93,0.93 0 0 1 0.2,-0.52a13.05,13.05 0 0 0 1.42,-3.14c0.15,-0.49 0.19,-1.15 -0.26,-1.38a1.06,1.06 0 0 0 -0.66,0a9.69,9.69 0 0 0 -6.61,4.32c-0.35,0.55 -0.62,1.32 -0.19,1.81a1.56,1.56 0 0 0 1.15,0.37a9.26,9.26 0 0 0 4.85,-1.29"/>
  <path id="svg_9" d="m736.5,144.52c-0.77,-0.94 -1.52,-1.88 -2.29,-2.81c-0.38,-0.45 -0.76,-0.89 -1.13,-1.34l-0.57,-0.67c-0.09,-0.1 -0.18,-0.24 -0.28,-0.33s0,-0.05 0,0l0,0.73a4.36,4.36 0 0 1 0.59,-1a16.8,16.8 0 0 0 0.72,-1.55a4.46,4.46 0 0 0 0.45,-2.84c-0.69,-2.4 -3.72,-1.39 -5.33,-0.71a10.79,10.79 0 0 0 -4.22,3.16a5.47,5.47 0 0 0 -1.37,2.76a2.47,2.47 0 0 0 1.85,2.65a8,8 0 0 0 3.57,-0.14a6.53,6.53 0 0 0 3.33,-1.54a1.45,1.45 0 0 0 -1.4,-2.4a7.3,7.3 0 0 0 -1.25,0.52a7.52,7.52 0 0 1 -1.39,0.45a7.86,7.86 0 0 1 -1.14,0.17l-0.69,0c-0.38,0 -0.09,0 -0.06,0c-0.18,0 -0.11,-0.11 -0.08,0l0.22,0.24l0.08,0.33c0,-0.05 0,-0.26 0,-0.07c0,-0.19 0,-0.09 0.12,-0.26a6.61,6.61 0 0 1 0.63,-0.9a8.85,8.85 0 0 1 1.6,-1.5a9.35,9.35 0 0 1 1.94,-1a8.45,8.45 0 0 1 1.12,-0.32c0.12,0 0.44,-0.07 0.46,-0.09c-0.33,0.23 -0.75,-0.65 -0.78,-0.65c0,0.09 0,0.1 0,0a7,7 0 0 1 -0.32,1.06a10.83,10.83 0 0 1 -0.51,1.15a10.66,10.66 0 0 0 -0.68,1.35a1.91,1.91 0 0 0 0.37,1.95a29.7,29.7 0 0 0 2.41,2.35c0.9,0.85 1.81,1.68 2.72,2.52a0.92,0.92 0 0 0 1.31,-1.3l0,0.03z"/>
  <path id="svg_10" d="m748.64,134.61l-4.64,-4.94a1,1 0 0 1 -0.3,-0.52a0.93,0.93 0 0 1 0.2,-0.52a12.81,12.81 0 0 0 1.42,-3.13c0.15,-0.49 0.2,-1.16 -0.26,-1.38a1.14,1.14 0 0 0 -0.66,-0.05a9.69,9.69 0 0 0 -6.63,4.33c-0.34,0.56 -0.62,1.33 -0.19,1.81a1.57,1.57 0 0 0 1.16,0.38a9.32,9.32 0 0 0 4.85,-1.3"/>
  <path id="svg_11" d="m749.29,134c-0.76,-0.94 -1.52,-1.88 -2.29,-2.81c-0.37,-0.45 -0.75,-0.9 -1.13,-1.34l-0.57,-0.67a3,3 0 0 0 -0.28,-0.33c-0.21,-0.18 0,-0.05 0,0l0,0.72c0,-0.29 0.43,-0.69 0.59,-1a17,17 0 0 0 0.72,-1.56a4.4,4.4 0 0 0 0.45,-2.84c-0.69,-2.39 -3.72,-1.39 -5.33,-0.7a10.79,10.79 0 0 0 -4.22,3.16a5.39,5.39 0 0 0 -1.36,2.75a2.48,2.48 0 0 0 1.83,2.62a7.89,7.89 0 0 0 3.58,-0.15a6.48,6.48 0 0 0 3.32,-1.53a1.45,1.45 0 0 0 -1.4,-2.4a5.91,5.91 0 0 0 -1.24,0.52a8.74,8.74 0 0 1 -1.4,0.44a5.72,5.72 0 0 1 -1.14,0.17c-0.23,0 -0.46,0 -0.68,0c-0.39,0 -0.1,0 -0.07,0c-0.18,0 -0.11,-0.1 -0.08,0l0.22,0.23l0.08,0.34c0,-0.06 0.05,-0.27 0,-0.07c0,-0.19 0,-0.1 0.11,-0.26a7.84,7.84 0 0 1 0.63,-0.91a8.77,8.77 0 0 1 1.6,-1.49a9.19,9.19 0 0 1 1.94,-1a11,11 0 0 1 1.12,-0.32l0.47,-0.08c-0.34,0.22 -0.76,-0.65 -0.79,-0.65c0,0.09 0,0.1 0,0a7.31,7.31 0 0 1 -0.32,1.06a10.61,10.61 0 0 1 -0.51,1.15a11.23,11.23 0 0 0 -0.68,1.34a2,2 0 0 0 0.37,1.95a29.7,29.7 0 0 0 2.41,2.35c0.9,0.85 1.82,1.69 2.72,2.53a0.92,0.92 0 0 0 1.31,-1.3l0.02,0.08z"/>
  <path id="svg_12" d="m761.43,124l-4.64,-4.94a0.83,0.83 0 0 1 -0.29,-0.51a0.85,0.85 0 0 1 0.19,-0.52a12.39,12.39 0 0 0 1.43,-3.14c0.14,-0.49 0.19,-1.15 -0.27,-1.38a1,1 0 0 0 -0.65,0a9.65,9.65 0 0 0 -6.63,4.33c-0.35,0.55 -0.63,1.32 -0.19,1.81a1.53,1.53 0 0 0 1.15,0.37a9.21,9.21 0 0 0 4.85,-1.29"/>
  <path id="svg_13" d="m762.08,123.39c-0.76,-0.93 -1.52,-1.88 -2.29,-2.8l-1.13,-1.35l-0.56,-0.67a3,3 0 0 0 -0.29,-0.33c-0.21,-0.17 0,0 0,0l0,0.76a4.69,4.69 0 0 1 0.58,-1a12.8,12.8 0 0 0 0.72,-1.55a4.4,4.4 0 0 0 0.45,-2.84c-0.68,-2.39 -3.72,-1.39 -5.33,-0.71a10.89,10.89 0 0 0 -4.23,3.1a5.42,5.42 0 0 0 -1.36,2.76a2.47,2.47 0 0 0 1.84,2.65a8,8 0 0 0 3.58,-0.14a6.46,6.46 0 0 0 3.32,-1.54a1.45,1.45 0 0 0 -1.39,-2.4a7,7 0 0 0 -1.25,0.52a7.87,7.87 0 0 1 -1.4,0.45a6.41,6.41 0 0 1 -1.14,0.17l-0.68,0c-0.39,0 -0.1,0 -0.07,0c-0.18,0 -0.11,-0.11 -0.07,0l0.21,0.23l0.08,0.34c0,-0.06 0.05,-0.27 0,-0.08c0,-0.19 0,-0.09 0.11,-0.26a7.6,7.6 0 0 1 0.64,-0.9a8.24,8.24 0 0 1 1.6,-1.5a9.29,9.29 0 0 1 1.93,-1a8.91,8.91 0 0 1 1.12,-0.32c0.13,0 0.45,-0.07 0.47,-0.09c-0.34,0.23 -0.75,-0.64 -0.79,-0.65c0,0.08 0,0.09 0,0a7,7 0 0 1 -0.32,1.06a8.51,8.51 0 0 1 -0.51,1.16a11.23,11.23 0 0 0 -0.68,1.34a2,2 0 0 0 0.37,1.95a29.7,29.7 0 0 0 2.41,2.35c0.9,0.85 1.82,1.68 2.73,2.53a0.92,0.92 0 0 0 1.3,-1.31l0.03,0.07z"/>
  <path id="svg_14" d="m551.13,266.18c13.59,-0.6 26.15,6.79 37.3,14.59a340.71,340.71 0 0 1 34.36,27.54c2.76,2.52 5.62,5.32 6.42,9c0.75,3.39 -0.43,6.9 -1.77,10.11a92,92 0 0 1 -32.47,40c-3.41,2.35 -7.39,4.55 -11.47,3.86c-3.27,-0.56 -5.93,-2.87 -8.41,-5.09l-25.3,-22.68"/>
  <path id="svg_15" d="m551.13,267.11c13.67,-0.27 25.83,7.23 36.63,14.81a334.06,334.06 0 0 1 34,27.4c2.31,2.13 4.9,4.48 5.84,7.58c1,3.41 -0.26,7 -1.58,10.11a91,91 0 0 1 -28.24,36.48a43.36,43.36 0 0 1 -8.07,5.23a9.7,9.7 0 0 1 -10.13,-0.82c-3.25,-2.22 -6.08,-5.2 -9,-7.83l-19.71,-17.69c-1.48,-1.32 -3.67,0.86 -2.18,2.18l18.62,16.67c2.92,2.62 5.78,5.37 8.83,7.84c2.51,2 5.3,3.7 8.62,3.8c3.57,0.11 7,-1.58 9.88,-3.47a85.32,85.32 0 0 0 8.09,-6.07a93.88,93.88 0 0 0 24.16,-31.16c2.94,-6.16 6.08,-13.25 1.8,-19.56c-2,-2.91 -4.73,-5.2 -7.33,-7.52q-4.2,-3.73 -8.52,-7.35q-9,-7.46 -18.4,-14.32c-12.61,-9.14 -27,-19.1 -43.32,-18.18c-1.2,0.07 -1.22,1.9 0,1.87l0.01,0z"/>
  <path id="svg_16" d="m547.13,261.34c-16.06,-12.81 -36.32,-19.55 -56.7,-22.07s-41,-1.07 -61.47,1.08c-4.07,0.43 -8.3,0.94 -11.74,3.14c-6,3.87 -8,11.68 -9,18.76a218.42,218.42 0 0 0 5.84,91.65c2.86,10.12 6.46,20 9.48,30.09c1,3.19 1.87,6.48 1.54,9.79s-1.82,6.33 -1.93,9.59c-0.32,8.76 8.79,14.56 16.85,18c36.63,15.67 78.4,22.18 116.64,11a11.64,11.64 0 0 0 4.74,-2.26c4.42,-4.07 0.85,-11.17 -0.13,-17.09c-0.7,-4.26 0.15,-8.6 1,-12.83a859.28,859.28 0 0 0 12.4,-88.91c0.76,-8.72 1.32,-17.82 -2,-25.93c-3.78,-9.29 -12.06,-15.88 -20.22,-21.71"/>
  <path id="svg_17" d="m547.83,260.63a97.15,97.15 0 0 0 -25.47,-14.93a125.63,125.63 0 0 0 -29,-7.56a198,198 0 0 0 -33.9,-1.67c-5.75,0.17 -11.5,0.53 -17.24,1c-5.55,0.45 -11.14,0.87 -16.66,1.63c-4.73,0.66 -9.33,2.16 -12.57,5.83a26,26 0 0 0 -5.37,11.32a117.13,117.13 0 0 0 -2.25,14.91c-0.59,5.47 -1,11 -1.14,16.47a220.06,220.06 0 0 0 7.88,65.59c3.05,11 7.09,21.65 10.21,32.6a21,21 0 0 1 1.08,8c-0.29,2.66 -1.37,5.18 -1.76,7.82a14.75,14.75 0 0 0 3.28,11.46c5.53,7 14.88,10.22 22.91,13.28a209.63,209.63 0 0 0 30.25,9.07c20.36,4.43 41.48,5.65 62.1,2.37a138.21,138.21 0 0 0 15.18,-3.3c2.39,-0.66 4.94,-1.29 6.89,-2.91a8.2,8.2 0 0 0 2.8,-5.18c0.61,-4.26 -1.14,-8.46 -2,-12.55c-1.19,-5.53 0.28,-11.17 1.31,-16.61q6.36,-33.72 10,-67.87q0.93,-8.53 1.67,-17.09a98.84,98.84 0 0 0 0.5,-15.95a36.43,36.43 0 0 0 -3.89,-14.4a42.45,42.45 0 0 0 -8.75,-11a104.87,104.87 0 0 0 -10.75,-8.51c-1.49,-1.07 -2.92,1.4 -1.44,2.45c7.32,5.24 14.85,11.12 18.87,19.4c4.49,9.25 3.19,20.06 2.3,29.94q-3,33.28 -8.61,66.26q-1.39,8.22 -3,16.42c-1,5.21 -2.4,10.53 -1.68,15.87c0.55,4.09 2.42,8.09 2.26,12.26c-0.18,5 -5.46,5.73 -9.34,6.75c-19.42,5.08 -39.87,5.68 -59.7,2.89a197.49,197.49 0 0 1 -29.7,-6.62q-7.29,-2.21 -14.41,-4.93a102.76,102.76 0 0 1 -12.7,-5.51c-3.38,-1.85 -6.83,-4.15 -9.06,-7.38a11.69,11.69 0 0 1 -2.06,-5a16.52,16.52 0 0 1 0.86,-6.68a22,22 0 0 0 1,-7.64a38.06,38.06 0 0 0 -1.74,-7.87c-1.59,-5.27 -3.34,-10.48 -5,-15.71a263.91,263.91 0 0 1 -8.49,-31.35a215.51,215.51 0 0 1 -3.77,-31.63a220,220 0 0 1 0.9,-32.06a123.75,123.75 0 0 1 2.1,-14.46c0.86,-3.83 2.17,-7.85 4.88,-10.81c3.14,-3.43 7.64,-4.39 12.08,-4.91q8.24,-0.94 16.5,-1.59a263.69,263.69 0 0 1 33.49,-0.82c19.77,0.94 39.84,5.15 57.23,14.89a94.48,94.48 0 0 1 11.71,7.59c0.89,0.69 2.09,-0.86 1.21,-1.58l0,0.01z"/>
  <path id="svg_18" fill="#18c4ff" d="m609.55,378.49c-6,7.51 -19.35,4.51 -24.15,-3.79s-2.76,-19.06 1.88,-27.45c1.53,-2.77 3.39,-5.63 3.17,-8.78c-0.53,-7.44 -11,-9 -18.14,-6.93c-24,7 -41.34,32.34 -39.19,57.31c1.32,15.37 9,31.53 2.27,45.43c-3.8,7.9 -11.5,13.11 -19.12,17.45c-16.57,9.47 -35.25,17.51 -45.65,33.52c-10.6,16.31 -10,38.25 -1.65,55.82s23.41,31.19 40,41.34c25.36,15.49 56.55,23.82 85.21,15.94s52.88,-34.82 51.5,-64.5c-0.92,-19.94 -12.4,-40.6 -4.14,-58.76c7.12,-15.64 25.84,-22 37.55,-34.57a47,47 0 0 0 12.08,-25.52c0.62,-4.54 0.41,-9.59 -2.55,-13.09c-4.72,-5.59 -13.86,-4.32 -20.14,-0.57s-11.46,9.43 -18.31,12c-4.1,1.52 -9.58,1.37 -11.84,-2.37a10.45,10.45 0 0 1 -1.15,-5.36a38.49,38.49 0 0 1 5.3,-19.83"/>
  <path id="svg_19" fill="#18c4ff" d="m608.84,377.78c-3.6,4.18 -9.52,4.56 -14.43,2.71c-5.92,-2.23 -9.49,-7.58 -10.24,-13.76c-0.92,-7.49 1.9,-14.36 5.41,-20.78c1.6,-2.92 2.94,-6.23 1.87,-9.57a9.16,9.16 0 0 0 -4.55,-5.21c-4.59,-2.43 -10.46,-2.33 -15.33,-0.87a52.79,52.79 0 0 0 -16.78,8.6a59.88,59.88 0 0 0 -21.16,30.79a53.2,53.2 0 0 0 -2,18.78c0.59,7.58 2.62,15 3.94,22.43s1.91,15.26 -1.27,22.22c-2.94,6.45 -8.58,11 -14.46,14.7c-11.64,7.28 -24.42,12.6 -35.49,20.83a63.15,63.15 0 0 0 -14.35,14.35a50.38,50.38 0 0 0 -8,19.33c-2.68,14.08 -0.07,28.86 6.41,41.56s16.39,23.18 27.59,31.77c23.36,17.91 53.77,29.81 83.54,27.09a78.1,78.1 0 0 0 38.11,-13.64a72.54,72.54 0 0 0 24.35,-28.71a60.06,60.06 0 0 0 5.09,-18.2c0.78,-7 -0.06,-14.08 -1.44,-21c-2.79,-14.05 -8.71,-29.45 -3.44,-43.63c4.47,-12 16.31,-18.8 26.16,-25.93c5.26,-3.8 10.37,-7.88 14.39,-13a48.73,48.73 0 0 0 9.31,-19.73c1.36,-6.31 2,-14.4 -3.33,-19.15c-4.65,-4.16 -11.6,-3.85 -17.1,-1.75c-6.57,2.52 -11.47,7.78 -17.37,11.43c-2.73,1.68 -5.74,3.14 -9,3.16c-3,0 -5.66,-1.28 -6.29,-4.44c-0.7,-3.51 -0.08,-7.58 0.71,-11a37.66,37.66 0 0 1 4.17,-10.54a1.65,1.65 0 0 0 -2.84,-1.67c-3.82,6.59 -6.17,14.73 -5.44,22.39c0.29,3.12 1.62,6 4.55,7.45a13,13 0 0 0 8.75,0.64c6.76,-1.62 12,-6.9 17.49,-10.78c4.79,-3.38 11,-6.22 17,-4.33c7,2.22 7,10.5 5.9,16.45a45.83,45.83 0 0 1 -8.71,19.6c-7.82,10.14 -19.7,15.83 -29.28,24a41.15,41.15 0 0 0 -11.11,13.92c-3,6.55 -3.62,13.75 -2.94,20.86c1.39,14.54 7.4,28.53 6.76,43.29c-1.09,25.3 -20.76,47.21 -43.69,56.05c-27.69,10.68 -59.27,3.66 -84.52,-10.17c-24.24,-13.27 -47.6,-34.83 -50.92,-63.74c-1.57,-13.71 1.49,-27.89 10.39,-38.68c8.75,-10.56 20.95,-17.26 32.75,-23.76c11.53,-6.35 25.49,-13 30,-26.39c4.89,-14.49 -2.6,-29.53 -3.52,-44.05c-0.78,-12.46 3.33,-24.85 10.63,-34.9a55.47,55.47 0 0 1 13.57,-13.21c4.85,-3.31 10.59,-6.29 16.44,-7.25c4.22,-0.69 10.86,-0.39 13.25,3.85c1.64,2.91 0.07,6.15 -1.39,8.78a48.66,48.66 0 0 0 -4.37,9.94c-1.89,6.58 -2,14 1.42,20.09a18.1,18.1 0 0 0 12.82,8.75c5,0.81 10.19,-0.45 13.4,-4.55c0.77,-1 -0.56,-2.41 -1.42,-1.42l0.01,0z"/>
  <path id="svg_20" fill="#fff" d="m561.89,266.77a239.24,239.24 0 0 1 25,66.87c0.35,1.68 0.74,3.47 2,4.68c2.4,2.38 6.83,1 8.67,-1.83s1.8,-6.47 1.55,-9.85a123.92,123.92 0 0 0 -35.11,-77.26"/>
  <path id="svg_21" d="m561.13,267.22a274.37,274.37 0 0 1 16.37,37.31q3.27,9.5 5.73,19.24q1.24,4.86 2.29,9.78c0.53,2.52 1.18,5.33 3.66,6.65a7.12,7.12 0 0 0 6.7,-0.39a9.27,9.27 0 0 0 4.29,-6.29a29.63,29.63 0 0 0 0.1,-8.92c-0.27,-3 -0.65,-5.93 -1.12,-8.87a126.11,126.11 0 0 0 -21.15,-51.73q-2.92,-4.15 -6.17,-8.06a60.78,60.78 0 0 0 -7,-7.46a1.23,1.23 0 0 0 -1.73,1.74c3.67,4.43 7.64,8.53 11.06,13.18a123.63,123.63 0 0 1 21,46.21a117.48,117.48 0 0 1 2.51,16.79c0.2,2.75 0.4,5.75 -0.76,8.33a5.58,5.58 0 0 1 -5.4,3.43c-2.76,-0.32 -3.11,-3.62 -3.58,-5.8c-0.67,-3.12 -1.4,-6.23 -2.21,-9.32q-2.37,-9.06 -5.44,-17.9a215.57,215.57 0 0 0 -17.68,-38.84a0.89,0.89 0 0 0 -1.53,0.89l0.06,0.03z"/>
  <path id="svg_22" d="m423.14,326.33a361.39,361.39 0 0 1 -40.42,-25.26c-2.41,-1.73 -4.87,-3.57 -6.41,-6.11s-2,-5.65 -2.33,-8.65a84.58,84.58 0 0 1 21.24,-64a14.93,14.93 0 0 1 5,-4c3.89,-1.63 8.31,-0.05 12.23,1.51l56.37,22.54"/>
  <path id="svg_23" d="m423.58,325.58a400,400 0 0 1 -36.74,-23.16c-2.69,-1.91 -5.6,-3.75 -7.86,-6.18s-3.15,-5.74 -3.51,-9.07a81.05,81.05 0 0 1 0.2,-18.68a83.89,83.89 0 0 1 12.68,-34.85a77.26,77.26 0 0 1 5.51,-7.56c1.9,-2.3 4,-5.15 6.77,-6.41c3.15,-1.42 6.79,-0.27 9.83,0.86c3.51,1.31 7,2.77 10.42,4.18l23.52,9.56c8,3.24 16,6.58 24,9.58c1.71,0.63 2.94,-2.24 1.25,-3c-7.44,-3.19 -15,-6.09 -22.55,-9.07s-14.81,-5.82 -22.21,-8.73c-3.7,-1.46 -7.4,-2.91 -11.1,-4.39c-3.25,-1.3 -6.66,-2.71 -10.23,-2.61s-6.21,1.82 -8.56,4.26a72.57,72.57 0 0 0 -6.2,7.48a86,86 0 0 0 -15.24,35.47a83.37,83.37 0 0 0 -1.28,19.57c0.2,3.37 0.41,6.94 1.59,10.14a17,17 0 0 0 5.92,7.55a238.65,238.65 0 0 0 20.7,13.95q10.85,6.72 22.18,12.57c1,0.52 1.87,-0.95 0.88,-1.5l0.03,0.04z"/>
  <path id="svg_24" fill="#18c4ff" d="m524.64,233.11a62.71,62.71 0 0 0 1.44,20.48c2.7,11.27 9.42,22.47 20.28,26.51c2.72,1 5.84,1.53 8.5,0.36a10.69,10.69 0 0 0 4.82,-4.81a19.39,19.39 0 0 0 -0.68,-19.65c0.67,2.61 4,3.9 6.55,3s4.18,-3.49 4.75,-6.14a23.18,23.18 0 0 0 -0.14,-8.05c-0.6,1.91 2.1,3.52 3.94,2.71s2.71,-2.91 3.18,-4.85c2,-8.15 0.14,-16.71 -2.15,-24.78a239.4,239.4 0 0 0 -18.33,-45.89c-1.44,-2.74 -3.32,-5.74 -6.36,-6.27c-4.05,-0.72 -7.21,3.23 -10.85,5.14"/>
  <path id="svg_25" fill="#18c4ff" d="m523.61,233.11c-1.35,13 0.95,27.39 9,38a30.12,30.12 0 0 0 13.39,10.39c3.06,1.15 6.58,1.63 9.64,0.24c2.83,-1.28 4.8,-4 6,-6.73a21,21 0 0 0 -1.38,-19.74a1.51,1.51 0 0 0 -2.74,1.15c1.35,4.47 7,5.53 10.5,2.89c4.67,-3.54 4.27,-9.73 3.57,-14.91c-0.2,-1.51 -2.6,-1.37 -2.92,0c-0.73,3.13 2.64,5.5 5.52,4.7c3.45,-1 4.54,-5.23 5,-8.29c1.4,-8.43 -0.65,-16.86 -3,-24.93a239.54,239.54 0 0 0 -8.3,-23.81q-2.37,-5.82 -5.05,-11.51a121.91,121.91 0 0 0 -5.55,-11c-1.86,-3.12 -4.72,-6 -8.65,-5.56s-6.63,3.62 -9.9,5.49c-1.78,1 -0.21,3.66 1.59,2.74c2.51,-1.29 4.59,-3.44 7.2,-4.52s4.81,0.41 6.29,2.6a72,72 0 0 1 4.65,8.77q2.36,4.83 4.5,9.76c2.85,6.58 5.4,13.3 7.64,20.11s4.46,13.73 5.44,20.82a33.6,33.6 0 0 1 -0.24,12c-0.31,1.39 -0.72,3.16 -2,4c-0.58,0.43 -2.57,0.47 -2.31,-0.64l-2.92,0c0.49,3.61 1,8.08 -1.69,11a4.34,4.34 0 0 1 -3.73,1.56a3.26,3.26 0 0 1 -2.84,-2.14l-2.73,1.15a18.18,18.18 0 0 1 1.82,15.64c-0.86,2.46 -2.37,5.12 -4.72,6.42c-2.71,1.5 -6,0.69 -8.74,-0.41c-9.67,-3.95 -15.44,-13.78 -18.24,-23.39a61.06,61.06 0 0 1 -2.15,-21.93c0.1,-1.33 -1.92,-1.3 -2.06,0l0.11,0.08z"/>
  <path id="svg_26" fill="#fff" d="m525.15,240.48l-6.79,19.65a3.16,3.16 0 0 1 -0.63,1.22a3.23,3.23 0 0 1 -2.45,0.71a40.43,40.43 0 0 1 -29.54,-13.36a8,8 0 0 1 -2.3,-4.16a9,9 0 0 1 1.18,-4.62a205.23,205.23 0 0 0 12.54,-36.64"/>
  <path id="svg_27" fill="#fff" d="m559.09,182.45c0,-3.29 3.5,-26.35 -21.19,-30.64a40.77,40.77 0 0 0 -27.09,5a70.62,70.62 0 0 0 -7.38,4.86c-25.46,19.08 -9.75,72 22.75,78.29c20.34,3.93 27.88,-15.56 31.15,-32c1.67,-8.36 1.67,-16.96 1.76,-25.51z"/>
  <path id="svg_28" d="m525.84,241.21c5.21,1 10.57,0.68 15.34,-1.81a26.11,26.11 0 0 0 10,-10a57,57 0 0 0 5.82,-14.47a94.54,94.54 0 0 0 3.09,-20.14c0.24,-4.81 0.12,-9.63 0.36,-14.44a42.5,42.5 0 0 0 -0.32,-8.13c-1.15,-8 -5.54,-15.09 -12.91,-18.76c-12.63,-6.3 -27.89,-3.51 -39.45,3.72c-1.71,1.07 -3.37,2.22 -5,3.43c-1.29,1 0,3.16 1.27,2.18c6,-4.43 12.45,-8 19.79,-9.52a36.44,36.44 0 0 1 19.34,1.21a21.61,21.61 0 0 1 10.13,7.15a23,23 0 0 1 4,9.26a34.75,34.75 0 0 1 0.63,8c-0.07,3 -0.16,5.9 -0.2,8.86c-0.17,12.25 -1.44,24.87 -6.59,36.14c-2.1,4.59 -5,9.12 -9.19,12c-4.58,3.17 -10.08,3.83 -15.49,2.82c-1.59,-0.3 -2.27,2.14 -0.67,2.44l0.05,0.06z"/>
  <path id="svg_29" d="m539.25,193.22l0,4.92a11.49,11.49 0 0 0 0.15,2a3.7,3.7 0 0 0 1.19,2.07a2.31,2.31 0 0 1 0.56,2.56c-0.54,1.19 -1.77,1.15 -2.65,2c-1.55,1.52 0.85,3.92 2.39,2.39c-0.12,0.12 0.18,-0.12 0.09,-0.07l0.56,-0.23a5.29,5.29 0 0 0 0.91,-0.56a5.78,5.78 0 0 0 1.48,-1.67a5.33,5.33 0 0 0 0.24,-4.78a5.44,5.44 0 0 0 -1.34,-1.88a9.91,9.91 0 0 0 -1,-0.75c-0.28,-0.2 -0.27,-0.25 -0.32,-0.6c-0.27,-1.8 -0.37,-3.63 -0.51,-5.44c-0.08,-1.14 -1.81,-1.17 -1.79,0l0.04,0.04z"/>
  <path id="svg_30" d="m500.61,193l-0.2,0.09a1,1 0 0 1 0.25,-0.07l-0.24,0l0.34,0l-0.25,0a2.26,2.26 0 0 1 0.49,0.14l-0.25,-0.1a1.79,1.79 0 0 1 0.38,0.22l-0.21,-0.17a1.94,1.94 0 0 1 0.32,0.32l-0.17,-0.22a2.84,2.84 0 0 1 0.34,0.58l-0.11,-0.27a5.62,5.62 0 0 1 0.32,1.22l0,-0.32a0.76,0.76 0 0 1 0,0.26l0,-0.32a1.21,1.21 0 0 1 0,0.18l0.12,-0.29a0.21,0.21 0 0 1 -0.06,0.1l0.2,-0.25l-0.06,0l0.25,-0.19l0.29,-0.12l-0.05,0l0.33,0l-0.05,0l0.33,0l0.87,0.87c0,-0.11 -0.06,-0.21 -0.08,-0.31l0.05,0.33a2.16,2.16 0 0 1 0,-0.36l-0.05,0.34a1.6,1.6 0 0 1 0.11,-0.39l-0.14,0.31a1.63,1.63 0 0 0 0.22,-0.75a2.32,2.32 0 0 0 -0.06,-0.45a1.25,1.25 0 0 0 -0.57,-0.74a1.18,1.18 0 0 0 -0.95,-0.12a1.69,1.69 0 0 0 -0.65,0.37a1.51,1.51 0 0 0 -0.38,0.66a3.28,3.28 0 0 0 -0.1,0.7a2.68,2.68 0 0 0 0.3,1.33a1.37,1.37 0 0 0 2.18,0.2a1.51,1.51 0 0 0 0.39,-0.71a1.94,1.94 0 0 0 0,-0.59a3.61,3.61 0 0 0 -0.23,-1a7,7 0 0 0 -0.42,-0.93a3.19,3.19 0 0 0 -0.62,-0.8a3,3 0 0 0 -1,-0.61a2.17,2.17 0 0 0 -2.21,0.4a0.88,0.88 0 0 0 -0.06,1.15a0.84,0.84 0 0 0 0.45,0.31a1,1 0 0 0 0.67,-0.09l-0.03,0.09z"/>
  <path id="svg_31" d="m524.34,240a89.25,89.25 0 0 0 -4,10.43l-1.81,5.14l-0.82,2.34c-0.24,0.7 -0.45,2.11 -1.05,2.58c-0.82,0.62 -2.83,0.2 -3.78,0.14a36.31,36.31 0 0 1 -4.76,-0.65a38.82,38.82 0 0 1 -8.72,-2.83a40,40 0 0 1 -7.48,-4.49c-2.34,-1.79 -5,-4 -6.54,-6.56a4.81,4.81 0 0 1 0,-4.61c0.65,-1.62 1.42,-3.2 2.1,-4.81q2.12,-4.94 4,-10c2.78,-7.55 5,-15.27 7.13,-23c0.49,-1.81 -2.41,-2.59 -2.8,-0.77a165.82,165.82 0 0 1 -6.69,22.66c-1.37,3.74 -2.84,7.45 -4.44,11.1c-1.38,3.18 -3.54,6.58 -1.89,10.07c1.36,2.88 4.22,5.32 6.66,7.28a42.17,42.17 0 0 0 17.25,8.39a30.41,30.41 0 0 0 9.63,1a3.8,3.8 0 0 0 3.36,-2.87c0.78,-2.16 1.48,-4.37 2.22,-6.56s1.51,-4.37 2.22,-6.56a62.33,62.33 0 0 0 2,-6.64c0.2,-1 -1.2,-1.72 -1.71,-0.72l-0.08,-0.06z"/>
  <path id="svg_32" d="m548.22,194.92a1.21,1.21 0 0 0 0.16,-0.61a1.47,1.47 0 0 0 -0.17,-0.62l0.1,0.24a1.48,1.48 0 0 0 -0.37,-0.61a1.17,1.17 0 0 0 -0.56,-0.34a3.05,3.05 0 0 0 -0.41,0a1.61,1.61 0 0 0 -0.78,0.23a2,2 0 0 0 -0.59,0.59a2,2 0 0 0 -0.24,0.51a2.76,2.76 0 0 0 -0.08,0.27a3.55,3.55 0 0 0 -0.06,0.47a1.68,1.68 0 0 0 0,0.45a0.57,0.57 0 0 0 0,0.14a1.43,1.43 0 0 0 0.19,0.42l0.2,0.26a1,1 0 0 0 0.41,0.27a0.72,0.72 0 0 0 0.32,0.08a1,1 0 0 0 0.51,0l0.17,-0.07l0.16,-0.07l0.13,-0.11l0.14,-0.11l0.2,-0.25c0,-0.1 0.1,-0.23 0.14,-0.33a1,1 0 0 0 0,-0.51a1,1 0 0 0 -0.15,-0.48a1,1 0 0 0 -0.33,-0.36a1,1 0 0 0 -0.43,-0.22l-0.34,-0.05a1.31,1.31 0 0 0 -0.65,0.17l-0.26,0.2a1.26,1.26 0 0 0 -0.33,0.57l0.13,-0.3l0.2,-0.25l-0.05,0l0.26,-0.2l0.3,-0.13l1.45,0.59a0.41,0.41 0 0 1 -0.07,-0.11l0.13,0.3a0.57,0.57 0 0 1 0,-0.14l0,0.34l-0.06,-0.41l0,0.33a1.53,1.53 0 0 1 0,-0.37l0,0.33a1,1 0 0 1 0.07,-0.29l-0.12,0.28l0.08,-0.13l-0.19,0.24l0.1,-0.1l-0.24,0.19l0.07,-0.05l-0.28,0.12l0.1,0l-0.31,0a2,2 0 0 0 0.38,-0.05l0.07,0l-0.3,0l0.1,0l-0.28,0l-0.25,-0.11l-0.21,-0.16l-0.16,-0.2a0.08,0.08 0 0 1 0,0l-0.1,-0.24a0.14,0.14 0 0 1 0,0.07l0.1,0.23l0.15,0.2l0.2,0.15a0.77,0.77 0 0 0 0.36,0.12a0.57,0.57 0 0 0 0.26,0a0.55,0.55 0 0 0 0.25,-0.07a0.46,0.46 0 0 0 0.21,-0.13a0.72,0.72 0 0 0 0.25,-0.27l0.32,0.09z"/>
  <path id="svg_33" d="m527.19,192.44a1.46,1.46 0 0 0 0.16,-0.61a1.39,1.39 0 0 0 -0.18,-0.63l0.11,0.25a1.49,1.49 0 0 0 -0.38,-0.62a1.23,1.23 0 0 0 -0.56,-0.33a1.4,1.4 0 0 0 -0.41,-0.05a1.57,1.57 0 0 0 -0.78,0.23a1.92,1.92 0 0 0 -0.59,0.58a2.71,2.71 0 0 0 -0.24,0.52a2,2 0 0 0 -0.07,0.26a4,4 0 0 0 -0.06,0.47a1.72,1.72 0 0 0 0,0.46a0.74,0.74 0 0 0 0,0.14a1.6,1.6 0 0 0 0.2,0.42l0.2,0.26a0.93,0.93 0 0 0 0.41,0.26a0.59,0.59 0 0 0 0.32,0.09a1,1 0 0 0 0.51,0l0.17,-0.07l0.16,-0.07l0.14,-0.1l0.14,-0.11l0.19,-0.26a3.05,3.05 0 0 0 0.13,-0.32a1,1 0 0 0 0,-0.51a1,1 0 0 0 -0.16,-0.48a1,1 0 0 0 -0.32,-0.36a1,1 0 0 0 -0.44,-0.23l-0.34,0a1.3,1.3 0 0 0 -0.64,0.17l-0.26,0.2a1.26,1.26 0 0 0 -0.33,0.57l0.13,-0.3l0.2,-0.26s0,0 0,0.05l0.26,-0.2l0.31,-0.13l1.44,0.59a0.6,0.6 0 0 1 -0.06,-0.11l0.13,0.3a0.74,0.74 0 0 1 0,-0.14l0,0.34c0,-0.14 0,-0.28 0,-0.42l0,0.34a1.53,1.53 0 0 1 0,-0.37l0,0.33a1.67,1.67 0 0 1 0.08,-0.3l-0.12,0.29a0.54,0.54 0 0 1 0.07,-0.13l-0.18,0.24a0.28,0.28 0 0 1 0.09,-0.1l-0.24,0.19l0.08,0l-0.28,0.12l0.09,0l-0.31,0a1.36,1.36 0 0 0 0.38,0l0.08,0l-0.3,0l0.1,0l-0.28,0l-0.24,-0.11l-0.21,-0.16l-0.16,-0.2l-0.1,-0.24s0,0 0,0.06l0.09,0.24l0.16,0.19l0.19,0.16a0.72,0.72 0 0 0 0.37,0.11a0.39,0.39 0 0 0 0.26,0a0.5,0.5 0 0 0 0.24,-0.06a0.61,0.61 0 0 0 0.22,-0.13a0.81,0.81 0 0 0 0.25,-0.27l0.18,-0.05z"/>
  <path id="svg_34" d="m535.25,217.29c-2.3,-1.3 -5.93,-2.69 -8.23,-4a2.74,2.74 0 0 0 -2.26,-0.49a2.23,2.23 0 0 0 -1.11,2.05a8.29,8.29 0 0 0 2.38,5.82a6.47,6.47 0 0 0 2.07,1.61a3.16,3.16 0 0 0 2.57,0.06c1.37,-0.63 1.86,-2.3 2.2,-3.77l0.4,-1.75"/>
  <path id="svg_35" d="m535.72,216.48c-2,-1.24 -4.1,-2.23 -6.19,-3.28a25.82,25.82 0 0 0 -3.19,-1.62a2.89,2.89 0 0 0 -3.53,1.32c-1.26,2.21 -0.19,5.32 1.12,7.25c1.43,2.12 3.78,4.32 6.56,3.67c3,-0.69 3.52,-4.13 4.06,-6.64a1.32,1.32 0 0 0 -2.55,-0.7c-0.24,1 -0.43,2 -0.73,2.94a3,3 0 0 1 -1,1.63c-1.43,0.91 -3.13,-1 -3.87,-2a7.81,7.81 0 0 1 -1.24,-2.48a5.07,5.07 0 0 1 -0.18,-1.22a2.38,2.38 0 0 1 0.12,-1s0.2,-0.32 0.1,-0.21c0.1,-0.11 0,-0.07 0.11,-0.08a2.62,2.62 0 0 1 1.19,0.47c0.77,0.4 1.57,0.77 2.37,1.12c2,0.87 4,1.55 5.9,2.5a0.94,0.94 0 0 0 0.94,-1.62l0.01,-0.05z"/>
  <path id="svg_36" d="m524.33,183.68a1.38,1.38 0 0 1 0.59,0.18c0.38,0.17 0.77,0.31 1.15,0.47l1.87,0.74l1.87,0.74a8.39,8.39 0 0 0 2.32,0.75a1.63,1.63 0 0 0 1.55,-1.18a1.66,1.66 0 0 0 -0.74,-1.82a8.25,8.25 0 0 0 -2.31,-0.7l-2.17,-0.54l-2.09,-0.52a4.46,4.46 0 0 0 -2.32,-0.14a1,1 0 0 0 0.28,2l0,0.02z"/>
  <path id="svg_37" d="m552.78,184.76a10.61,10.61 0 0 0 -1.49,0l-1.5,0.06c-0.51,0 -1,0 -1.51,0a11,11 0 0 0 -1.52,-0.05a2,2 0 0 0 -1.26,0.53a1.79,1.79 0 0 0 1.26,3.06a8.21,8.21 0 0 0 2,-0.22c0.49,-0.08 1,-0.17 1.47,-0.28s1,-0.23 1.46,-0.36a7.54,7.54 0 0 0 1.65,-0.71a1.07,1.07 0 0 0 0.49,-1.21a1.12,1.12 0 0 0 -1,-0.78l-0.05,-0.04z"/>
  <g id="svg_38" fill="#18c4ff">
   <path id="svg_39" d="m545.87,154.09c-1.09,5.95 -4.88,11 -8.9,15.55c-6.81,7.67 -20.47,13.28 -30.08,16.89c-1.17,0.44 3.15,2.16 2,1.66s-1.72,-2.29 -0.69,-3a11,11 0 0 1 0.62,6.65c0.43,-4.15 -3.58,-8 -7.75,-7.84s-7.71,4 -8.05,8.13a10.93,10.93 0 0 0 6,10.18a59.26,59.26 0 0 0 4.18,25.25c1.27,3.14 2.84,6.47 2.1,9.78s-5.24,5.79 -7.6,3.35a27.46,27.46 0 0 1 0.88,18.74c-0.43,1.37 -1.09,2.82 -2.4,3.39c-2.16,0.94 -4.4,-1 -5.92,-2.84a32.87,32.87 0 0 1 -3.35,20.08c-2.18,4.17 -6.06,8.21 -10.75,7.84c-3.9,-0.3 -6.9,-3.56 -8.94,-6.89a38.27,38.27 0 0 1 -4.95,-12.78a11.63,11.63 0 0 1 -2.5,4.89c-1.95,-1.63 -2.69,-4.27 -3.18,-6.77a73.28,73.28 0 0 1 9.29,-52c-0.69,1.74 -3.57,1.35 -4.49,-0.28s-0.47,-3.67 0.12,-5.45c3.55,-10.89 10.91,-20.05 18.11,-29a6.72,6.72 0 0 1 -3.22,2.38c-1.3,0.3 -2.94,-0.55 -2.93,-1.89a3.17,3.17 0 0 1 0.54,-1.52a61.68,61.68 0 0 1 20.46,-21.59a15.26,15.26 0 0 0 3.24,-2.45c0.6,-0.67 1.06,-1.46 1.62,-2.18c1.87,-2.42 4.71,-3.87 7.55,-5a56.18,56.18 0 0 1 36.29,-1.85c2.53,0.73 5.26,1.86 6.32,4.26a5.17,5.17 0 0 1 -4,6.91"/>
   <path id="svg_40" d="m545,153.84c-1,4.61 -3.57,8.66 -6.54,12.27a40.57,40.57 0 0 1 -9,8.25c-6.89,4.54 -14.56,7.75 -22.26,10.65c-0.8,0.3 -1.62,0.56 -1.77,1.52a1.83,1.83 0 0 0 0.78,1.65a6.17,6.17 0 0 0 2.93,1.44a1.35,1.35 0 0 0 0.67,-2.49c-0.34,-0.17 -1.07,-0.61 -0.62,-1l-2.24,-0.59a10.16,10.16 0 0 1 0.62,5.94l2.65,0.36a8.82,8.82 0 0 0 -5.38,-8.45a9,9 0 0 0 -9.64,1.74c-6.12,5.4 -3.48,14.76 3.13,18.39l-0.7,-1.21a59.6,59.6 0 0 0 3.35,23.49c1.21,3.38 3.77,7.42 2.91,11.14c-0.44,1.87 -3.27,4.43 -5.11,2.69c-1,-1 -3.11,0 -2.51,1.46a26.42,26.42 0 0 1 1.82,13.7c-0.26,1.87 -0.59,4.63 -1.87,6.12c-1.56,1.8 -3.85,-0.87 -4.84,-2c-1.14,-1.32 -2.8,0.15 -2.6,1.51c1,7.21 -0.44,15.5 -4.83,21.44c-1.82,2.46 -4.66,4.84 -7.93,4.43s-5.73,-3.42 -7.36,-6.08a37.41,37.41 0 0 1 -4.76,-12.39c-0.32,-1.66 -2.83,-1.54 -3.22,0a10.67,10.67 0 0 1 -2.07,4.15l2.37,0c-2.69,-2.38 -3,-6.83 -3.45,-10.17a71.28,71.28 0 0 1 -0.57,-11.59a72.36,72.36 0 0 1 4.57,-23.08a70,70 0 0 1 5.83,-11.92l-2.91,-1.7c-0.31,0.65 -1.27,0.18 -1.59,-0.28c-0.84,-1.23 0,-3.34 0.43,-4.57a54.75,54.75 0 0 1 4.62,-10c3.69,-6.36 8.31,-12.11 12.93,-17.81c1.34,-1.65 -0.89,-4 -2.39,-2.39c-0.42,0.46 -2.33,2.74 -3.13,1.74c-0.39,-0.49 1.64,-3.18 2,-3.76a59.46,59.46 0 0 1 6,-7.78a61.13,61.13 0 0 1 7.36,-6.85q1.77,-1.38 3.65,-2.63a26.49,26.49 0 0 0 4.34,-3.09c1.11,-1.11 1.82,-2.55 2.95,-3.65a15.91,15.91 0 0 1 4.31,-2.78a48.23,48.23 0 0 1 9.94,-3.27a54.3,54.3 0 0 1 21.25,-0.51a49.58,49.58 0 0 1 5.64,1.31a10.37,10.37 0 0 1 4.37,2.12a3.08,3.08 0 0 1 0.88,3.33a3.54,3.54 0 0 1 -2.51,2.45a1.68,1.68 0 0 0 -1.62,1.63a1.63,1.63 0 0 0 1.62,1.62a6.88,6.88 0 0 0 6.09,-6.59c0.13,-3.88 -3.27,-6.23 -6.54,-7.4c-8,-2.86 -17.13,-3.23 -25.47,-2.06a56.15,56.15 0 0 0 -12.7,3.31c-3.77,1.49 -7.12,3.34 -9.51,6.7c-1.28,1.8 -2.94,2.76 -4.75,4c-1.66,1.1 -3.26,2.29 -4.81,3.54a62.39,62.39 0 0 0 -8.64,8.48a65.25,65.25 0 0 0 -4,5.26c-1.18,1.73 -2.91,3.85 -3.3,5.94a3.7,3.7 0 0 0 3.16,4.17c2.37,0.45 4.27,-1.18 5.77,-2.8l-2.39,-2.39c-5.78,7.14 -11.65,14.38 -15.69,22.69a57.71,57.71 0 0 0 -2.58,6.19c-0.71,2 -1.36,4.3 -0.71,6.44c1,3.21 6.14,5 7.89,1.41a1.69,1.69 0 0 0 -2.91,-1.7a75,75 0 0 0 -10.27,48.29c0.55,4.24 1,9.51 4.43,12.53a1.68,1.68 0 0 0 2.37,0a14.28,14.28 0 0 0 2.92,-5.62l-3.22,0a40,40 0 0 0 4.9,12.78c2,3.37 4.9,6.8 8.88,7.8c8.72,2.18 14.3,-7.65 16.34,-14.56a35.06,35.06 0 0 0 1,-15.14l-2.6,1.52c1.71,2 4.23,4.16 7.07,3.36s3.69,-3.82 4.29,-6.28a29.1,29.1 0 0 0 -1.37,-17.87l-2.51,1.46c2.52,2.38 6.3,1.42 8.45,-1c2.83,-3.15 1.94,-7.52 0.55,-11.11a78.94,78.94 0 0 1 -4.16,-13.08a59.94,59.94 0 0 1 -1.06,-14.27a1.39,1.39 0 0 0 -0.7,-1.22c-4.89,-2.58 -7.32,-9.21 -3.11,-13.55a6.37,6.37 0 0 1 6.84,-1.8a6.21,6.21 0 0 1 4.06,6.1a1.35,1.35 0 0 0 2.64,0.36a12.72,12.72 0 0 0 -0.63,-7.37a1.36,1.36 0 0 0 -2.24,-0.59c-1.79,1.58 -0.73,4.28 1.16,5.2l0.68,-2.48c0.36,0 0.59,0.22 0.25,0a5.2,5.2 0 0 0 -0.53,-0.26c-0.2,-0.1 -0.4,-0.2 -0.59,-0.32c-0.52,-0.31 -0.38,-0.43 -0.54,0.53c-0.22,1.36 -0.27,0.66 0.33,0.62a2.07,2.07 0 0 0 0.47,-0.18l1.27,-0.49c0.88,-0.34 1.76,-0.68 2.64,-1c3.58,-1.44 7.12,-3 10.56,-4.71a63.74,63.74 0 0 0 10,-6.11a42.64,42.64 0 0 0 7.73,-7.92a29.17,29.17 0 0 0 6.11,-12.73c0.21,-1.18 -1.57,-1.71 -1.83,-0.5l0.01,-0.08z"/>
   <path id="svg_41" d="m547.24,151.31a41.26,41.26 0 0 0 -2.19,11.2a17.22,17.22 0 0 0 3,10.67a3.12,3.12 0 0 0 1.87,1.39a1.43,1.43 0 0 0 1.62,-1.37a19.2,19.2 0 0 0 10.46,12.32a4.06,4.06 0 0 0 2.74,0.4c1.39,-0.41 2.22,-2 2.54,-3.55c1,-4.84 -1.45,-9.61 -4,-13.6a10.08,10.08 0 0 0 2.9,3.12a1.94,1.94 0 0 0 1,0.41c1,0 1.61,-1.3 1.7,-2.42c0.4,-4.62 -2.8,-8.48 -5.62,-11.88a38.18,38.18 0 0 0 -5.14,-5.54a9.67,9.67 0 0 0 -6.75,-2.45a6.43,6.43 0 0 0 -5.56,4.53"/>
   <path id="svg_42" d="m546.39,151.07c-1.89,5.62 -3.4,11.54 -1.92,17.44c0.56,2.28 1.62,4.93 3.43,6.5s4.74,0.81 5,-1.81l-2.69,0.36a21.37,21.37 0 0 0 5.17,9.08a19.79,19.79 0 0 0 4,3.17c1.48,0.88 3.25,1.82 5,1.68c3.93,-0.31 4.89,-5.38 4.61,-8.52c-0.36,-4 -2.26,-7.64 -4.4,-11c-1.07,-1.65 -3.7,-0.14 -2.65,1.55c1.38,2.24 5.11,6.37 7.57,3c2,-2.75 0.66,-7 -0.8,-9.71a51.09,51.09 0 0 0 -6.66,-8.72c-2.44,-2.77 -5.47,-5.3 -9.28,-5.67a7.89,7.89 0 0 0 -8.41,5.66a1.5,1.5 0 0 0 2.89,0.8a5.22,5.22 0 0 1 6.88,-3c3.25,1.12 5.49,4.1 7.59,6.66c2,2.38 4.2,4.83 5.17,7.82a6.2,6.2 0 0 1 0.21,4.2l-0.09,0.16c0.36,0 0.34,-0.05 -0.07,-0.22c-0.2,-0.22 -0.52,-0.39 -0.74,-0.59a9.14,9.14 0 0 1 -1.61,-2l-2.65,1.55a24.83,24.83 0 0 1 3.88,8.36c0.37,1.84 0.57,7.42 -2.63,6.48c-5.07,-1.49 -8.87,-6.76 -10.37,-11.56a1.38,1.38 0 0 0 -2.69,0.37c0,0.31 -1.39,-1.26 -1.44,-1.32a12.68,12.68 0 0 1 -1.31,-2.5a17.38,17.38 0 0 1 -1.1,-5.23a38,38 0 0 1 1.81,-12.61a0.88,0.88 0 0 0 -1.7,-0.47l0,0.09z"/>
  </g>
  <path id="svg_43" d="m513.63,234.61c3.24,3.09 7.55,4.64 11.73,6c1.36,0.44 1.95,-1.72 0.59,-2.13c-3.9,-1.19 -8,-2.32 -11.11,-5.06c-0.83,-0.72 -2,0.45 -1.21,1.21l0,-0.02z"/>
  <path id="svg_44" d="m583.66,422.48c20.13,-38.91 42.34,-76.7 64.59,-114.48l64.27,-109.2c2.87,-4.87 5.29,-10.13 5.77,-15.83c0.42,-5.06 -1.39,-9.88 -1.48,-14.87s3,-9.44 6.49,-12.72c4.21,-4 9.13,-7.1 13.72,-10.62s8.27,-8.1 12.45,-12.28c8.2,-8.18 20.06,-17.35 31.19,-8.5c4.84,3.84 6.29,11.91 2,16.3c-4.1,4.16 -11.34,3.8 -15.35,8a18,18 0 0 0 -3.4,6.43l-9.87,27c-1,2.58 -2,5.32 -4.22,6.95c-2.71,2 -6.48,1.83 -9.42,3.46c-3.15,1.74 -4.87,5.21 -6.39,8.47l-109.08,233c-2.24,4.79 -5.6,10.32 -10.89,10.24c-2.77,-0.05 -5.22,-1.72 -7.48,-3.32l-21.41,-15.23"/>
  <path id="svg_45" d="m584.52,423c12.27,-23.58 25.3,-46.75 38.63,-69.74s27,-46 40.59,-69q20.73,-35.08 41.44,-70.2c3.37,-5.73 7,-11.37 10.1,-17.25c2.75,-5.21 4.85,-11 4.45,-17c-0.4,-5.79 -2.9,-11.73 -0.11,-17.27c2.67,-5.32 7.84,-9 12.54,-12.39c2.44,-1.76 4.93,-3.48 7.24,-5.41a73.39,73.39 0 0 0 6.44,-6.28c3.9,-4.16 7.83,-8.38 12.51,-11.7c4.22,-3 9.47,-5.66 14.8,-4.69c5,0.92 9.43,4.55 10.37,9.67a9,9 0 0 1 -1,6.21a10.56,10.56 0 0 1 -5.51,4c-4.42,1.71 -9.19,2.7 -12,6.85c-1.64,2.38 -2.48,5.3 -3.46,8l-3.55,9.52l-3.51,9.59a69.48,69.48 0 0 1 -3.34,8.64c-1.43,2.71 -3.53,3.76 -6.41,4.48c-2.57,0.65 -5,1.33 -7.07,3.1a19.17,19.17 0 0 0 -4.3,6.11c-1.43,2.9 -2.76,5.86 -4.13,8.79l-17.32,37l-8.66,18.5c-2.88,6.15 -5.53,12.48 -8.74,18.46c-6.41,11.91 -11.6,24.39 -17.21,36.69c-11.3,24.78 -23,49.39 -34.54,74.05l-17.32,37c-2,4.33 -4.06,10.48 -8.61,12.84c-2.52,1.3 -5.09,0.44 -7.36,-1c-2.69,-1.65 -5.21,-3.63 -7.79,-5.46l-15.81,-11.23c-1.62,-1.15 -3.16,1.52 -1.55,2.66l16.82,12c4.34,3.08 9.54,8.11 15.36,6.46c4.64,-1.31 7.47,-6 9.43,-10.07c3,-6.23 5.88,-12.54 8.82,-18.81q17.79,-38 35.63,-76c2.94,-6.25 5.84,-12.53 8.84,-18.76s6.25,-12.55 9.28,-18.87s5.86,-12.42 8.42,-18.79c2.65,-6.56 5.88,-12.92 8.88,-19.33l17.72,-37.86l8.94,-19.08c1.36,-2.92 2.64,-5.9 4.15,-8.74c1.29,-2.4 2.9,-4.68 5.52,-5.71s5.58,-1.16 8,-2.71a12.26,12.26 0 0 0 4.45,-5.87c2.62,-6.23 4.7,-12.72 7,-19.07q1.82,-4.93 3.62,-9.88c1,-2.69 2,-5.51 4.45,-7.22c3.91,-2.74 9.06,-2.93 12.87,-5.9s4.81,-7.61 3.74,-12a15.16,15.16 0 0 0 -9.46,-10.33c-10.76,-4.28 -21.26,4.31 -28.38,11.45c-4.46,4.46 -8.44,9.31 -13.53,13.11c-4.84,3.6 -10.13,6.9 -14.2,11.42c-3.87,4.3 -5.82,9.19 -5.12,15c0.39,3.24 1.21,6.43 1.32,9.69a25,25 0 0 1 -1.58,9.1c-2.22,6.28 -6.15,12 -9.5,17.67l-10.64,18.12l-21.11,36q-21,35.84 -42,71.68c-13.69,23.5 -27.19,47.13 -40,71.12q-4.69,8.79 -9.26,17.66c-0.59,1.14 1.14,2.15 1.73,1l-0.02,-0.02z"/>
  <path id="svg_46" fill="#fff" d="m708.65,263.08a15.62,15.62 0 0 1 -1.27,-20c-3.11,-1.8 -6.3,-3.66 -8.59,-6.44a12.55,12.55 0 0 1 -2.27,-4.19a3.25,3.25 0 0 1 4.66,-3.77a41.39,41.39 0 0 1 7.63,5.29c-4.72,-3.32 -10,-7.76 -9.46,-13.51a3.72,3.72 0 0 1 1.68,-3.09c1.52,-0.77 3.3,0.25 4.66,1.27a98.83,98.83 0 0 1 7.71,6.44c-5.11,-2.73 -10.85,-7 -10.13,-12.76a3.26,3.26 0 0 1 1.49,-2.61a3.76,3.76 0 0 1 2.35,-0.14a23.83,23.83 0 0 1 12.76,6.58c-1.93,-4 -7.49,-5.18 -9.3,-9.46a4.64,4.64 0 0 1 0.14,-4.08c1.08,-1.86 3,-1.92 4.71,-1.77a25.68,25.68 0 0 1 22.13,19.35c2,8.76 -0.84,17.84 -4.16,26.19c-4,10.17 -9.07,20.32 -17.32,27.51"/>
  <path id="svg_47" d="m736.65,220.46c1.16,8 -0.85,16.06 -3.67,23.46a96.12,96.12 0 0 1 -9.82,19.83a47.7,47.7 0 0 1 -8,9.21c-1.3,1.15 0.6,3 1.9,1.9c5.76,-5.08 10,-11.57 13.39,-18.43c3.49,-7.13 6.74,-14.82 8.32,-22.62a28.35,28.35 0 0 0 -0.28,-13.85a0.93,0.93 0 0 0 -1.8,0.5l-0.04,0z"/>
  <path id="svg_48" d="m720.77,215.92c-0.66,-3 -3.41,-4.34 -5.66,-6c-1.9,-1.42 -4.66,-4 -3.24,-6.6c0.83,-1.52 -1.5,-2.88 -2.32,-1.36c-1.86,3.49 0.26,7.05 3,9.24c2.29,1.81 4.74,3.37 6.63,5.64c0.63,0.77 1.75,-0.07 1.56,-0.91l0.03,-0.01z"/>
  <path id="svg_49" d="m714.06,224.44c-2.49,-2.1 -5.49,-3.59 -7.57,-6.15a8.85,8.85 0 0 1 -1.85,-3.82c-0.19,-1.06 -0.29,-3 0.8,-3.58a1.35,1.35 0 0 0 -1.36,-2.32c-1.81,1 -2.31,3.29 -2.19,5.24a10.22,10.22 0 0 0 1.92,5.2a18.56,18.56 0 0 0 9.34,7c0.86,0.26 1.65,-0.95 0.91,-1.56l0,-0.01z"/>
  <path id="svg_50" d="m709.47,233.33c-2.25,-2.4 -5.17,-4.15 -7.05,-6.9a9.85,9.85 0 0 1 -1.7,-4c-0.18,-1.21 -0.24,-3.17 1,-3.87a1.34,1.34 0 0 0 -1.35,-2.32c-3.66,2.1 -2.51,7.64 -0.76,10.6a20.27,20.27 0 0 0 8.74,8a0.94,0.94 0 0 0 1.13,-1.47l-0.01,-0.04z"/>
  <path id="svg_51" d="m709.31,262.42c-4.2,-5.37 -5.06,-13.09 -0.8,-18.66a1.31,1.31 0 0 0 -0.51,-1.76c-4.12,-2.41 -8.65,-5 -10.22,-9.86c-0.54,-1.64 -3.14,-0.94 -2.6,0.71c1.83,5.56 6.68,8.64 11.5,11.4l-0.47,-1.79c-4.61,6.14 -4.44,16.26 1.73,21.3a0.94,0.94 0 0 0 1.33,-1.32l0.04,-0.02z"/>
  <path id="svg_52" d="m406.53,225.86a144,144 0 0 1 -7.13,39.95q-1.59,4.76 -3.52,9.38a69.6,69.6 0 0 1 -4.15,8.77a4.78,4.78 0 0 1 -3,2.49a10,10 0 0 1 -4.82,-0.72c-2.59,-0.81 -5.15,-1.73 -7.67,-2.72a138.69,138.69 0 0 1 -52.08,-36.51a143.51,143.51 0 0 1 -31.16,-55.33a133.3,133.3 0 0 1 -5.27,-33.37c-0.47,-14.63 0.8,-29.28 1.7,-43.87l1.35,-21.8c0.21,-3.42 0.6,-6.89 0.11,-10.3c-0.46,-3.25 -2,-6 -3.71,-8.74a42.38,42.38 0 0 1 -6,-17.68a43.25,43.25 0 0 1 0.06,-9.31c0.32,-2.7 0.69,-5.75 2.34,-8c0.74,-1 3.24,-3.71 4.52,-2a1.37,1.37 0 0 0 2.36,-1.38a3.7,3.7 0 1 1 7.07,-2c0.33,1.56 2.63,1.13 2.69,-0.36a5.62,5.62 0 0 1 5.19,-5.32a5.7,5.7 0 0 1 5.59,4.96l2.63,-0.72c-0.84,-2.76 2.26,-4.69 4.65,-4.91c3.32,-0.3 5.86,2.65 7.42,5.22a98.33,98.33 0 0 1 5.11,10.72c1.91,4.22 4,8.41 5.66,12.72c1.52,3.93 2.67,8.4 0.82,12.43c-1.58,3.42 -4.44,6 -5.93,9.52a23.25,23.25 0 0 0 -1.36,11.55c0.42,4.3 1.26,8.57 2,12.82q4.65,26.81 11.44,53.2q3.42,13.23 7.36,26.33c1.13,3.76 2.05,7.91 4.3,11.2s5.51,5.26 8.8,7.19q24.07,14.13 48.29,28q3,1.74 6.08,3.49a1.43,1.43 0 0 0 1.44,-2.46q-25,-14.34 -49.89,-28.92c-3.65,-2.14 -7.82,-4.07 -10.83,-7.1s-3.95,-7.3 -5.14,-11.23q-4.06,-13.46 -7.57,-27.06q-7,-27.21 -11.85,-54.92a93.47,93.47 0 0 1 -1.83,-13.3a19.67,19.67 0 0 1 0.71,-6.25a18,18 0 0 1 2.69,-5.09c2.32,-3.3 4.62,-6.39 4.92,-10.56s-1.33,-8.47 -3,-12.33c-1.94,-4.42 -4,-8.81 -6,-13.21c-1.56,-3.46 -3,-7.09 -5.31,-10.11c-2,-2.54 -4.87,-4.74 -8.23,-4.57a8.48,8.48 0 0 0 -7.11,4.24a5.5,5.5 0 0 0 -0.27,4.11a1.36,1.36 0 0 0 2.63,-0.72a8.11,8.11 0 0 0 -16.14,1.11l2.69,-0.36a6.43,6.43 0 1 0 -12.07,4.06l2.36,-1.38c-3.56,-4.73 -9.06,0.59 -10.55,4.42a31.33,31.33 0 0 0 -1.61,9.17a45.36,45.36 0 0 0 0.45,9.67a43.35,43.35 0 0 0 2.61,9.62a68.86,68.86 0 0 0 4.6,8.81a17.59,17.59 0 0 1 2.39,9.8c-0.1,3.7 -0.43,7.41 -0.66,11.11c-1,15.39 -2.19,30.79 -2.71,46.2c-0.44,13.18 0.15,26.33 3,39.24a144.28,144.28 0 0 0 29.25,60a142.81,142.81 0 0 0 52.52,40.55q4,1.77 8,3.27a44.31,44.31 0 0 0 8.37,2.6a7.3,7.3 0 0 0 7.54,-3.14c1.83,-2.62 3,-5.87 4.23,-8.79a133,133 0 0 0 10,-40.9c0.29,-3.49 0.37,-7 0.32,-10.47a0.86,0.86 0 0 0 -1.71,0l0.02,-0.01z"/>
  <path id="svg_53" d="m509.47,524.19c-1.92,1.89 -4,4.55 -2.86,7a6.59,6.59 0 0 0 2.34,2.35a300,300 0 0 0 50.89,28.9a3.46,3.46 0 0 0 1.82,0.42a3.3,3.3 0 0 0 1.49,-0.78a29.09,29.09 0 0 0 7.75,-9.47a7.62,7.62 0 0 0 1.05,-3.5c0,-3.14 -3.2,-5.18 -6,-6.64l-43.53,-22.75c-2.15,-1.13 -4.44,-2.28 -6.86,-2.15s-4.93,2.11 -4.7,4.52"/>
  <path id="svg_54" d="m508.83,523.54c-1.72,1.61 -3.65,3.72 -3.67,6.23s2.06,4 3.92,5.37c4.83,3.54 9.91,6.79 15,9.94a293,293 0 0 0 31.28,16.82c1.25,0.58 2.51,1.16 3.78,1.71a4.23,4.23 0 0 0 3.68,0.29c2.19,-1 4.16,-3.34 5.67,-5.19c2.83,-3.45 6.76,-8.85 3.59,-13.23a15.32,15.32 0 0 0 -5.43,-4.2c-2.78,-1.47 -5.57,-2.91 -8.35,-4.37l-17.15,-8.91c-6.27,-3.27 -12.5,-6.61 -18.8,-9.81c-2.57,-1.31 -5.6,-2.58 -8.51,-1.63a5.84,5.84 0 0 0 -4.3,5.55c0.07,1.73 2.76,1.74 2.69,0c-0.1,-2.19 2.28,-3.31 4.2,-3.18c2.46,0.17 4.74,1.65 6.88,2.76l14.69,7.68l14.72,7.72c4.68,2.46 9.56,4.7 14.09,7.43c1.52,0.91 3.38,2.2 3.7,4.09c0.35,2.1 -1.38,4.47 -2.48,6.13a28.45,28.45 0 0 1 -4.62,5.3c-0.71,0.63 -1.51,1.61 -2.53,1.35a24,24 0 0 1 -3.74,-1.67a306.51,306.51 0 0 1 -27.14,-14.19q-7.47,-4.37 -14.67,-9.18l-3.63,-2.46a26.94,26.94 0 0 1 -3.35,-2.36c-2.22,-2.13 0.22,-5 1.79,-6.7a0.91,0.91 0 0 0 -1.28,-1.29l-0.03,0z"/>
  <path id="svg_55" d="m532.16,521.61q16.44,-26.5 31.9,-53.59t30.07,-54.35q8.25,-15.46 16.26,-31.05c0.69,-1.36 -1.35,-2.56 -2,-1.2q-14.22,27.75 -29.24,55.08t-30.68,54q-8.88,15.11 -17.89,30.13c-0.64,1.05 1,2 1.63,1l-0.05,-0.02z"/>
  <path id="svg_56" d="m539.94,531.15q16.42,-26.5 31.89,-53.59t30.08,-54.35q8.25,-15.46 16.25,-31c0.7,-1.36 -1.35,-2.56 -2,-1.2q-14.21,27.75 -29.23,55.09t-30.69,54q-8.87,15.1 -17.89,30.13a1,1 0 0 0 1.64,1l-0.05,-0.08z"/>
  <path id="svg_57" d="m547.71,540.69q16.44,-26.51 31.9,-53.59t30.07,-54.35q8.25,-15.45 16.26,-31.05c0.69,-1.36 -1.36,-2.56 -2.05,-1.2q-14.22,27.75 -29.24,55.09t-30.65,54.01q-8.88,15.1 -17.9,30.13a1,1 0 0 0 1.64,1l-0.03,-0.04z"/>
  <path id="svg_58" d="m555.49,550.23q16.43,-26.51 31.89,-53.59t30.07,-54.35q8.26,-15.45 16.26,-31.05c0.7,-1.35 -1.35,-2.56 -2.05,-1.2q-14.22,27.76 -29.23,55.09t-30.69,54q-8.88,15.11 -17.89,30.13a1,1 0 0 0 1.64,1l0,-0.03z"/>
  <path id="svg_59" d="m256.3,527.44c-13.55,0.87 -24.25,24.56 -33.62,34.38c-5,5.21 -10.27,12.64 -6.71,18.89c2.65,4.66 8.6,8.12 13.88,7.21c12.88,-2.24 17.52,-4 21,-3.21c7,-16.5 14.82,-32.67 25.17,-47c-6.34,-4.94 -12.76,-10.71 -19.72,-10.27z"/>
  <path id="svg_60" d="m661.58,946.19a46.49,46.49 0 0 1 -4.34,-14.75c-4.7,1.91 -9.31,4.44 -13.83,6.61a108.56,108.56 0 0 1 -42.81,10.62c1.09,4.07 2.17,8.14 3.27,12.2c1,3.91 2.24,8 5.26,10.73c4,3.57 10,3.54 15.33,3.31l45.08,-1.91a5.57,5.57 0 0 0 4.62,-8.3c-3.62,-6.35 -9.16,-11.91 -12.58,-18.51z"/>
  <g id="svg_61" fill="#18c4ff">
   <path id="svg_62" d="m407.17,316.45c5.86,3.91 11.76,7.75 17.68,11.58c1.18,0.76 2.29,-1.14 1.1,-1.89q-8.91,-5.67 -17.89,-11.22c-1,-0.6 -1.83,0.9 -0.89,1.53z"/>
   <path id="svg_63" d="m573.12,307a90,90 0 0 1 -4.46,41.24c-0.52,1.46 1.81,2.09 2.31,0.64a89.13,89.13 0 0 0 4.03,-42.12c-0.15,-1.08 -2,-0.83 -1.91,0.26l0.03,-0.02z"/>
   <path id="svg_64" d="m455.14,446a47.72,47.72 0 0 1 -10.24,11c-3.78,2.94 -8.39,4.95 -11.21,9l2.33,0.63q-0.42,-7.11 -0.89,-14.21l-1.66,1.27a36.94,36.94 0 0 1 9,5.05c1.2,0.83 2.6,-1 1.55,-2a27.82,27.82 0 0 0 -9.83,-5.57a1.31,1.31 0 0 0 -1.66,1.26q0.48,7.11 1,14.21a1.26,1.26 0 0 0 2.33,0.63a18.85,18.85 0 0 1 5.32,-4.82a71.08,71.08 0 0 0 5.89,-4.31a50.48,50.48 0 0 0 9.8,-11.14c0.71,-1.09 -1,-2.08 -1.73,-1z"/>
   <path id="svg_65" d="m451.68,622.09a20,20 0 0 0 8.06,13.62a1.11,1.11 0 1 0 1.12,-1.91a18.09,18.09 0 0 1 -7.29,-12c-0.16,-1.06 -2,-0.82 -1.89,0.25l0,0.04z"/>
   <path id="svg_66" d="m459.39,621.18a34.08,34.08 0 0 0 5.79,9.18a1.08,1.08 0 0 0 1.53,-1.53a32.61,32.61 0 0 1 -5.59,-8.66a1,1 0 0 0 -1.37,-0.36a1,1 0 0 0 -0.36,1.37z"/>
   <path id="svg_67" d="m583.63,668.42c3.6,-0.38 7.21,-0.48 10.8,-0.82a1.09,1.09 0 0 0 1.07,-1.06a1.08,1.08 0 0 0 -1.07,-1.07a81.64,81.64 0 0 0 -10.8,0.89a1.07,1.07 0 0 0 -1,1a1,1 0 0 0 1,1l0,0.06z"/>
   <path id="svg_68" d="m586.14,676.85a9.27,9.27 0 0 0 4.53,0.36a11.57,11.57 0 0 0 4.31,-1.48a1.13,1.13 0 0 0 0.4,-1.5a1.11,1.11 0 0 0 -1.5,-0.39a9.55,9.55 0 0 1 -3.63,1.31a15.11,15.11 0 0 1 -3.85,-0.19a1,1 0 0 0 -0.95,0.83a1,1 0 0 0 0.69,1.06z"/>
   <path id="svg_69" d="m233.77,581.53a4.6,4.6 0 0 0 -0.66,2.18a7.52,7.52 0 0 0 0.07,2.22a8.67,8.67 0 0 0 1.76,4a1.19,1.19 0 0 0 1.66,0a1.21,1.21 0 0 0 0,-1.66a1.15,1.15 0 0 0 -0.14,-0.17c0.08,0.09 0,0 0,0l-0.25,-0.37a7.29,7.29 0 0 1 -0.42,-0.78c0,-0.06 -0.07,-0.14 0,0l-0.08,-0.21l-0.15,-0.41c-0.09,-0.3 -0.16,-0.61 -0.22,-0.92a2.07,2.07 0 0 0 0,-0.22c0,-0.18 0,0.15 0,0s0,-0.3 0,-0.44a6.61,6.61 0 0 1 0,-0.89a3.29,3.29 0 0 1 0.08,-0.7a6.51,6.51 0 0 0 0.14,-1.08a0.9,0.9 0 0 0 -0.66,-0.87a0.93,0.93 0 0 0 -1,0.42l-0.13,-0.1z"/>
   <path id="svg_70" d="m241.32,578.87a8.1,8.1 0 0 0 -2.26,6a6.64,6.64 0 0 0 3.1,5.05a1.11,1.11 0 0 0 1.12,-1.91a4.94,4.94 0 0 1 -2,-3.35a8.26,8.26 0 0 1 1.49,-4.73c0.49,-0.85 -0.73,-1.88 -1.41,-1.08l-0.04,0.02z"/>
   <path id="svg_71" d="m654.21,944.22c0.72,-0.36 1.4,-0.81 2.11,-1.2s1.49,-0.76 2.25,-1.1a34.56,34.56 0 0 1 4.54,-1.63a1.07,1.07 0 0 0 -0.56,-2.06a32,32 0 0 0 -4.92,1.92a20.33,20.33 0 0 0 -4.46,2.72a0.85,0.85 0 0 0 -0.07,1.13a0.89,0.89 0 0 0 1.11,0.22z"/>
   <path id="svg_72" d="m658.37,949c2.63,-1.06 5.35,-2 7.88,-3.29a1,1 0 0 0 -0.79,-1.88c-2.68,0.94 -5.25,2.24 -7.83,3.41c-1,0.44 -0.28,2.17 0.74,1.76z"/>
  </g>
  <path id="svg_73" d="m330.5,46c-5.88,-0.57 -12.59,-0.14 -16.19,5.26c-1.41,2.12 -2.26,5.29 0.08,7.06a15.59,15.59 0 0 0 3.89,1.78l5.53,2.19l0.36,-2.64a13.32,13.32 0 0 0 -12.37,15.44c0.28,1.61 3,1.25 2.88,-0.39a11.49,11.49 0 0 1 2.2,-8.32a11.08,11.08 0 0 1 7.29,-4a1.35,1.35 0 0 0 0.36,-2.64c-2.56,-1 -5.19,-1.87 -7.7,-3c-1.18,-0.51 -1.59,-1.06 -1.22,-2.4a7,7 0 0 1 1.5,-2.73c3.3,-3.8 8.72,-4.08 13.39,-3.92c1.1,0 1.06,-1.58 0,-1.68l0,-0.01z"/>
  <path id="svg_74" d="m291.83,51.42a3.71,3.71 0 0 0 3.61,-2.29c0.8,-1.74 0.36,-3.63 -0.14,-5.39a1,1 0 1 0 -2,0.55c0.09,0.36 0.19,0.71 0.27,1.07c0,0.18 0.08,0.36 0.11,0.54s0.05,0.26 0.07,0.39a6.5,6.5 0 0 1 0,1.08l0,0.24l0,0.12c0,-0.06 0,0 0,0s-0.06,0.28 -0.1,0.42s-0.05,0.12 -0.07,0.17s0,-0.05 0,0s-0.13,0.25 -0.21,0.37a2.14,2.14 0 0 1 -0.13,0.19c0.06,-0.08 0,0 0,0l-0.29,0.29c-0.05,0 -0.17,0.12 -0.06,0.05l-0.15,0.1l-0.19,0.1c-0.13,0.07 0.12,0 0,0a1.64,1.64 0 0 1 -0.38,0.1c0.1,0 0.06,0 0,0l-0.27,0a0.92,0.92 0 0 0 -0.92,0.92a0.94,0.94 0 0 0 0.92,0.92l-0.07,0.06z"/>
  <path id="svg_75" d="m301.3,39.6a4.21,4.21 0 0 1 0.86,3.14s0,0.24 0,0.07l0,0.19c0,0.16 -0.07,0.31 -0.11,0.46l-0.15,0.46c-0.06,0.17 0,0 0,0.06s-0.07,0.15 -0.1,0.22a4.36,4.36 0 0 1 -0.24,0.41l-0.1,0.15s-0.2,0.25 -0.07,0.1a4.72,4.72 0 0 1 -0.68,0.66a1.07,1.07 0 1 0 1.44,1.48a6.23,6.23 0 0 0 0.36,-8.64a0.86,0.86 0 0 0 -1.21,0a0.87,0.87 0 0 0 0,1.21l0,0.03z"/>
  <path id="svg_76" d="m312.87,36.77a9.23,9.23 0 0 1 -0.14,1.94c-0.07,0.33 -0.15,0.66 -0.25,1c-0.05,0.17 -0.11,0.34 -0.17,0.51l-0.14,0.36a10.7,10.7 0 0 1 -1,1.77l-0.08,0.1c0.05,-0.06 0.05,-0.07 0,0l-0.14,0.16l-0.15,0.15c-0.06,0 -0.06,0 0,0l-0.09,0.05c0,-0.08 0.16,0 0,0a1.49,1.49 0 0 1 0.43,0.05c-0.15,-0.05 0,0 0.05,0.07a0.7,0.7 0 0 1 0,0.74a1.16,1.16 0 0 0 -2,-1.17a1.73,1.73 0 0 0 0.29,2a1.9,1.9 0 0 0 1.77,0.53c1.07,-0.23 1.75,-1.32 2.25,-2.21a11,11 0 0 0 1.38,-6a1,1 0 0 0 -1,-1a1,1 0 0 0 -1,1l-0.01,-0.05z"/>
  <path id="svg_77" d="m323.37,35.84c-0.14,-0.06 0.06,0 0.08,0.07s0.05,0.06 0.06,0.07s0,0.06 0.05,0.09s0.07,0.15 0.11,0.23c-0.07,-0.16 0,0 0,0.09a1.6,1.6 0 0 1 0.05,0.21l0,0.13c0,-0.09 0,-0.11 0,0s0,0.14 0,0.21a2.17,2.17 0 0 1 0,0.26s0,0.31 0,0.1a4.54,4.54 0 0 1 -0.12,0.53c0,0.09 -0.06,0.18 -0.08,0.26s0,-0.05 0,0.06s-0.16,0.32 -0.25,0.48s-0.18,0.28 -0.28,0.42c0.13,-0.18 -0.05,0 -0.07,0.07l-0.18,0.2l-0.4,0.37c-0.15,0.14 0.06,0 0,0l-0.22,0.16c-0.14,0.09 -0.29,0.17 -0.44,0.25l-0.25,0.11c0.24,-0.1 0,0 -0.07,0a4.61,4.61 0 0 1 -0.53,0.15s-0.28,0.06 -0.11,0s-0.18,0 -0.22,0a1.16,1.16 0 0 0 -1.13,1.14a1.14,1.14 0 0 0 1.13,1.13a5.88,5.88 0 0 0 4.71,-3.3a5.25,5.25 0 0 0 0.48,-3a2.59,2.59 0 0 0 -1.84,-2.2a0.88,0.88 0 0 0 -1.05,0.59a0.89,0.89 0 0 0 0.6,1.06l-0.03,0.06z"/>
  <path id="svg_78" d="m331.28,88.6a42.43,42.43 0 0 1 -38,6.51a4.18,4.18 0 0 1 -2.32,-1.4c-0.87,-1.27 -0.25,-3.1 -1,-4.44c-1,-1.73 -3.79,-1.47 -5.14,0s-1.64,3.59 -1.88,5.58l-1.35,11.15a11.36,11.36 0 0 0 0.07,4.39c0.82,2.87 3.69,4.6 6.42,5.81a49.78,49.78 0 0 0 24.7,4.45a38.3,38.3 0 0 0 22.82,-10a10.35,10.35 0 0 0 2.88,-4a11.62,11.62 0 0 0 0.38,-4.4a107.45,107.45 0 0 0 -1.86,-15.38c-0.38,-1.93 -1.41,-4.33 -3.37,-4.18s-2.61,2.65 -2.76,4.6"/>
  <path id="svg_79" d="m330.83,87.83a43.09,43.09 0 0 1 -33.77,6.87a25.61,25.61 0 0 1 -3.94,-1.11c-1.57,-0.62 -1.25,-1.94 -1.46,-3.35a4.13,4.13 0 0 0 -5.15,-3.46c-2.67,0.55 -4.1,3 -4.63,5.44c-0.7,3.24 -0.86,6.64 -1.24,9.92s-1.31,6.79 0.1,9.82c1.16,2.46 3.6,4.06 6,5.2a52.72,52.72 0 0 0 18.84,5a43,43 0 0 0 18.36,-2.58a39.32,39.32 0 0 0 8,-4.07a27.2,27.2 0 0 0 6.66,-5.9c2.34,-3.14 1.85,-7 1.56,-10.67a107.22,107.22 0 0 0 -1.62,-12c-0.49,-2.5 -1.77,-5.86 -4.86,-5.73s-4,3.55 -4.23,6.05c-0.18,1.89 2.79,1.89 2.95,0a5,5 0 0 1 0.82,-2.81c0.7,-0.76 1.36,0 1.73,0.66a10.28,10.28 0 0 1 0.89,3.08c0.3,1.59 0.56,3.2 0.79,4.81a93.85,93.85 0 0 1 0.88,9.76a8.4,8.4 0 0 1 -0.52,4a11,11 0 0 1 -2.63,3.2c-8.15,7.56 -19.67,10.38 -30.54,9.18a46.57,46.57 0 0 1 -16.59,-4.94c-2,-1.09 -4.05,-2.61 -4.31,-5.08a19.47,19.47 0 0 1 0.3,-4.31l0.59,-5.11c0.3,-2.63 0.26,-5.69 1.26,-8.18a3,3 0 0 1 2.1,-2a1.35,1.35 0 0 1 1.82,1.28a9.29,9.29 0 0 0 0.61,3.31a4.84,4.84 0 0 0 2.68,2.12a33.05,33.05 0 0 0 7.34,1.77a42.23,42.23 0 0 0 32.29,-8.75c0.79,-0.64 -0.25,-2 -1.08,-1.41l0,-0.01z"/>
  <path id="svg_80" fill="#18c4ff" d="m530.23,305.68a129.33,129.33 0 0 0 -23,-2.29c-3.88,-0.05 -7.77,0 -11.64,0.29c-3,0.19 -6.77,0.11 -8.32,3.22c-1.43,2.86 -0.38,6.4 1,9.07c1.56,3.11 3.92,5.8 6.06,8.51q7.16,9 14.73,17.67q3.8,4.32 7.69,8.55c1.86,2 5.37,4.74 3.73,7.83s-5.51,3.32 -8.58,3.14c-3.88,-0.21 -7.76,-0.67 -11.63,-1l-5.95,-0.54a46.2,46.2 0 0 1 -5.65,-0.56c-3.57,-0.81 -1,-5.41 0.18,-7.23a55.92,55.92 0 0 1 6.87,-8c2.54,-2.68 5.08,-5.35 7.68,-8a192.39,192.39 0 0 1 18.24,-16.48a41.92,41.92 0 0 0 8,-7.59c0.89,-1.18 1.76,-2.4 1.63,-4a2.28,2.28 0 0 0 -2.84,-2.25c-1.91,0.48 -1.1,3.43 0.81,2.95l-1,-0.52a1,1 0 0 1 0,0.34c-0.09,0.12 -0.24,0.48 -0.29,0.56a15.79,15.79 0 0 1 -1.46,2a31.4,31.4 0 0 1 -3.46,3.46c-2.57,2.24 -5.34,4.25 -8,6.43a211.93,211.93 0 0 0 -16.03,15.2q-3.83,3.94 -7.59,8a36.11,36.11 0 0 0 -6.25,8.25c-1.24,2.46 -2.17,5.82 -0.19,8.18a5.67,5.67 0 0 0 3.71,1.81c2,0.29 4,0.39 5.92,0.57l11.65,1.06c3.58,0.32 7.34,1 10.9,0.15a9,9 0 0 0 6.61,-5.68c1,-3.2 -0.83,-5.92 -2.9,-8.18c-5.16,-5.64 -10.27,-11.3 -15.2,-17.14q-3.7,-4.4 -7.31,-8.88a89.91,89.91 0 0 1 -6.44,-8.5c-1.27,-2 -4.11,-7.7 -0.47,-8.93c1.88,-0.64 4.18,-0.54 6.15,-0.67s4.2,-0.24 6.3,-0.29a182.36,182.36 0 0 1 26.11,1.38c1.07,0.12 1.32,-1.69 0.26,-1.89l-0.03,0z"/>
  <path id="svg_81" d="m402,305.75a434.64,434.64 0 0 0 65,250.83c4.58,7.33 9.44,14.59 15.66,20.59a60.69,60.69 0 0 0 33.08,16.24c1.92,0.29 4.23,0.32 5.39,-1.24c1.62,-2.2 -0.53,-5.17 -2.59,-7c-7.14,-6.22 -15,-11.56 -21.8,-18.17c-11.06,-10.8 -18.7,-24.53 -26.16,-38.07c-17.05,-30.93 -34.11,-62.3 -43.49,-96.36c-8.73,-31.68 -10.57,-64.83 -11.05,-97.69"/>
  <path id="svg_82" d="m401.07,305.75a415.21,415.21 0 0 0 0.88,60.06a434.12,434.12 0 0 0 51.87,171.09c4.85,8.83 10,17.57 15.54,26c5.42,8.16 11.64,15.73 19.71,21.39a61.65,61.65 0 0 0 25.82,10.44c1.9,0.29 4,0.55 5.79,-0.38a4.42,4.42 0 0 0 2.33,-4.65a9.55,9.55 0 0 0 -3.18,-5.16c-1.89,-1.77 -4,-3.36 -6,-5c-8.07,-6.45 -16.15,-12.67 -22.74,-20.71c-6.43,-7.84 -11.6,-16.63 -16.54,-25.46c-10.3,-18.44 -20.51,-37 -29.36,-56.18c-9,-19.48 -16.28,-39.67 -20.61,-60.7c-4.45,-21.57 -6.16,-43.6 -6.87,-65.57c-0.18,-5.33 -0.29,-10.66 -0.37,-16a1.33,1.33 0 0 0 -2.66,0c0.31,21.43 1.2,42.88 4.18,64.13a266.24,266.24 0 0 0 16.14,61.35c7.65,19.27 17.15,37.74 27,55.94c4.82,8.89 9.6,17.83 14.76,26.53c5,8.38 10.51,16.52 17.31,23.54c7.14,7.38 15.77,13 23.39,19.79c1.16,1 3.83,3.61 2.34,5.27c-1.26,1.41 -4.33,0.53 -5.88,0.25a59.05,59.05 0 0 1 -13.43,-4.16a61.48,61.48 0 0 1 -22.26,-17.17c-6.29,-7.63 -11.37,-16.32 -16.36,-24.85a426.5,426.5 0 0 1 -26.19,-52.81a438.44,438.44 0 0 1 -33.17,-172.65q0.06,-7.17 0.38,-14.33c0,-1.22 -1.83,-1.21 -1.9,0l0.08,0z"/>
  <path id="svg_83" d="m592.06,328.5l-0.1,0a1.12,1.12 0 0 0 -0.62,0.51c-0.1,0.18 -0.17,0.37 -0.25,0.55a1.56,1.56 0 0 0 -0.1,0.37a4.34,4.34 0 0 0 -0.07,0.63a2.49,2.49 0 0 0 0.28,1.1a2.16,2.16 0 0 0 0.7,0.74a0.88,0.88 0 0 0 0.21,0.12a2,2 0 0 0 0.48,0.18a2.7,2.7 0 0 0 0.49,0a1.94,1.94 0 0 0 0.75,-0.2a1.58,1.58 0 0 0 0.39,-0.29a1.5,1.5 0 0 0 0.32,-0.44a2.27,2.27 0 0 0 0.21,-0.76a2.78,2.78 0 0 0 0,-0.58a3.91,3.91 0 0 0 -1,-1.68l0.18,0.23a1.61,1.61 0 0 1 -0.21,-0.3a3.5,3.5 0 0 0 -0.37,-0.49l-0.22,-0.17l-0.26,-0.11a1.11,1.11 0 0 0 -1.38,1.06a1.52,1.52 0 0 0 0.19,0.81a1.81,1.81 0 0 0 0.19,0.29c0.19,0.26 0.4,0.49 0.59,0.74l-0.18,-0.23a2.05,2.05 0 0 1 0.26,0.43l-0.12,-0.27a1.2,1.2 0 0 1 0.1,0.37l0,-0.3a0.88,0.88 0 0 1 0,0.23l0,-0.3a0.58,0.58 0 0 1 0,0.18l0.11,-0.26a1,1 0 0 1 -0.08,0.14l0.17,-0.23a0.52,0.52 0 0 1 -0.1,0.11l0.22,-0.18a0.42,0.42 0 0 1 -0.14,0.09l0.27,-0.11l-0.16,0l0.29,0l-0.19,0l0.29,0a0.78,0.78 0 0 1 -0.25,-0.07l0.27,0.11a0.92,0.92 0 0 1 -0.24,-0.13l0.22,0.17a1.21,1.21 0 0 1 -0.19,-0.2l0.17,0.22a0.82,0.82 0 0 1 -0.12,-0.2l0.11,0.26a1.32,1.32 0 0 1 -0.08,-0.33l0,0.29a2.57,2.57 0 0 1 0,-0.48l0,0.28c0,-0.21 0.07,-0.42 0.1,-0.63l0,0.28l0.06,-0.36a1.11,1.11 0 0 0 -0.09,-0.8l-0.06,-0.1a0.85,0.85 0 0 0 -1,-0.39l-0.04,0.1z"/>
  <path id="svg_84" d="m358.68,201.88c-0.75,-3.79 -1.54,-7.57 -2.28,-11.36a104,104 0 0 0 -3.19,-11.05a1.2,1.2 0 0 0 -2.31,0.63a105,105 0 0 0 2.59,11.23c1.19,3.66 2.33,7.34 3.51,11a0.87,0.87 0 0 0 1.68,-0.46l0,0.01z"/>
  <g id="svg_85" fill="#18c4ff">
   <path id="svg_86" d="m352,354.65c-14.29,21.55 -27.24,45.11 -31,71a97.83,97.83 0 0 0 1.27,36.65c2.66,11.17 7.65,23 16.24,30.94c4,3.64 8.77,6.39 14.19,6.91a21,21 0 0 0 14.6,-4.55a41.29,41.29 0 0 0 10.43,-12.41c2.46,-4.26 5.5,-9.88 3.94,-15a7.57,7.57 0 0 0 -5,-5a11.05,11.05 0 0 0 -7.35,0.76c-5.14,2.14 -9.31,6.54 -12.66,10.88c-6.83,8.84 -10.71,20.61 -7.5,31.64c2.87,9.9 11.06,18.67 21.61,20c9.95,1.21 20.47,-5.85 23.19,-15.49a17.46,17.46 0 0 0 0.4,-7.37a1.4,1.4 0 0 0 -2.32,-0.61c-9.24,8.7 -11.39,23.19 -6.43,34.64a27.34,27.34 0 0 0 6,8.75c1.27,1.24 3.23,-0.71 2,-2c-8.22,-8 -10,-21.42 -5.2,-31.71a25.14,25.14 0 0 1 5.59,-7.68l-2.32,-0.61c1.37,9.41 -7.12,17.56 -15.83,19.12c-9.57,1.72 -18.29,-5.22 -22.31,-13.39c-4.67,-9.48 -2.87,-20.45 2.38,-29.3a43.21,43.21 0 0 1 10.31,-11.9c3.1,-2.42 9.44,-5.54 12.3,-1.12c1.28,2 0.91,4.56 0.3,6.7a32,32 0 0 1 -3.11,6.91a40.36,40.36 0 0 1 -9.43,11.75a19,19 0 0 1 -13.24,4.52c-5,-0.37 -9.5,-3.08 -13.08,-6.43c-7.94,-7.46 -12.59,-18.35 -15.21,-28.75a93.69,93.69 0 0 1 -1.91,-33.58c2.72,-23.74 13.56,-45.72 26.09,-65.74c1.58,-2.52 3.2,-5 4.83,-7.5c0.73,-1.11 -1,-2.14 -1.77,-1l0,-0.03z"/>
   <path id="svg_87" d="m667.22,512.44c13.37,20.75 12.78,47.07 4,69.45c-2.56,6.53 -6,12.51 -9.37,18.62a1.15,1.15 0 0 0 2,1.16a96,96 0 0 0 8.69,-16.93a97.94,97.94 0 0 0 5.61,-18.27a78.61,78.61 0 0 0 -0.94,-36.25a65.69,65.69 0 0 0 -8.42,-18.68c-0.63,-1 -2.18,-0.07 -1.55,0.9l-0.02,0z"/>
   <path id="svg_88" d="m700.69,544.08a109.72,109.72 0 0 1 -1.76,49.45a111,111 0 0 1 -4.49,13.21c-0.55,1.35 1.65,2 2.18,0.61a112.29,112.29 0 0 0 5.8,-63.74c-0.23,-1.13 -1.95,-0.65 -1.73,0.47z"/>
   <path id="svg_89" d="m461,122.71c1.28,2.06 2.61,4.07 3.73,6.23a54.85,54.85 0 0 1 2.9,6.62c0.46,1.24 2.47,0.71 2,-0.56a46.57,46.57 0 0 0 -7.23,-13.37c-0.65,-0.8 -1.94,0.23 -1.41,1.08l0.01,0z"/>
   <path id="svg_90" d="m486.31,104.26c0.53,6 1.16,11.92 1.77,17.88c0.14,1.38 2.32,1.37 2.16,0c-0.7,-6 -1.38,-11.93 -2.14,-17.88c-0.15,-1.12 -1.9,-1.17 -1.79,0z"/>
   <path id="svg_91" d="m518.51,95.77a90.47,90.47 0 0 1 -2.91,18.56a1,1 0 0 0 2,0.55a93.44,93.44 0 0 0 2.69,-19.11c0,-1.16 -1.73,-1.15 -1.79,0l0.01,0z"/>
   <path id="svg_92" d="m555.23,93.64l-9.58,23.49c-0.53,1.3 1.59,1.88 2.1,0.58l9.25,-23.58c0.44,-1.11 -1.33,-1.58 -1.77,-0.49z"/>
   <path id="svg_93" d="m589.41,110.49c-4.29,6.14 -8.38,12.42 -12.54,18.65c-0.8,1.2 1.16,2.34 1.94,1.13c4.05,-6.29 8.16,-12.54 12.08,-18.92c0.59,-0.95 -0.86,-1.75 -1.48,-0.86z"/>
   <path id="svg_94" d="m603.28,155.69q2.64,-3.78 5.63,-7.27c2,-2.35 4.19,-4.5 6.3,-6.75a1.16,1.16 0 0 0 -1.64,-1.64a63.35,63.35 0 0 0 -6.5,6.91q-3.08,3.66 -5.77,7.59c-0.83,1.22 1.15,2.36 2,1.16l-0.02,0z"/>
   <path id="svg_95" d="m411.56,320.32a237.29,237.29 0 0 0 1.19,29.08c0.9,8.75 1.59,18.23 5.83,26.12c0.69,1.29 2.64,0.15 2,-1.14a41,41 0 0 1 -3.84,-12.44c-0.78,-4.48 -1.33,-9 -1.8,-13.52c-1,-9.33 -1.45,-18.72 -1.5,-28.1a0.92,0.92 0 0 0 -1.84,0l-0.04,0z"/>
  </g>
  <ellipse rx="1.5" id="svg_102" cy="499.33333" cx="565.16667" stroke-width="0" stroke="#000" fill="#f0f8ff"/>
 </g>
</svg>